<?xml version="1.0" encoding="utf-8" standalone="no"?>
<!DOCTYPE svg PUBLIC "-//W3C//DTD SVG 1.1//EN"
  "http://www.w3.org/Graphics/SVG/1.1/DTD/svg11.dtd">
<!-- Created with matplotlib (https://matplotlib.org/) -->
<svg height="423.302812pt" version="1.1" viewBox="0 0 589.4 423.302812" width="589.4pt" xmlns="http://www.w3.org/2000/svg" xmlns:xlink="http://www.w3.org/1999/xlink">
 <defs>
  <style type="text/css">
*{stroke-linecap:butt;stroke-linejoin:round;}
  </style>
 </defs>
 <g id="figure_1">
  <g id="patch_1">
   <path d="M 0 423.302812 
L 589.4 423.302812 
L 589.4 0 
L 0 0 
z
" style="fill:none;"/>
  </g>
  <g id="axes_1">
   <g id="patch_2">
    <path d="M 24.2 387.72 
L 582.2 387.72 
L 582.2 7.2 
L 24.2 7.2 
z
" style="fill:#ffffff;"/>
   </g>
   <g id="matplotlib.axis_1">
    <g id="xtick_1">
     <g id="line2d_1">
      <defs>
       <path d="M 0 0 
L 0 3.5 
" id="m482579be13" style="stroke:#000000;stroke-width:0.8;"/>
      </defs>
      <g>
       <use style="stroke:#000000;stroke-width:0.8;" x="49.563636" xlink:href="#m482579be13" y="387.72"/>
      </g>
     </g>
     <g id="text_1">
      <!-- 1990-12 -->
      <defs>
       <path d="M 21.875 56.25 
Q 16.796875 51.171875 8.984375 46.484375 
L 8.984375 53.90625 
Q 18.75 60.546875 25 69.53125 
L 29.6875 69.53125 
L 29.6875 2.34375 
L 21.875 2.34375 
z
" id="SimHei-49"/>
       <path d="M 12.5 1.171875 
Q 21.09375 15.625 26.5625 27.34375 
Q 16.796875 25.78125 10.34375 29.875 
Q 3.90625 33.984375 2.53125 41.015625 
Q 1.171875 48.046875 2.734375 53.703125 
Q 4.296875 59.375 7.609375 63.078125 
Q 10.9375 66.796875 15.625 68.359375 
Q 20.3125 69.921875 24.015625 69.921875 
Q 27.734375 69.921875 31.640625 68.359375 
Q 35.546875 66.796875 38.671875 63.671875 
Q 41.796875 60.546875 42.96875 57.21875 
Q 44.140625 53.90625 44.140625 48.625 
Q 44.140625 43.359375 40.234375 35.15625 
Q 36.328125 26.953125 21.09375 1.171875 
z
M 9.765625 50 
Q 10.9375 39.84375 14.640625 36.515625 
Q 18.359375 33.203125 22.65625 33.59375 
Q 26.953125 33.984375 29.484375 35.9375 
Q 32.03125 37.890625 34.375 42.578125 
Q 35.9375 48.4375 35.15625 52.53125 
Q 34.375 56.640625 31.046875 59.375 
Q 27.734375 62.109375 23.828125 62.109375 
Q 21.484375 62.5 17.765625 60.9375 
Q 14.0625 59.375 11.90625 54.6875 
Q 9.765625 50 10.9375 39.84375 
z
" id="SimHei-57"/>
       <path d="M 3.125 29.296875 
Q 3.90625 50 6.4375 56.046875 
Q 8.984375 62.109375 13.671875 66.015625 
Q 18.359375 69.921875 25.1875 69.921875 
Q 32.03125 69.921875 37.109375 64.25 
Q 42.1875 58.59375 43.75 50 
Q 45.3125 41.40625 44.71875 30.265625 
Q 44.140625 19.140625 40.8125 12.109375 
Q 37.5 5.078125 30.859375 2.34375 
Q 24.21875 -0.390625 17.578125 2.921875 
Q 10.9375 6.25 8.203125 11.71875 
Q 5.46875 17.1875 4.296875 23.234375 
Q 3.125 29.296875 3.90625 50 
z
M 12.890625 52.734375 
Q 10.546875 31.25 12.5 22.84375 
Q 14.453125 14.453125 18.9375 10.9375 
Q 23.4375 7.421875 28.125 9.5625 
Q 32.8125 11.71875 34.953125 18.15625 
Q 37.109375 24.609375 37.109375 32.21875 
Q 37.109375 39.84375 36.515625 46.09375 
Q 35.9375 52.34375 33 57.421875 
Q 30.078125 62.5 25.1875 62.6875 
Q 20.3125 62.890625 16.59375 57.8125 
Q 12.890625 52.734375 10.546875 31.25 
z
" id="SimHei-48"/>
       <path d="M 46.484375 33.203125 
L 1.953125 33.203125 
L 1.953125 39.453125 
L 46.484375 39.453125 
z
" id="SimHei-45"/>
       <path d="M 4.6875 3.90625 
Q 5.078125 9.765625 10.15625 14.453125 
Q 15.234375 19.140625 23.046875 29.09375 
Q 30.859375 39.0625 33.203125 44.53125 
Q 35.546875 50 34.953125 53.90625 
Q 34.375 57.8125 31.25 60.34375 
Q 28.125 62.890625 24.015625 62.5 
Q 19.921875 62.109375 16.203125 59.375 
Q 12.5 56.640625 10.546875 51.171875 
L 3.125 52.34375 
Q 6.25 61.328125 11.125 65.421875 
Q 16.015625 69.53125 22.65625 69.921875 
Q 26.5625 70.3125 29.6875 69.71875 
Q 32.8125 69.140625 36.125 66.984375 
Q 39.453125 64.84375 41.59375 60.546875 
Q 43.75 56.25 43.15625 50.1875 
Q 42.578125 44.140625 37.109375 35.734375 
Q 31.640625 27.34375 16.015625 9.375 
L 44.140625 9.375 
L 44.140625 2.34375 
L 4.6875 2.34375 
z
" id="SimHei-50"/>
      </defs>
      <g transform="translate(32.063636 401.595)scale(0.1 -0.1)">
       <use xlink:href="#SimHei-49"/>
       <use x="50" xlink:href="#SimHei-57"/>
       <use x="100" xlink:href="#SimHei-57"/>
       <use x="150" xlink:href="#SimHei-48"/>
       <use x="200" xlink:href="#SimHei-45"/>
       <use x="250" xlink:href="#SimHei-49"/>
       <use x="300" xlink:href="#SimHei-50"/>
      </g>
     </g>
    </g>
    <g id="xtick_2">
     <g id="line2d_2">
      <g>
       <use style="stroke:#000000;stroke-width:0.8;" x="119.243956" xlink:href="#m482579be13" y="387.72"/>
      </g>
     </g>
     <g id="text_2">
      <!-- 1995-02 -->
      <defs>
       <path d="M 8.59375 20.703125 
Q 11.328125 10.15625 17.96875 8.984375 
Q 24.609375 7.8125 28.703125 10.34375 
Q 32.8125 12.890625 34.5625 16.984375 
Q 36.328125 21.09375 36.125 26.171875 
Q 35.9375 31.25 33.390625 34.765625 
Q 30.859375 38.28125 26.953125 39.453125 
Q 23.046875 40.625 18.15625 39.453125 
Q 13.28125 38.28125 10.15625 33.984375 
L 3.515625 34.765625 
Q 4.296875 37.109375 10.9375 68.359375 
L 41.796875 68.359375 
L 41.796875 61.328125 
L 16.796875 61.328125 
Q 14.84375 50.78125 12.890625 44.53125 
Q 18.75 47.265625 23.828125 47.0625 
Q 28.90625 46.875 33.59375 44.71875 
Q 38.28125 42.578125 40.421875 38.859375 
Q 42.578125 35.15625 43.546875 31.4375 
Q 44.53125 27.734375 44.328125 23.4375 
Q 44.140625 19.140625 42.578125 14.640625 
Q 41.015625 10.15625 37.890625 7.21875 
Q 34.765625 4.296875 30.265625 2.53125 
Q 25.78125 0.78125 19.921875 1.171875 
Q 14.0625 1.5625 8.78125 5.46875 
Q 3.515625 9.375 1.5625 18.75 
z
" id="SimHei-53"/>
      </defs>
      <g transform="translate(101.743956 401.595)scale(0.1 -0.1)">
       <use xlink:href="#SimHei-49"/>
       <use x="50" xlink:href="#SimHei-57"/>
       <use x="100" xlink:href="#SimHei-57"/>
       <use x="150" xlink:href="#SimHei-53"/>
       <use x="200" xlink:href="#SimHei-45"/>
       <use x="250" xlink:href="#SimHei-48"/>
       <use x="300" xlink:href="#SimHei-50"/>
      </g>
     </g>
    </g>
    <g id="xtick_3">
     <g id="line2d_3">
      <g>
       <use style="stroke:#000000;stroke-width:0.8;" x="188.924276" xlink:href="#m482579be13" y="387.72"/>
      </g>
     </g>
     <g id="text_3">
      <!-- 1999-04 -->
      <defs>
       <path d="M 31.25 17.1875 
L 1.171875 17.1875 
L 1.171875 23.828125 
L 32.8125 69.53125 
L 38.671875 69.53125 
L 38.671875 23.828125 
L 48.046875 23.828125 
L 48.046875 17.1875 
L 38.671875 17.1875 
L 38.671875 2.34375 
L 31.25 2.34375 
z
M 31.25 23.828125 
L 31.25 54.6875 
L 9.375 23.828125 
z
" id="SimHei-52"/>
      </defs>
      <g transform="translate(171.424276 401.595)scale(0.1 -0.1)">
       <use xlink:href="#SimHei-49"/>
       <use x="50" xlink:href="#SimHei-57"/>
       <use x="100" xlink:href="#SimHei-57"/>
       <use x="150" xlink:href="#SimHei-57"/>
       <use x="200" xlink:href="#SimHei-45"/>
       <use x="250" xlink:href="#SimHei-48"/>
       <use x="300" xlink:href="#SimHei-52"/>
      </g>
     </g>
    </g>
    <g id="xtick_4">
     <g id="line2d_4">
      <g>
       <use style="stroke:#000000;stroke-width:0.8;" x="258.604595" xlink:href="#m482579be13" y="387.72"/>
      </g>
     </g>
     <g id="text_4">
      <!-- 2003-06 -->
      <defs>
       <path d="M 3.90625 19.140625 
L 10.9375 20.3125 
Q 12.5 15.234375 16.015625 11.90625 
Q 19.53125 8.59375 24.796875 8.78125 
Q 30.078125 8.984375 33.203125 13.078125 
Q 36.328125 17.1875 35.9375 22.453125 
Q 35.546875 27.734375 31.828125 30.65625 
Q 28.125 33.59375 19.921875 34.765625 
L 19.921875 39.84375 
Q 28.125 40.625 31.828125 44.140625 
Q 35.546875 47.65625 35.15625 53.3125 
Q 34.765625 58.984375 30.078125 61.515625 
Q 25.390625 64.0625 20.109375 62.109375 
Q 14.84375 60.15625 11.71875 51.171875 
L 4.6875 52.34375 
Q 7.03125 59.375 11.125 64.0625 
Q 15.234375 68.75 22.265625 69.53125 
Q 29.296875 70.3125 34.5625 67.765625 
Q 39.84375 65.234375 41.984375 59.953125 
Q 44.140625 54.6875 42.578125 48.4375 
Q 41.015625 42.1875 33.59375 37.5 
Q 39.0625 35.15625 41.984375 30.46875 
Q 44.921875 25.78125 43.9375 18.15625 
Q 42.96875 10.546875 37.109375 5.859375 
Q 31.25 1.171875 23.828125 1.359375 
Q 16.40625 1.5625 10.9375 6.046875 
Q 5.46875 10.546875 3.90625 19.140625 
z
" id="SimHei-51"/>
       <path d="M 3.515625 19.53125 
Q 4.296875 30.859375 6.046875 34.765625 
Q 7.8125 38.671875 11.328125 44.53125 
L 27.34375 69.53125 
L 36.328125 69.53125 
L 19.921875 43.75 
Q 30.46875 46.484375 36.71875 42.96875 
Q 42.96875 39.453125 45.109375 34.953125 
Q 47.265625 30.46875 47.453125 25.1875 
Q 47.65625 19.921875 45.890625 14.84375 
Q 44.140625 9.765625 39.640625 5.65625 
Q 35.15625 1.5625 27.140625 1.171875 
Q 19.140625 0.78125 13.46875 4.09375 
Q 7.8125 7.421875 5.65625 13.46875 
Q 3.515625 19.53125 4.296875 30.859375 
z
M 12.5 16.015625 
Q 19.53125 8.59375 25.390625 8.203125 
Q 31.25 7.8125 35.15625 12.109375 
Q 39.0625 16.40625 39.0625 24.609375 
Q 39.0625 32.8125 34.171875 35.9375 
Q 29.296875 39.0625 23.234375 38.28125 
Q 17.1875 37.5 14.453125 32.421875 
Q 11.71875 27.34375 12.109375 21.671875 
Q 12.5 16.015625 19.53125 8.59375 
z
" id="SimHei-54"/>
      </defs>
      <g transform="translate(241.104595 401.595)scale(0.1 -0.1)">
       <use xlink:href="#SimHei-50"/>
       <use x="50" xlink:href="#SimHei-48"/>
       <use x="100" xlink:href="#SimHei-48"/>
       <use x="150" xlink:href="#SimHei-51"/>
       <use x="200" xlink:href="#SimHei-45"/>
       <use x="250" xlink:href="#SimHei-48"/>
       <use x="300" xlink:href="#SimHei-54"/>
      </g>
     </g>
    </g>
    <g id="xtick_5">
     <g id="line2d_5">
      <g>
       <use style="stroke:#000000;stroke-width:0.8;" x="328.284915" xlink:href="#m482579be13" y="387.72"/>
      </g>
     </g>
     <g id="text_5">
      <!-- 2007-08 -->
      <defs>
       <path d="M 13.28125 2.34375 
Q 20.3125 32.03125 37.890625 61.328125 
L 4.296875 61.328125 
L 4.296875 68.359375 
L 46.09375 68.359375 
L 46.09375 61.71875 
Q 27.734375 32.03125 21.875 2.34375 
L 13.28125 2.34375 
z
" id="SimHei-55"/>
       <path d="M 2.734375 16.796875 
Q 2.734375 26.171875 5.078125 30.65625 
Q 7.421875 35.15625 12.890625 37.890625 
Q 8.203125 40.625 6.640625 43.9375 
Q 5.078125 47.265625 4.875 51.5625 
Q 4.6875 55.859375 6.046875 58.984375 
Q 7.421875 62.109375 10.15625 64.84375 
Q 12.890625 67.578125 16.203125 68.546875 
Q 19.53125 69.53125 23.4375 69.53125 
Q 27.34375 69.53125 30.46875 68.75 
Q 33.59375 67.96875 37.109375 65.421875 
Q 40.625 62.890625 42.1875 58.203125 
Q 43.75 53.515625 41.984375 47.265625 
Q 40.234375 41.015625 32.8125 37.5 
Q 39.453125 35.546875 42.1875 31.4375 
Q 44.921875 27.34375 44.921875 21.484375 
Q 44.921875 15.625 43.15625 12.109375 
Q 41.40625 8.59375 39.25 6.25 
Q 37.109375 3.90625 33.390625 2.53125 
Q 29.6875 1.171875 24.015625 1.171875 
Q 18.359375 1.171875 14.25 2.53125 
Q 10.15625 3.90625 7.421875 6.640625 
Q 4.6875 9.375 3.703125 13.078125 
Q 2.734375 16.796875 2.734375 26.171875 
z
M 10.9375 26.5625 
Q 10.546875 17.1875 12.296875 13.671875 
Q 14.0625 10.15625 18.75 9.171875 
Q 23.4375 8.203125 28.515625 9.375 
Q 33.59375 10.546875 35.546875 14.84375 
Q 37.5 19.140625 36.90625 23.4375 
Q 36.328125 27.734375 32.03125 30.65625 
Q 27.734375 33.59375 22.65625 33.203125 
Q 17.578125 32.8125 14.25 29.6875 
Q 10.9375 26.5625 10.546875 17.1875 
z
M 12.109375 56.25 
Q 12.109375 48.4375 14.84375 44.921875 
Q 17.578125 41.40625 23.4375 41.40625 
Q 29.296875 41.40625 32.21875 44.921875 
Q 35.15625 48.4375 34.953125 53.3125 
Q 34.765625 58.203125 31.4375 60.546875 
Q 28.125 62.890625 22.453125 62.5 
Q 16.796875 62.109375 14.453125 59.171875 
Q 12.109375 56.25 12.109375 48.4375 
z
" id="SimHei-56"/>
      </defs>
      <g transform="translate(310.784915 401.595)scale(0.1 -0.1)">
       <use xlink:href="#SimHei-50"/>
       <use x="50" xlink:href="#SimHei-48"/>
       <use x="100" xlink:href="#SimHei-48"/>
       <use x="150" xlink:href="#SimHei-55"/>
       <use x="200" xlink:href="#SimHei-45"/>
       <use x="250" xlink:href="#SimHei-48"/>
       <use x="300" xlink:href="#SimHei-56"/>
      </g>
     </g>
    </g>
    <g id="xtick_6">
     <g id="line2d_6">
      <g>
       <use style="stroke:#000000;stroke-width:0.8;" x="397.965235" xlink:href="#m482579be13" y="387.72"/>
      </g>
     </g>
     <g id="text_6">
      <!-- 2011-10 -->
      <g transform="translate(380.465235 401.595)scale(0.1 -0.1)">
       <use xlink:href="#SimHei-50"/>
       <use x="50" xlink:href="#SimHei-48"/>
       <use x="100" xlink:href="#SimHei-49"/>
       <use x="150" xlink:href="#SimHei-49"/>
       <use x="200" xlink:href="#SimHei-45"/>
       <use x="250" xlink:href="#SimHei-49"/>
       <use x="300" xlink:href="#SimHei-48"/>
      </g>
     </g>
    </g>
    <g id="xtick_7">
     <g id="line2d_7">
      <g>
       <use style="stroke:#000000;stroke-width:0.8;" x="467.645554" xlink:href="#m482579be13" y="387.72"/>
      </g>
     </g>
     <g id="text_7">
      <!-- 2015-12 -->
      <g transform="translate(450.145554 401.595)scale(0.1 -0.1)">
       <use xlink:href="#SimHei-50"/>
       <use x="50" xlink:href="#SimHei-48"/>
       <use x="100" xlink:href="#SimHei-49"/>
       <use x="150" xlink:href="#SimHei-53"/>
       <use x="200" xlink:href="#SimHei-45"/>
       <use x="250" xlink:href="#SimHei-49"/>
       <use x="300" xlink:href="#SimHei-50"/>
      </g>
     </g>
    </g>
    <g id="xtick_8">
     <g id="line2d_8">
      <g>
       <use style="stroke:#000000;stroke-width:0.8;" x="537.325874" xlink:href="#m482579be13" y="387.72"/>
      </g>
     </g>
     <g id="text_8">
      <!-- 2020-02 -->
      <g transform="translate(519.825874 401.595)scale(0.1 -0.1)">
       <use xlink:href="#SimHei-50"/>
       <use x="50" xlink:href="#SimHei-48"/>
       <use x="100" xlink:href="#SimHei-50"/>
       <use x="150" xlink:href="#SimHei-48"/>
       <use x="200" xlink:href="#SimHei-45"/>
       <use x="250" xlink:href="#SimHei-48"/>
       <use x="300" xlink:href="#SimHei-50"/>
      </g>
     </g>
    </g>
    <g id="text_9">
     <!-- 交易月份 -->
     <defs>
      <path d="M 36.328125 40.625 
Q 43.359375 24.609375 50 17.96875 
Q 60.546875 28.515625 66.015625 42.578125 
Q 69.140625 40.234375 73.828125 37.5 
Q 64.453125 22.65625 55.46875 12.890625 
Q 68.75 2.734375 93.75 0.390625 
Q 89.84375 -5.078125 89.0625 -8.59375 
Q 64.0625 -3.90625 49.21875 8.203125 
Q 32.421875 -4.296875 10.15625 -9.375 
Q 8.984375 -4.6875 5.859375 -0.78125 
Q 29.6875 1.953125 43.359375 13.28125 
Q 34.375 23.828125 28.90625 36.71875 
Q 33.59375 38.671875 36.328125 40.625 
z
M 19.53125 58.203125 
Q 13.671875 58.203125 8.203125 57.8125 
L 8.203125 65.625 
L 19.140625 64.84375 
L 80.078125 64.84375 
Q 86.328125 65.234375 92.96875 65.625 
L 92.96875 57.421875 
Q 86.328125 57.8125 80.078125 58.203125 
z
M 39.453125 51.5625 
Q 33.984375 46.484375 16.015625 31.25 
Q 12.890625 35.15625 8.59375 37.5 
Q 16.015625 41.40625 22.0625 47.265625 
Q 28.125 53.125 31.25 57.421875 
Q 35.15625 54.6875 39.453125 51.5625 
z
M 67.578125 57.421875 
Q 69.53125 55.859375 76.5625 50.578125 
Q 83.59375 45.3125 90.234375 40.625 
Q 85.9375 37.5 82.8125 33.984375 
Q 79.296875 38.671875 60.9375 51.5625 
Q 64.0625 54.6875 67.578125 57.421875 
z
M 50.78125 82.8125 
Q 54.6875 73.828125 56.640625 68.359375 
Q 51.171875 66.796875 47.265625 65.625 
Q 44.921875 72.265625 41.40625 80.078125 
Q 46.09375 81.640625 50.78125 82.8125 
z
" id="SimHei-20132"/>
      <path d="M 81.25 78.125 
Q 80.859375 71.09375 80.859375 65.625 
L 80.859375 56.25 
Q 80.859375 51.953125 81.25 44.53125 
L 40.625 44.53125 
Q 38.671875 41.015625 34.375 36.328125 
L 88.28125 36.328125 
L 87.109375 23.828125 
L 84.375 0.78125 
Q 83.203125 -5.078125 77.140625 -6.828125 
Q 71.09375 -8.59375 65.234375 -8.984375 
Q 63.28125 -3.125 60.9375 -0.390625 
Q 65.234375 -0.78125 70.5 -0.1875 
Q 75.78125 0.390625 76.953125 5.078125 
L 80.078125 30.46875 
L 69.921875 30.46875 
Q 60.9375 10.9375 49.609375 2.734375 
Q 38.28125 -5.46875 23.828125 -9.375 
Q 23.046875 -6.640625 18.359375 -3.515625 
Q 25.390625 -2.34375 33.78125 1.359375 
Q 42.1875 5.078125 49.40625 12.296875 
Q 56.640625 19.53125 61.71875 30.46875 
L 49.609375 30.46875 
Q 40.234375 13.671875 16.796875 4.296875 
Q 14.84375 7.8125 10.546875 9.375 
Q 17.578125 11.328125 26.953125 16.59375 
Q 36.328125 21.875 41.796875 30.46875 
L 28.90625 30.46875 
Q 17.96875 22.265625 11.328125 19.140625 
Q 10.15625 22.265625 5.859375 25 
Q 12.109375 27.34375 19.921875 32.8125 
Q 27.734375 38.28125 31.640625 44.53125 
L 19.140625 44.53125 
Q 19.53125 51.171875 19.53125 57.03125 
L 19.53125 65.625 
Q 19.53125 70.703125 19.140625 78.125 
L 81.25 78.125 
z
M 73.4375 50.390625 
L 73.4375 58.203125 
L 26.953125 58.203125 
L 26.953125 50.390625 
z
M 73.4375 64.453125 
L 73.4375 71.875 
L 26.953125 71.875 
L 26.953125 64.453125 
z
" id="SimHei-26131"/>
      <path d="M 82.03125 75.390625 
Q 81.25 66.015625 81.25 58.59375 
L 81.25 3.125 
Q 81.25 -4.296875 77.34375 -5.859375 
Q 73.4375 -7.421875 62.109375 -8.203125 
Q 61.328125 -3.515625 58.59375 0.78125 
Q 67.1875 0.390625 70.5 0.78125 
Q 73.828125 1.171875 73.828125 6.25 
L 73.828125 25 
L 28.90625 25 
Q 26.953125 12.109375 22.65625 3.515625 
Q 18.359375 -5.078125 14.0625 -8.984375 
Q 10.9375 -6.25 6.25 -5.078125 
Q 12.5 0.390625 16.203125 8 
Q 19.921875 15.625 20.890625 23.046875 
Q 21.875 30.46875 21.875 39.453125 
L 21.875 56.640625 
Q 21.875 65.234375 21.484375 75.390625 
L 82.03125 75.390625 
z
M 73.828125 53.125 
L 73.828125 69.53125 
L 29.296875 69.53125 
L 29.296875 53.125 
z
M 73.828125 31.25 
L 73.828125 47.265625 
L 29.296875 47.265625 
L 29.296875 31.25 
z
" id="SimHei-26376"/>
      <path d="M 74.21875 79.6875 
Q 76.171875 68.359375 82.03125 57.03125 
Q 87.890625 45.703125 96.875 38.28125 
Q 94.140625 37.109375 90.234375 32.421875 
Q 87.5 35.546875 83.59375 40.234375 
Q 82.8125 35.546875 82.421875 20.5 
Q 82.03125 5.46875 81.046875 0.390625 
Q 80.078125 -4.6875 75.78125 -6.25 
Q 71.484375 -7.8125 63.671875 -8.59375 
Q 62.5 -3.90625 60.546875 0 
Q 68.75 -0.390625 71.484375 0.390625 
Q 74.21875 1.171875 74.609375 9.171875 
Q 75 17.1875 75.390625 35.15625 
L 57.8125 35.15625 
Q 57.421875 20.3125 53.515625 10.15625 
Q 49.609375 0 37.109375 -9.765625 
Q 33.984375 -5.46875 31.25 -3.515625 
Q 42.96875 3.515625 46.671875 12.5 
Q 50.390625 21.484375 50.390625 35.15625 
Q 46.875 35.15625 41.796875 34.765625 
L 41.796875 40.234375 
Q 38.671875 35.9375 33.59375 30.46875 
Q 31.25 33.59375 27.34375 35.9375 
Q 44.921875 51.171875 50.390625 76.171875 
Q 53.90625 74.609375 58.59375 73.046875 
Q 56.640625 68.75 53.515625 60.734375 
Q 50.390625 52.734375 43.359375 42.1875 
Q 47.65625 41.796875 53.125 41.796875 
L 82.8125 41.796875 
Q 71.484375 56.640625 66.796875 77.734375 
Q 71.484375 78.515625 74.21875 79.6875 
z
M 3.515625 39.453125 
Q 8.984375 44.921875 16.015625 57.609375 
Q 23.046875 70.3125 25.78125 81.640625 
Q 30.859375 79.296875 34.375 77.734375 
Q 32.03125 74.21875 25 58.984375 
L 25 9.765625 
Q 25 1.171875 25.390625 -8.984375 
L 17.1875 -8.984375 
Q 17.578125 0.78125 17.578125 9.765625 
L 17.578125 45.703125 
Q 12.109375 37.5 8.984375 33.984375 
Q 6.640625 36.71875 3.515625 39.453125 
z
" id="SimHei-20221"/>
     </defs>
     <g transform="translate(283.2 414.852812)scale(0.1 -0.1)">
      <use xlink:href="#SimHei-20132"/>
      <use x="100" xlink:href="#SimHei-26131"/>
      <use x="200" xlink:href="#SimHei-26376"/>
      <use x="300" xlink:href="#SimHei-20221"/>
     </g>
    </g>
   </g>
   <g id="matplotlib.axis_2">
    <g id="ytick_1">
     <g id="line2d_9">
      <defs>
       <path d="M 0 0 
L -3.5 0 
" id="m5e7319a125" style="stroke:#000000;stroke-width:0.8;"/>
      </defs>
      <g>
       <use style="stroke:#000000;stroke-width:0.8;" x="24.2" xlink:href="#m5e7319a125" y="330.214046"/>
      </g>
     </g>
     <g id="text_10">
      <!-- 2 -->
      <g transform="translate(12.2 333.651546)scale(0.1 -0.1)">
       <use xlink:href="#SimHei-50"/>
      </g>
     </g>
    </g>
    <g id="ytick_2">
     <g id="line2d_10">
      <g>
       <use style="stroke:#000000;stroke-width:0.8;" x="24.2" xlink:href="#m5e7319a125" y="270.17043"/>
      </g>
     </g>
     <g id="text_11">
      <!-- 4 -->
      <g transform="translate(12.2 273.60793)scale(0.1 -0.1)">
       <use xlink:href="#SimHei-52"/>
      </g>
     </g>
    </g>
    <g id="ytick_3">
     <g id="line2d_11">
      <g>
       <use style="stroke:#000000;stroke-width:0.8;" x="24.2" xlink:href="#m5e7319a125" y="210.126814"/>
      </g>
     </g>
     <g id="text_12">
      <!-- 6 -->
      <g transform="translate(12.2 213.564314)scale(0.1 -0.1)">
       <use xlink:href="#SimHei-54"/>
      </g>
     </g>
    </g>
    <g id="ytick_4">
     <g id="line2d_12">
      <g>
       <use style="stroke:#000000;stroke-width:0.8;" x="24.2" xlink:href="#m5e7319a125" y="150.083198"/>
      </g>
     </g>
     <g id="text_13">
      <!-- 8 -->
      <g transform="translate(12.2 153.520698)scale(0.1 -0.1)">
       <use xlink:href="#SimHei-56"/>
      </g>
     </g>
    </g>
    <g id="ytick_5">
     <g id="line2d_13">
      <g>
       <use style="stroke:#000000;stroke-width:0.8;" x="24.2" xlink:href="#m5e7319a125" y="90.039582"/>
      </g>
     </g>
     <g id="text_14">
      <!-- 10 -->
      <g transform="translate(7.2 93.477082)scale(0.1 -0.1)">
       <use xlink:href="#SimHei-49"/>
       <use x="50" xlink:href="#SimHei-48"/>
      </g>
     </g>
    </g>
    <g id="ytick_6">
     <g id="line2d_14">
      <g>
       <use style="stroke:#000000;stroke-width:0.8;" x="24.2" xlink:href="#m5e7319a125" y="29.995967"/>
      </g>
     </g>
     <g id="text_15">
      <!-- 12 -->
      <g transform="translate(7.2 33.433467)scale(0.1 -0.1)">
       <use xlink:href="#SimHei-49"/>
       <use x="50" xlink:href="#SimHei-50"/>
      </g>
     </g>
    </g>
   </g>
   <g id="line2d_15">
    <path clip-path="url(#p2a0f4f8f5d)" d="M 49.563636 360.343932 
L 52.350849 359.989976 
L 53.744456 360.734562 
L 55.138062 362.142813 
L 56.531668 359.660272 
L 59.318881 364.118144 
L 60.712488 369.364345 
L 62.106094 370.423636 
L 63.4997 356.335528 
L 64.893307 352.356462 
L 66.286913 348.024355 
L 67.680519 347.335952 
L 69.074126 345.563285 
L 70.467732 340.588801 
L 71.861339 324.977878 
L 73.254945 283.309792 
L 74.648551 294.079442 
L 76.042158 292.223203 
L 77.435764 306.21272 
L 78.829371 313.331327 
L 80.222977 328.462737 
L 81.616583 319.483934 
L 83.01019 312.031461 
L 84.403796 266.793248 
L 85.797403 249.347727 
L 87.191009 277.064711 
L 88.584615 263.447599 
L 89.978222 289.703622 
L 91.371828 291.518623 
L 92.765435 302.039267 
L 94.159041 297.412213 
L 95.552647 301.08425 
L 96.946254 307.553781 
L 98.33986 299.907807 
L 99.733467 310.528433 
L 101.127073 319.103311 
L 102.520679 318.644366 
L 103.914286 326.704442 
L 105.307892 337.225678 
L 106.701499 341.073148 
L 108.095105 349.70749 
L 109.488711 360.394488 
L 110.882318 326.934294 
L 112.275924 324.879451 
L 113.66953 337.794916 
L 115.063137 336.459739 
L 116.456743 339.663406 
L 117.85035 345.863732 
L 119.243956 346.820421 
L 120.637562 341.284345 
L 122.031169 346.159638 
L 123.424775 338.86362 
L 124.818382 343.311775 
L 126.211988 338.971627 
L 127.605594 336.435533 
L 128.999201 336.734246 
L 130.392807 336.71016 
L 133.18002 348.799057 
L 134.573626 350.272911 
L 135.967233 349.255299 
L 137.360839 349.113841 
L 138.754446 337.245906 
L 140.148052 337.778674 
L 141.541658 326.655752 
L 142.935265 318.645092 
L 144.328871 318.987042 
L 145.722478 315.407475 
L 147.116084 299.073293 
L 148.50969 292.852239 
L 149.903297 309.876272 
L 151.296903 304.151107 
L 152.690509 299.740299 
L 154.084116 283.064738 
L 155.477722 273.929221 
L 156.871329 283.441979 
L 158.264935 283.952024 
L 159.658541 291.050583 
L 161.052148 291.226676 
L 162.445754 302.791019 
L 163.839361 291.455342 
L 165.232967 296.632584 
L 166.626573 293.580406 
L 168.02018 291.878886 
L 169.413786 293.984192 
L 170.807393 292.386053 
L 172.200999 284.693344 
L 173.594605 279.246225 
L 174.988212 286.506373 
L 176.381818 288.200113 
L 177.775425 301.296648 
L 179.169031 294.564523 
L 180.562637 296.126714 
L 181.956244 294.462949 
L 183.34985 302.445044 
L 184.743457 303.439522 
L 186.137063 307.374554 
L 187.530669 301.931206 
L 188.924276 305.051338 
L 190.317882 295.706334 
L 191.711489 262.10752 
L 193.105095 270.264276 
L 194.498701 268.902351 
L 195.892308 272.500536 
L 197.285914 278.464935 
L 200.073127 288.865066 
L 201.466733 274.026259 
L 202.86034 260.618967 
L 204.253946 253.184188 
L 205.647552 251.354257 
L 207.041159 247.971959 
L 208.434765 244.934159 
L 209.828372 238.489062 
L 211.221978 239.80186 
L 212.615584 246.971079 
L 214.009191 243.625337 
L 215.402797 235.949135 
L 216.796404 236.66667 
L 218.19001 238.148823 
L 219.583616 247.222115 
L 220.977223 236.730458 
L 222.370829 237.751414 
L 223.764436 232.512824 
L 225.158042 231.826634 
L 226.551648 253.159372 
L 227.945255 257.909828 
L 229.338861 264.877941 
L 230.732468 270.852285 
L 232.126074 266.631305 
L 233.51968 274.500122 
L 234.913287 286.614149 
L 236.306893 283.859823 
L 237.7005 277.521171 
L 239.094106 272.946888 
L 240.487712 283.085472 
L 241.881319 267.912569 
L 243.274925 273.225405 
L 244.668531 272.455918 
L 246.062138 279.102881 
L 247.455744 284.707861 
L 248.849351 291.191257 
L 250.242957 296.582946 
L 251.636563 287.536311 
L 253.03017 286.758196 
L 254.423776 287.837178 
L 255.817383 288.49523 
L 257.210989 284.264457 
L 258.604595 290.881083 
L 259.998202 292.115837 
L 261.391808 295.494369 
L 262.785415 299.609465 
L 264.179021 302.18614 
L 265.572627 300.285997 
L 266.966234 296.095567 
L 269.753447 283.44164 
L 271.147053 279.428028 
L 272.540659 290.003946 
L 273.934266 292.552897 
L 275.327872 302.853421 
L 276.721479 303.414994 
L 278.115085 307.012451 
L 279.508691 302.802325 
L 280.902298 307.736992 
L 282.295904 306.369212 
L 285.083117 316.908537 
L 286.476723 309.824845 
L 287.87033 318.063176 
L 289.263936 320.115305 
L 290.657542 325.826646 
L 292.051149 325.660736 
L 293.444755 326.52795 
L 294.838362 320.883091 
L 296.231968 320.98195 
L 297.625574 325.306486 
L 299.019181 325.33409 
L 300.412787 321.531192 
L 301.806394 315.649924 
L 303.2 312.921146 
L 304.593606 311.71663 
L 305.987213 302.403627 
L 307.380819 286.978655 
L 308.774426 283.097946 
L 310.168032 289.144433 
L 311.561638 286.464933 
L 312.955245 281.846156 
L 314.348851 279.081663 
L 315.742458 264.462019 
L 317.136064 236.346693 
L 318.52967 222.109928 
L 319.923277 211.264399 
L 321.316883 191.3335 
L 322.71049 146.704864 
L 324.104096 127.884321 
L 325.497702 149.589156 
L 326.891309 106.49746 
L 328.284915 58.875404 
L 329.678521 43.432991 
L 331.072128 24.496364 
L 332.465734 74.386205 
L 333.859341 48.413674 
L 335.252947 102.689953 
L 336.646553 98.311735 
L 338.04016 154.883557 
L 339.433766 142.826518 
L 340.827373 163.802494 
L 342.220979 212.892313 
L 343.614585 209.305099 
L 345.008192 236.588221 
L 346.401798 247.617845 
L 347.795405 285.046533 
L 349.189011 273.226063 
L 350.582617 273.977991 
L 351.976224 261.120366 
L 353.36983 254.589248 
L 354.763437 232.532955 
L 356.157043 225.344652 
L 357.550649 216.839263 
L 358.944256 193.328064 
L 360.337862 160.918375 
L 361.731469 211.241148 
L 363.125075 202.187388 
L 365.912288 170.665619 
L 367.305894 163.951593 
L 368.6995 184.415319 
L 371.486713 174.806144 
L 374.273926 208.861514 
L 375.667532 222.906111 
L 377.061139 203.731807 
L 378.454745 201.199719 
L 379.848352 199.200431 
L 381.241958 176.386669 
L 382.635564 187.20683 
L 384.029171 188.602805 
L 385.422777 192.00573 
L 386.816384 183.315754 
L 388.20999 182.729487 
L 389.603596 184.675064 
L 390.997203 197.703861 
L 392.390809 193.732439 
L 393.784416 197.384467 
L 395.178022 207.140572 
L 396.571628 222.995399 
L 397.965235 215.398849 
L 399.358841 224.768308 
L 400.752448 235.290618 
L 402.146054 229.80215 
L 403.53966 220.107909 
L 404.933267 231.77729 
L 406.326873 223.628705 
L 407.72048 224.892252 
L 409.114086 232.891804 
L 410.507692 241.573206 
L 411.901299 245.612517 
L 413.294905 242.743769 
L 414.688511 244.096029 
L 416.082118 251.720843 
L 417.475724 231.65614 
L 418.869331 223.752551 
L 420.262937 225.445408 
L 421.656543 234.207981 
L 423.05015 238.135283 
L 424.443756 228.424856 
L 425.837363 249.975645 
L 427.230969 247.333714 
L 428.624575 240.78308 
L 430.018182 235.725907 
L 431.411788 238.378754 
L 432.805395 232.784598 
L 434.199001 239.897184 
L 435.592607 245.335271 
L 436.986214 243.910249 
L 438.37982 246.276248 
L 439.773427 247.452144 
L 441.167033 245.905132 
L 442.560639 243.042188 
L 443.954246 229.964596 
L 445.347852 229.029606 
L 446.741459 218.254252 
L 448.135065 214.498901 
L 449.528671 196.915643 
L 450.922278 160.559224 
L 452.315884 161.698068 
L 453.709491 154.374562 
L 455.103097 122.471373 
L 456.496703 76.077398 
L 457.89031 61.795392 
L 459.283916 83.911742 
L 460.677522 128.740259 
L 462.071129 165.90842 
L 463.464735 178.051323 
L 464.858342 151.295711 
L 466.251948 144.823904 
L 467.645554 136.704219 
L 469.039161 197.028894 
L 470.432767 201.650346 
L 471.826374 177.304348 
L 473.21998 181.758693 
L 474.613586 182.575383 
L 476.007193 179.027547 
L 477.400799 174.785412 
L 478.794406 166.148638 
L 480.188012 170.836327 
L 481.581618 164.674317 
L 482.975225 154.729927 
L 484.368831 165.309126 
L 485.762438 161.46633 
L 487.156044 155.956348 
L 488.54965 157.108408 
L 489.943257 161.752042 
L 491.336863 163.561121 
L 494.124076 145.730441 
L 495.517682 139.352437 
L 496.911289 138.327991 
L 498.304895 134.024277 
L 499.698501 139.127677 
L 501.092108 138.102313 
L 502.485714 123.960685 
L 503.879321 141.247886 
L 505.272927 148.199492 
L 506.666533 156.409379 
L 508.06014 156.389969 
L 509.453746 174.612238 
L 510.847353 170.281431 
L 512.240959 181.701937 
L 513.634565 175.010844 
L 515.028172 192.212724 
L 516.421778 192.592376 
L 517.815385 201.273242 
L 519.208991 193.509195 
L 520.602597 166.144828 
L 521.996204 154.248247 
L 523.38981 154.464667 
L 524.783417 168.828469 
L 526.177023 160.395781 
L 527.570629 161.066288 
L 528.964236 164.943519 
L 530.357842 164.023561 
L 531.751449 161.063741 
L 533.145055 165.170208 
L 534.538661 150.971016 
L 537.325874 161.579007 
L 538.719481 173.679995 
L 540.113087 164.565757 
L 541.506693 164.998408 
L 542.9003 151.238898 
L 544.293906 122.297788 
L 545.687512 115.844511 
L 547.081119 130.914458 
L 548.474725 128.2995 
L 549.868332 114.655933 
L 551.261938 110.223431 
L 552.655544 110.480222 
L 554.049151 107.939004 
L 555.442757 114.4089 
L 556.836364 113.28261 
L 556.836364 113.28261 
" style="fill:none;stroke:#1f77b4;stroke-linecap:square;stroke-width:1.5;"/>
   </g>
   <g id="patch_3">
    <path d="M 24.2 387.72 
L 24.2 7.2 
" style="fill:none;stroke:#000000;stroke-linecap:square;stroke-linejoin:miter;stroke-width:0.8;"/>
   </g>
   <g id="patch_4">
    <path d="M 582.2 387.72 
L 582.2 7.2 
" style="fill:none;stroke:#000000;stroke-linecap:square;stroke-linejoin:miter;stroke-width:0.8;"/>
   </g>
   <g id="patch_5">
    <path d="M 24.2 387.72 
L 582.2 387.72 
" style="fill:none;stroke:#000000;stroke-linecap:square;stroke-linejoin:miter;stroke-width:0.8;"/>
   </g>
   <g id="patch_6">
    <path d="M 24.2 7.2 
L 582.2 7.2 
" style="fill:none;stroke:#000000;stroke-linecap:square;stroke-linejoin:miter;stroke-width:0.8;"/>
   </g>
  </g>
 </g>
 <defs>
  <clipPath id="p2a0f4f8f5d">
   <rect height="380.52" width="558" x="24.2" y="7.2"/>
  </clipPath>
 </defs>
</svg>
