<?xml version="1.0" encoding="utf-8" standalone="no"?>
<!DOCTYPE svg PUBLIC "-//W3C//DTD SVG 1.1//EN"
  "http://www.w3.org/Graphics/SVG/1.1/DTD/svg11.dtd">
<!-- Created with matplotlib (https://matplotlib.org/) -->
<svg height="423.302812pt" version="1.1" viewBox="0 0 589.4 423.302812" width="589.4pt" xmlns="http://www.w3.org/2000/svg" xmlns:xlink="http://www.w3.org/1999/xlink">
 <defs>
  <style type="text/css">
*{stroke-linecap:butt;stroke-linejoin:round;}
  </style>
 </defs>
 <g id="figure_1">
  <g id="patch_1">
   <path d="M 0 423.302812 
L 589.4 423.302812 
L 589.4 0 
L 0 0 
z
" style="fill:none;"/>
  </g>
  <g id="axes_1">
   <g id="patch_2">
    <path d="M 24.2 387.72 
L 582.2 387.72 
L 582.2 7.2 
L 24.2 7.2 
z
" style="fill:#ffffff;"/>
   </g>
   <g id="matplotlib.axis_1">
    <g id="xtick_1">
     <g id="line2d_1">
      <defs>
       <path d="M 0 0 
L 0 3.5 
" id="mef88934773" style="stroke:#000000;stroke-width:0.8;"/>
      </defs>
      <g>
       <use style="stroke:#000000;stroke-width:0.8;" x="31.154545" xlink:href="#mef88934773" y="387.72"/>
      </g>
     </g>
     <g id="text_1">
      <!-- 1990-51 -->
      <defs>
       <path d="M 21.875 56.25 
Q 16.796875 51.171875 8.984375 46.484375 
L 8.984375 53.90625 
Q 18.75 60.546875 25 69.53125 
L 29.6875 69.53125 
L 29.6875 2.34375 
L 21.875 2.34375 
z
" id="SimHei-49"/>
       <path d="M 12.5 1.171875 
Q 21.09375 15.625 26.5625 27.34375 
Q 16.796875 25.78125 10.34375 29.875 
Q 3.90625 33.984375 2.53125 41.015625 
Q 1.171875 48.046875 2.734375 53.703125 
Q 4.296875 59.375 7.609375 63.078125 
Q 10.9375 66.796875 15.625 68.359375 
Q 20.3125 69.921875 24.015625 69.921875 
Q 27.734375 69.921875 31.640625 68.359375 
Q 35.546875 66.796875 38.671875 63.671875 
Q 41.796875 60.546875 42.96875 57.21875 
Q 44.140625 53.90625 44.140625 48.625 
Q 44.140625 43.359375 40.234375 35.15625 
Q 36.328125 26.953125 21.09375 1.171875 
z
M 9.765625 50 
Q 10.9375 39.84375 14.640625 36.515625 
Q 18.359375 33.203125 22.65625 33.59375 
Q 26.953125 33.984375 29.484375 35.9375 
Q 32.03125 37.890625 34.375 42.578125 
Q 35.9375 48.4375 35.15625 52.53125 
Q 34.375 56.640625 31.046875 59.375 
Q 27.734375 62.109375 23.828125 62.109375 
Q 21.484375 62.5 17.765625 60.9375 
Q 14.0625 59.375 11.90625 54.6875 
Q 9.765625 50 10.9375 39.84375 
z
" id="SimHei-57"/>
       <path d="M 3.125 29.296875 
Q 3.90625 50 6.4375 56.046875 
Q 8.984375 62.109375 13.671875 66.015625 
Q 18.359375 69.921875 25.1875 69.921875 
Q 32.03125 69.921875 37.109375 64.25 
Q 42.1875 58.59375 43.75 50 
Q 45.3125 41.40625 44.71875 30.265625 
Q 44.140625 19.140625 40.8125 12.109375 
Q 37.5 5.078125 30.859375 2.34375 
Q 24.21875 -0.390625 17.578125 2.921875 
Q 10.9375 6.25 8.203125 11.71875 
Q 5.46875 17.1875 4.296875 23.234375 
Q 3.125 29.296875 3.90625 50 
z
M 12.890625 52.734375 
Q 10.546875 31.25 12.5 22.84375 
Q 14.453125 14.453125 18.9375 10.9375 
Q 23.4375 7.421875 28.125 9.5625 
Q 32.8125 11.71875 34.953125 18.15625 
Q 37.109375 24.609375 37.109375 32.21875 
Q 37.109375 39.84375 36.515625 46.09375 
Q 35.9375 52.34375 33 57.421875 
Q 30.078125 62.5 25.1875 62.6875 
Q 20.3125 62.890625 16.59375 57.8125 
Q 12.890625 52.734375 10.546875 31.25 
z
" id="SimHei-48"/>
       <path d="M 46.484375 33.203125 
L 1.953125 33.203125 
L 1.953125 39.453125 
L 46.484375 39.453125 
z
" id="SimHei-45"/>
       <path d="M 8.59375 20.703125 
Q 11.328125 10.15625 17.96875 8.984375 
Q 24.609375 7.8125 28.703125 10.34375 
Q 32.8125 12.890625 34.5625 16.984375 
Q 36.328125 21.09375 36.125 26.171875 
Q 35.9375 31.25 33.390625 34.765625 
Q 30.859375 38.28125 26.953125 39.453125 
Q 23.046875 40.625 18.15625 39.453125 
Q 13.28125 38.28125 10.15625 33.984375 
L 3.515625 34.765625 
Q 4.296875 37.109375 10.9375 68.359375 
L 41.796875 68.359375 
L 41.796875 61.328125 
L 16.796875 61.328125 
Q 14.84375 50.78125 12.890625 44.53125 
Q 18.75 47.265625 23.828125 47.0625 
Q 28.90625 46.875 33.59375 44.71875 
Q 38.28125 42.578125 40.421875 38.859375 
Q 42.578125 35.15625 43.546875 31.4375 
Q 44.53125 27.734375 44.328125 23.4375 
Q 44.140625 19.140625 42.578125 14.640625 
Q 41.015625 10.15625 37.890625 7.21875 
Q 34.765625 4.296875 30.265625 2.53125 
Q 25.78125 0.78125 19.921875 1.171875 
Q 14.0625 1.5625 8.78125 5.46875 
Q 3.515625 9.375 1.5625 18.75 
z
" id="SimHei-53"/>
      </defs>
      <g transform="translate(13.654545 401.595)scale(0.1 -0.1)">
       <use xlink:href="#SimHei-49"/>
       <use x="50" xlink:href="#SimHei-57"/>
       <use x="100" xlink:href="#SimHei-57"/>
       <use x="150" xlink:href="#SimHei-48"/>
       <use x="200" xlink:href="#SimHei-45"/>
       <use x="250" xlink:href="#SimHei-53"/>
       <use x="300" xlink:href="#SimHei-49"/>
      </g>
     </g>
    </g>
    <g id="xtick_2">
     <g id="line2d_2">
      <g>
       <use style="stroke:#000000;stroke-width:0.8;" x="99.336364" xlink:href="#mef88934773" y="387.72"/>
      </g>
     </g>
     <g id="text_2">
      <!-- 1994-43 -->
      <defs>
       <path d="M 31.25 17.1875 
L 1.171875 17.1875 
L 1.171875 23.828125 
L 32.8125 69.53125 
L 38.671875 69.53125 
L 38.671875 23.828125 
L 48.046875 23.828125 
L 48.046875 17.1875 
L 38.671875 17.1875 
L 38.671875 2.34375 
L 31.25 2.34375 
z
M 31.25 23.828125 
L 31.25 54.6875 
L 9.375 23.828125 
z
" id="SimHei-52"/>
       <path d="M 3.90625 19.140625 
L 10.9375 20.3125 
Q 12.5 15.234375 16.015625 11.90625 
Q 19.53125 8.59375 24.796875 8.78125 
Q 30.078125 8.984375 33.203125 13.078125 
Q 36.328125 17.1875 35.9375 22.453125 
Q 35.546875 27.734375 31.828125 30.65625 
Q 28.125 33.59375 19.921875 34.765625 
L 19.921875 39.84375 
Q 28.125 40.625 31.828125 44.140625 
Q 35.546875 47.65625 35.15625 53.3125 
Q 34.765625 58.984375 30.078125 61.515625 
Q 25.390625 64.0625 20.109375 62.109375 
Q 14.84375 60.15625 11.71875 51.171875 
L 4.6875 52.34375 
Q 7.03125 59.375 11.125 64.0625 
Q 15.234375 68.75 22.265625 69.53125 
Q 29.296875 70.3125 34.5625 67.765625 
Q 39.84375 65.234375 41.984375 59.953125 
Q 44.140625 54.6875 42.578125 48.4375 
Q 41.015625 42.1875 33.59375 37.5 
Q 39.0625 35.15625 41.984375 30.46875 
Q 44.921875 25.78125 43.9375 18.15625 
Q 42.96875 10.546875 37.109375 5.859375 
Q 31.25 1.171875 23.828125 1.359375 
Q 16.40625 1.5625 10.9375 6.046875 
Q 5.46875 10.546875 3.90625 19.140625 
z
" id="SimHei-51"/>
      </defs>
      <g transform="translate(81.836364 401.595)scale(0.1 -0.1)">
       <use xlink:href="#SimHei-49"/>
       <use x="50" xlink:href="#SimHei-57"/>
       <use x="100" xlink:href="#SimHei-57"/>
       <use x="150" xlink:href="#SimHei-52"/>
       <use x="200" xlink:href="#SimHei-45"/>
       <use x="250" xlink:href="#SimHei-52"/>
       <use x="300" xlink:href="#SimHei-51"/>
      </g>
     </g>
    </g>
    <g id="xtick_3">
     <g id="line2d_3">
      <g>
       <use style="stroke:#000000;stroke-width:0.8;" x="167.518182" xlink:href="#mef88934773" y="387.72"/>
      </g>
     </g>
     <g id="text_3">
      <!-- 1998-42 -->
      <defs>
       <path d="M 2.734375 16.796875 
Q 2.734375 26.171875 5.078125 30.65625 
Q 7.421875 35.15625 12.890625 37.890625 
Q 8.203125 40.625 6.640625 43.9375 
Q 5.078125 47.265625 4.875 51.5625 
Q 4.6875 55.859375 6.046875 58.984375 
Q 7.421875 62.109375 10.15625 64.84375 
Q 12.890625 67.578125 16.203125 68.546875 
Q 19.53125 69.53125 23.4375 69.53125 
Q 27.34375 69.53125 30.46875 68.75 
Q 33.59375 67.96875 37.109375 65.421875 
Q 40.625 62.890625 42.1875 58.203125 
Q 43.75 53.515625 41.984375 47.265625 
Q 40.234375 41.015625 32.8125 37.5 
Q 39.453125 35.546875 42.1875 31.4375 
Q 44.921875 27.34375 44.921875 21.484375 
Q 44.921875 15.625 43.15625 12.109375 
Q 41.40625 8.59375 39.25 6.25 
Q 37.109375 3.90625 33.390625 2.53125 
Q 29.6875 1.171875 24.015625 1.171875 
Q 18.359375 1.171875 14.25 2.53125 
Q 10.15625 3.90625 7.421875 6.640625 
Q 4.6875 9.375 3.703125 13.078125 
Q 2.734375 16.796875 2.734375 26.171875 
z
M 10.9375 26.5625 
Q 10.546875 17.1875 12.296875 13.671875 
Q 14.0625 10.15625 18.75 9.171875 
Q 23.4375 8.203125 28.515625 9.375 
Q 33.59375 10.546875 35.546875 14.84375 
Q 37.5 19.140625 36.90625 23.4375 
Q 36.328125 27.734375 32.03125 30.65625 
Q 27.734375 33.59375 22.65625 33.203125 
Q 17.578125 32.8125 14.25 29.6875 
Q 10.9375 26.5625 10.546875 17.1875 
z
M 12.109375 56.25 
Q 12.109375 48.4375 14.84375 44.921875 
Q 17.578125 41.40625 23.4375 41.40625 
Q 29.296875 41.40625 32.21875 44.921875 
Q 35.15625 48.4375 34.953125 53.3125 
Q 34.765625 58.203125 31.4375 60.546875 
Q 28.125 62.890625 22.453125 62.5 
Q 16.796875 62.109375 14.453125 59.171875 
Q 12.109375 56.25 12.109375 48.4375 
z
" id="SimHei-56"/>
       <path d="M 4.6875 3.90625 
Q 5.078125 9.765625 10.15625 14.453125 
Q 15.234375 19.140625 23.046875 29.09375 
Q 30.859375 39.0625 33.203125 44.53125 
Q 35.546875 50 34.953125 53.90625 
Q 34.375 57.8125 31.25 60.34375 
Q 28.125 62.890625 24.015625 62.5 
Q 19.921875 62.109375 16.203125 59.375 
Q 12.5 56.640625 10.546875 51.171875 
L 3.125 52.34375 
Q 6.25 61.328125 11.125 65.421875 
Q 16.015625 69.53125 22.65625 69.921875 
Q 26.5625 70.3125 29.6875 69.71875 
Q 32.8125 69.140625 36.125 66.984375 
Q 39.453125 64.84375 41.59375 60.546875 
Q 43.75 56.25 43.15625 50.1875 
Q 42.578125 44.140625 37.109375 35.734375 
Q 31.640625 27.34375 16.015625 9.375 
L 44.140625 9.375 
L 44.140625 2.34375 
L 4.6875 2.34375 
z
" id="SimHei-50"/>
      </defs>
      <g transform="translate(150.018182 401.595)scale(0.1 -0.1)">
       <use xlink:href="#SimHei-49"/>
       <use x="50" xlink:href="#SimHei-57"/>
       <use x="100" xlink:href="#SimHei-57"/>
       <use x="150" xlink:href="#SimHei-56"/>
       <use x="200" xlink:href="#SimHei-45"/>
       <use x="250" xlink:href="#SimHei-52"/>
       <use x="300" xlink:href="#SimHei-50"/>
      </g>
     </g>
    </g>
    <g id="xtick_4">
     <g id="line2d_4">
      <g>
       <use style="stroke:#000000;stroke-width:0.8;" x="235.7" xlink:href="#mef88934773" y="387.72"/>
      </g>
     </g>
     <g id="text_4">
      <!-- 2002-45 -->
      <g transform="translate(218.2 401.595)scale(0.1 -0.1)">
       <use xlink:href="#SimHei-50"/>
       <use x="50" xlink:href="#SimHei-48"/>
       <use x="100" xlink:href="#SimHei-48"/>
       <use x="150" xlink:href="#SimHei-50"/>
       <use x="200" xlink:href="#SimHei-45"/>
       <use x="250" xlink:href="#SimHei-52"/>
       <use x="300" xlink:href="#SimHei-53"/>
      </g>
     </g>
    </g>
    <g id="xtick_5">
     <g id="line2d_5">
      <g>
       <use style="stroke:#000000;stroke-width:0.8;" x="303.881818" xlink:href="#mef88934773" y="387.72"/>
      </g>
     </g>
     <g id="text_5">
      <!-- 2006-46 -->
      <defs>
       <path d="M 3.515625 19.53125 
Q 4.296875 30.859375 6.046875 34.765625 
Q 7.8125 38.671875 11.328125 44.53125 
L 27.34375 69.53125 
L 36.328125 69.53125 
L 19.921875 43.75 
Q 30.46875 46.484375 36.71875 42.96875 
Q 42.96875 39.453125 45.109375 34.953125 
Q 47.265625 30.46875 47.453125 25.1875 
Q 47.65625 19.921875 45.890625 14.84375 
Q 44.140625 9.765625 39.640625 5.65625 
Q 35.15625 1.5625 27.140625 1.171875 
Q 19.140625 0.78125 13.46875 4.09375 
Q 7.8125 7.421875 5.65625 13.46875 
Q 3.515625 19.53125 4.296875 30.859375 
z
M 12.5 16.015625 
Q 19.53125 8.59375 25.390625 8.203125 
Q 31.25 7.8125 35.15625 12.109375 
Q 39.0625 16.40625 39.0625 24.609375 
Q 39.0625 32.8125 34.171875 35.9375 
Q 29.296875 39.0625 23.234375 38.28125 
Q 17.1875 37.5 14.453125 32.421875 
Q 11.71875 27.34375 12.109375 21.671875 
Q 12.5 16.015625 19.53125 8.59375 
z
" id="SimHei-54"/>
      </defs>
      <g transform="translate(286.381818 401.595)scale(0.1 -0.1)">
       <use xlink:href="#SimHei-50"/>
       <use x="50" xlink:href="#SimHei-48"/>
       <use x="100" xlink:href="#SimHei-48"/>
       <use x="150" xlink:href="#SimHei-54"/>
       <use x="200" xlink:href="#SimHei-45"/>
       <use x="250" xlink:href="#SimHei-52"/>
       <use x="300" xlink:href="#SimHei-54"/>
      </g>
     </g>
    </g>
    <g id="xtick_6">
     <g id="line2d_6">
      <g>
       <use style="stroke:#000000;stroke-width:0.8;" x="372.063636" xlink:href="#mef88934773" y="387.72"/>
      </g>
     </g>
     <g id="text_6">
      <!-- 2010-42 -->
      <g transform="translate(354.563636 401.595)scale(0.1 -0.1)">
       <use xlink:href="#SimHei-50"/>
       <use x="50" xlink:href="#SimHei-48"/>
       <use x="100" xlink:href="#SimHei-49"/>
       <use x="150" xlink:href="#SimHei-48"/>
       <use x="200" xlink:href="#SimHei-45"/>
       <use x="250" xlink:href="#SimHei-52"/>
       <use x="300" xlink:href="#SimHei-50"/>
      </g>
     </g>
    </g>
    <g id="xtick_7">
     <g id="line2d_7">
      <g>
       <use style="stroke:#000000;stroke-width:0.8;" x="440.245455" xlink:href="#mef88934773" y="387.72"/>
      </g>
     </g>
     <g id="text_7">
      <!-- 2014-38 -->
      <g transform="translate(422.745455 401.595)scale(0.1 -0.1)">
       <use xlink:href="#SimHei-50"/>
       <use x="50" xlink:href="#SimHei-48"/>
       <use x="100" xlink:href="#SimHei-49"/>
       <use x="150" xlink:href="#SimHei-52"/>
       <use x="200" xlink:href="#SimHei-45"/>
       <use x="250" xlink:href="#SimHei-51"/>
       <use x="300" xlink:href="#SimHei-56"/>
      </g>
     </g>
    </g>
    <g id="xtick_8">
     <g id="line2d_8">
      <g>
       <use style="stroke:#000000;stroke-width:0.8;" x="508.427273" xlink:href="#mef88934773" y="387.72"/>
      </g>
     </g>
     <g id="text_8">
      <!-- 2018-32 -->
      <g transform="translate(490.927273 401.595)scale(0.1 -0.1)">
       <use xlink:href="#SimHei-50"/>
       <use x="50" xlink:href="#SimHei-48"/>
       <use x="100" xlink:href="#SimHei-49"/>
       <use x="150" xlink:href="#SimHei-56"/>
       <use x="200" xlink:href="#SimHei-45"/>
       <use x="250" xlink:href="#SimHei-51"/>
       <use x="300" xlink:href="#SimHei-50"/>
      </g>
     </g>
    </g>
    <g id="xtick_9">
     <g id="line2d_9">
      <g>
       <use style="stroke:#000000;stroke-width:0.8;" x="576.609091" xlink:href="#mef88934773" y="387.72"/>
      </g>
     </g>
    </g>
    <g id="text_9">
     <!-- 交易周份 -->
     <defs>
      <path d="M 36.328125 40.625 
Q 43.359375 24.609375 50 17.96875 
Q 60.546875 28.515625 66.015625 42.578125 
Q 69.140625 40.234375 73.828125 37.5 
Q 64.453125 22.65625 55.46875 12.890625 
Q 68.75 2.734375 93.75 0.390625 
Q 89.84375 -5.078125 89.0625 -8.59375 
Q 64.0625 -3.90625 49.21875 8.203125 
Q 32.421875 -4.296875 10.15625 -9.375 
Q 8.984375 -4.6875 5.859375 -0.78125 
Q 29.6875 1.953125 43.359375 13.28125 
Q 34.375 23.828125 28.90625 36.71875 
Q 33.59375 38.671875 36.328125 40.625 
z
M 19.53125 58.203125 
Q 13.671875 58.203125 8.203125 57.8125 
L 8.203125 65.625 
L 19.140625 64.84375 
L 80.078125 64.84375 
Q 86.328125 65.234375 92.96875 65.625 
L 92.96875 57.421875 
Q 86.328125 57.8125 80.078125 58.203125 
z
M 39.453125 51.5625 
Q 33.984375 46.484375 16.015625 31.25 
Q 12.890625 35.15625 8.59375 37.5 
Q 16.015625 41.40625 22.0625 47.265625 
Q 28.125 53.125 31.25 57.421875 
Q 35.15625 54.6875 39.453125 51.5625 
z
M 67.578125 57.421875 
Q 69.53125 55.859375 76.5625 50.578125 
Q 83.59375 45.3125 90.234375 40.625 
Q 85.9375 37.5 82.8125 33.984375 
Q 79.296875 38.671875 60.9375 51.5625 
Q 64.0625 54.6875 67.578125 57.421875 
z
M 50.78125 82.8125 
Q 54.6875 73.828125 56.640625 68.359375 
Q 51.171875 66.796875 47.265625 65.625 
Q 44.921875 72.265625 41.40625 80.078125 
Q 46.09375 81.640625 50.78125 82.8125 
z
" id="SimHei-20132"/>
      <path d="M 81.25 78.125 
Q 80.859375 71.09375 80.859375 65.625 
L 80.859375 56.25 
Q 80.859375 51.953125 81.25 44.53125 
L 40.625 44.53125 
Q 38.671875 41.015625 34.375 36.328125 
L 88.28125 36.328125 
L 87.109375 23.828125 
L 84.375 0.78125 
Q 83.203125 -5.078125 77.140625 -6.828125 
Q 71.09375 -8.59375 65.234375 -8.984375 
Q 63.28125 -3.125 60.9375 -0.390625 
Q 65.234375 -0.78125 70.5 -0.1875 
Q 75.78125 0.390625 76.953125 5.078125 
L 80.078125 30.46875 
L 69.921875 30.46875 
Q 60.9375 10.9375 49.609375 2.734375 
Q 38.28125 -5.46875 23.828125 -9.375 
Q 23.046875 -6.640625 18.359375 -3.515625 
Q 25.390625 -2.34375 33.78125 1.359375 
Q 42.1875 5.078125 49.40625 12.296875 
Q 56.640625 19.53125 61.71875 30.46875 
L 49.609375 30.46875 
Q 40.234375 13.671875 16.796875 4.296875 
Q 14.84375 7.8125 10.546875 9.375 
Q 17.578125 11.328125 26.953125 16.59375 
Q 36.328125 21.875 41.796875 30.46875 
L 28.90625 30.46875 
Q 17.96875 22.265625 11.328125 19.140625 
Q 10.15625 22.265625 5.859375 25 
Q 12.109375 27.34375 19.921875 32.8125 
Q 27.734375 38.28125 31.640625 44.53125 
L 19.140625 44.53125 
Q 19.53125 51.171875 19.53125 57.03125 
L 19.53125 65.625 
Q 19.53125 70.703125 19.140625 78.125 
L 81.25 78.125 
z
M 73.4375 50.390625 
L 73.4375 58.203125 
L 26.953125 58.203125 
L 26.953125 50.390625 
z
M 73.4375 64.453125 
L 73.4375 71.875 
L 26.953125 71.875 
L 26.953125 64.453125 
z
" id="SimHei-26131"/>
      <path d="M 87.5 76.953125 
Q 87.109375 68.75 87.109375 59.375 
L 87.109375 0.78125 
Q 86.71875 -5.859375 83.203125 -7.21875 
Q 79.6875 -8.59375 67.578125 -9.375 
Q 67.1875 -6.25 64.453125 -1.171875 
Q 75 -1.5625 77.53125 -0.578125 
Q 80.078125 0.390625 79.6875 3.515625 
L 79.6875 70.703125 
L 23.4375 70.703125 
Q 23.4375 40.234375 22.65625 29.484375 
Q 21.875 18.75 19.328125 8.59375 
Q 16.796875 -1.5625 12.109375 -9.765625 
Q 9.765625 -7.03125 4.296875 -3.515625 
Q 10.15625 3.515625 12.890625 15.625 
Q 15.625 27.734375 16.015625 40.421875 
Q 16.40625 53.125 15.625 76.953125 
L 87.5 76.953125 
z
M 32.03125 5.078125 
Q 32.421875 9.765625 32.421875 14.84375 
L 32.421875 21.875 
Q 32.421875 25.390625 32.03125 30.078125 
L 68.75 30.078125 
Q 68.359375 26.953125 68.359375 22.65625 
L 68.359375 13.671875 
Q 68.359375 9.375 68.75 5.078125 
z
M 46.875 59.375 
Q 46.875 64.84375 46.484375 68.359375 
L 54.296875 68.359375 
Q 53.90625 63.671875 53.90625 59.375 
Q 64.0625 59.375 69.921875 59.765625 
L 69.921875 52.34375 
Q 64.453125 52.734375 53.90625 52.734375 
L 53.90625 43.75 
Q 65.625 43.75 75.390625 44.140625 
L 75.390625 36.71875 
Q 65.234375 37.109375 58.203125 37.109375 
L 42.96875 37.109375 
Q 36.328125 37.109375 26.953125 36.71875 
L 26.953125 44.140625 
Q 36.328125 43.75 46.875 43.75 
L 46.875 52.734375 
Q 39.0625 52.734375 30.859375 52.34375 
L 30.859375 59.765625 
Q 38.671875 59.375 46.875 59.375 
z
M 60.9375 11.328125 
L 60.9375 23.828125 
L 39.84375 23.828125 
L 39.84375 11.328125 
z
" id="SimHei-21608"/>
      <path d="M 74.21875 79.6875 
Q 76.171875 68.359375 82.03125 57.03125 
Q 87.890625 45.703125 96.875 38.28125 
Q 94.140625 37.109375 90.234375 32.421875 
Q 87.5 35.546875 83.59375 40.234375 
Q 82.8125 35.546875 82.421875 20.5 
Q 82.03125 5.46875 81.046875 0.390625 
Q 80.078125 -4.6875 75.78125 -6.25 
Q 71.484375 -7.8125 63.671875 -8.59375 
Q 62.5 -3.90625 60.546875 0 
Q 68.75 -0.390625 71.484375 0.390625 
Q 74.21875 1.171875 74.609375 9.171875 
Q 75 17.1875 75.390625 35.15625 
L 57.8125 35.15625 
Q 57.421875 20.3125 53.515625 10.15625 
Q 49.609375 0 37.109375 -9.765625 
Q 33.984375 -5.46875 31.25 -3.515625 
Q 42.96875 3.515625 46.671875 12.5 
Q 50.390625 21.484375 50.390625 35.15625 
Q 46.875 35.15625 41.796875 34.765625 
L 41.796875 40.234375 
Q 38.671875 35.9375 33.59375 30.46875 
Q 31.25 33.59375 27.34375 35.9375 
Q 44.921875 51.171875 50.390625 76.171875 
Q 53.90625 74.609375 58.59375 73.046875 
Q 56.640625 68.75 53.515625 60.734375 
Q 50.390625 52.734375 43.359375 42.1875 
Q 47.65625 41.796875 53.125 41.796875 
L 82.8125 41.796875 
Q 71.484375 56.640625 66.796875 77.734375 
Q 71.484375 78.515625 74.21875 79.6875 
z
M 3.515625 39.453125 
Q 8.984375 44.921875 16.015625 57.609375 
Q 23.046875 70.3125 25.78125 81.640625 
Q 30.859375 79.296875 34.375 77.734375 
Q 32.03125 74.21875 25 58.984375 
L 25 9.765625 
Q 25 1.171875 25.390625 -8.984375 
L 17.1875 -8.984375 
Q 17.578125 0.78125 17.578125 9.765625 
L 17.578125 45.703125 
Q 12.109375 37.5 8.984375 33.984375 
Q 6.640625 36.71875 3.515625 39.453125 
z
" id="SimHei-20221"/>
     </defs>
     <g transform="translate(283.2 414.852812)scale(0.1 -0.1)">
      <use xlink:href="#SimHei-20132"/>
      <use x="100" xlink:href="#SimHei-26131"/>
      <use x="200" xlink:href="#SimHei-21608"/>
      <use x="300" xlink:href="#SimHei-20221"/>
     </g>
    </g>
   </g>
   <g id="matplotlib.axis_2">
    <g id="ytick_1">
     <g id="line2d_10">
      <defs>
       <path d="M 0 0 
L -3.5 0 
" id="m3e7d8f5c17" style="stroke:#000000;stroke-width:0.8;"/>
      </defs>
      <g>
       <use style="stroke:#000000;stroke-width:0.8;" x="24.2" xlink:href="#m3e7d8f5c17" y="380.599334"/>
      </g>
     </g>
     <g id="text_10">
      <!-- 0 -->
      <g transform="translate(12.2 384.036834)scale(0.1 -0.1)">
       <use xlink:href="#SimHei-48"/>
      </g>
     </g>
    </g>
    <g id="ytick_2">
     <g id="line2d_11">
      <g>
       <use style="stroke:#000000;stroke-width:0.8;" x="24.2" xlink:href="#m3e7d8f5c17" y="330.089267"/>
      </g>
     </g>
     <g id="text_11">
      <!-- 5 -->
      <g transform="translate(12.2 333.526767)scale(0.1 -0.1)">
       <use xlink:href="#SimHei-53"/>
      </g>
     </g>
    </g>
    <g id="ytick_3">
     <g id="line2d_12">
      <g>
       <use style="stroke:#000000;stroke-width:0.8;" x="24.2" xlink:href="#m3e7d8f5c17" y="279.5792"/>
      </g>
     </g>
     <g id="text_12">
      <!-- 10 -->
      <g transform="translate(7.2 283.0167)scale(0.1 -0.1)">
       <use xlink:href="#SimHei-49"/>
       <use x="50" xlink:href="#SimHei-48"/>
      </g>
     </g>
    </g>
    <g id="ytick_4">
     <g id="line2d_13">
      <g>
       <use style="stroke:#000000;stroke-width:0.8;" x="24.2" xlink:href="#m3e7d8f5c17" y="229.069134"/>
      </g>
     </g>
     <g id="text_13">
      <!-- 15 -->
      <g transform="translate(7.2 232.506634)scale(0.1 -0.1)">
       <use xlink:href="#SimHei-49"/>
       <use x="50" xlink:href="#SimHei-53"/>
      </g>
     </g>
    </g>
    <g id="ytick_5">
     <g id="line2d_14">
      <g>
       <use style="stroke:#000000;stroke-width:0.8;" x="24.2" xlink:href="#m3e7d8f5c17" y="178.559067"/>
      </g>
     </g>
     <g id="text_14">
      <!-- 20 -->
      <g transform="translate(7.2 181.996567)scale(0.1 -0.1)">
       <use xlink:href="#SimHei-50"/>
       <use x="50" xlink:href="#SimHei-48"/>
      </g>
     </g>
    </g>
    <g id="ytick_6">
     <g id="line2d_15">
      <g>
       <use style="stroke:#000000;stroke-width:0.8;" x="24.2" xlink:href="#m3e7d8f5c17" y="128.049"/>
      </g>
     </g>
     <g id="text_15">
      <!-- 25 -->
      <g transform="translate(7.2 131.4865)scale(0.1 -0.1)">
       <use xlink:href="#SimHei-50"/>
       <use x="50" xlink:href="#SimHei-53"/>
      </g>
     </g>
    </g>
    <g id="ytick_7">
     <g id="line2d_16">
      <g>
       <use style="stroke:#000000;stroke-width:0.8;" x="24.2" xlink:href="#m3e7d8f5c17" y="77.538934"/>
      </g>
     </g>
     <g id="text_16">
      <!-- 30 -->
      <g transform="translate(7.2 80.976434)scale(0.1 -0.1)">
       <use xlink:href="#SimHei-51"/>
       <use x="50" xlink:href="#SimHei-48"/>
      </g>
     </g>
    </g>
    <g id="ytick_8">
     <g id="line2d_17">
      <g>
       <use style="stroke:#000000;stroke-width:0.8;" x="24.2" xlink:href="#m3e7d8f5c17" y="27.028867"/>
      </g>
     </g>
     <g id="text_17">
      <!-- 35 -->
      <g transform="translate(7.2 30.466367)scale(0.1 -0.1)">
       <use xlink:href="#SimHei-51"/>
       <use x="50" xlink:href="#SimHei-53"/>
      </g>
     </g>
    </g>
   </g>
   <g id="line2d_18">
    <path clip-path="url(#p6a8671eeae)" d="M 49.563636 370.423636 
L 49.904545 370.216815 
L 50.586364 370.087956 
M 51.268182 370.124577 
L 51.609091 370.181193 
L 51.95 365.066938 
L 52.290909 364.085151 
L 52.631818 363.519095 
L 52.972727 363.301373 
L 53.313636 363.346676 
L 53.654545 363.221249 
L 54.336364 363.74668 
L 54.677273 363.859745 
L 55.018182 364.935983 
M 55.7 365.135988 
L 56.040909 364.47541 
L 56.381818 362.536605 
L 56.722727 362.28947 
L 57.063636 364.436265 
L 57.404545 362.181614 
L 58.086364 361.723681 
L 58.427273 361.139329 
L 58.768182 359.775747 
L 59.109091 361.021726 
L 59.45 362.971969 
L 59.790909 362.776517 
L 60.131818 363.486471 
L 60.472727 365.424434 
L 60.813636 364.876696 
L 61.154545 365.304981 
L 61.495455 365.4673 
L 61.836364 366.097004 
L 62.177273 366.282576 
L 62.518182 366.82216 
L 62.859091 366.677238 
L 63.2 366.976633 
L 63.540909 366.723836 
L 64.563636 368.559971 
L 64.904545 368.311454 
L 65.245455 367.767912 
L 65.586364 363.909607 
L 65.927273 363.107782 
L 66.609091 364.382683 
L 66.95 363.806294 
L 67.290909 364.940731 
L 67.972727 362.237998 
L 68.313636 361.611564 
L 68.654545 361.277854 
L 68.995455 359.829246 
L 69.336364 357.849295 
L 69.677273 359.21953 
L 70.018182 360.049451 
L 70.359091 361.272827 
L 70.7 359.73809 
L 71.040909 360.124628 
L 71.722727 363.399397 
L 72.063636 359.159457 
L 72.404545 360.318347 
L 73.086364 357.755039 
L 73.427273 357.512684 
L 73.768182 359.06787 
L 74.109091 357.817969 
L 74.45 359.703218 
L 74.790909 359.760348 
L 75.131818 357.854977 
L 75.472727 358.185771 
L 75.813636 358.907487 
L 76.154545 357.784392 
L 76.495455 357.971931 
L 76.836364 358.606629 
L 77.518182 358.525119 
L 78.2 359.707601 
L 78.540909 359.336251 
L 78.881818 359.565297 
L 79.563636 359.419784 
L 79.904545 359.780112 
L 80.245455 359.492702 
L 80.586364 359.398018 
L 80.927273 359.455813 
L 81.268182 359.687525 
L 81.609091 359.518411 
L 82.290909 358.876215 
L 82.631818 358.921269 
L 82.972727 358.358311 
L 83.654545 356.561426 
L 83.995455 356.381479 
L 84.336364 356.799551 
L 84.677273 357.428699 
L 85.018182 357.144326 
L 85.359091 356.202537 
L 85.7 356.434501 
L 86.040909 355.594242 
L 86.381818 355.259699 
L 86.722727 355.890782 
L 87.063636 355.193359 
L 87.404545 355.072528 
L 87.745455 355.266914 
L 88.086364 354.618126 
L 88.427273 353.299813 
L 88.768182 352.601301 
L 89.109091 352.206416 
L 89.790909 350.794686 
L 90.131818 350.120088 
L 90.472727 351.999194 
L 90.813636 352.558413 
L 91.154545 353.643512 
L 91.495455 353.33565 
L 91.836364 352.681485 
L 92.177273 352.391111 
L 92.518182 352.958999 
L 92.859091 353.234131 
L 93.2 353.113724 
L 93.540909 353.542692 
L 93.881818 353.024639 
L 94.563636 354.523954 
L 94.904545 354.903794 
L 95.245455 348.781343 
L 95.586364 348.679207 
L 96.268182 349.108915 
L 96.609091 348.952565 
L 96.95 348.460901 
L 97.290909 347.147339 
L 97.631818 346.781541 
L 97.972727 346.797808 
L 98.654545 345.701199 
L 98.995455 345.826449 
L 99.336364 345.168441 
L 99.677273 345.629255 
L 100.359091 345.633491 
L 101.381818 346.403501 
L 102.063636 344.821304 
L 102.404545 345.400657 
L 103.086364 345.894542 
L 103.427273 345.894334 
L 104.45 346.635089 
L 104.790909 346.208057 
L 105.131818 346.177139 
L 105.472727 345.626521 
L 105.813636 345.476243 
L 106.154545 345.176784 
L 106.495455 345.391692 
L 106.836364 345.83309 
L 107.177273 345.835767 
L 107.518182 345.716528 
L 108.2 345.751022 
L 108.540909 345.526634 
L 109.222727 341.840255 
L 109.563636 342.161297 
L 109.904545 341.971028 
L 110.245455 342.538169 
L 110.586364 342.26961 
L 110.927273 342.354318 
L 111.609091 342.025246 
L 111.95 342.472744 
L 112.290909 342.40812 
L 112.631818 342.986602 
L 112.972727 342.835549 
L 113.313636 342.30697 
L 113.654545 343.413772 
L 113.995455 343.518487 
L 114.336364 343.398864 
L 114.677273 344.198302 
L 115.018182 344.374592 
L 115.359091 344.172168 
L 115.7 344.147434 
L 116.040909 343.849659 
L 116.381818 343.330422 
L 116.722727 343.543601 
L 117.063636 343.546899 
L 118.086364 343.11985 
L 118.427273 343.146685 
L 118.768182 343.010994 
L 119.45 343.060144 
L 119.790909 343.306026 
L 120.131818 343.717744 
L 120.472727 343.653385 
L 120.813636 343.757795 
L 121.154545 343.496735 
L 121.495455 343.554801 
L 122.518182 344.306846 
L 123.540909 344.134898 
L 123.881818 344.082061 
L 124.563636 343.361969 
L 124.904545 343.097621 
L 125.245455 343.340332 
L 125.927273 345.943307 
L 126.609091 346.835171 
L 126.95 349.028221 
L 127.290909 350.381675 
L 127.631818 350.255849 
L 127.972727 350.480269 
L 128.313636 351.38104 
L 128.654545 351.617679 
L 128.995455 348.323827 
L 129.336364 348.65591 
L 129.677273 348.162511 
L 130.359091 348.883558 
L 130.7 349.489202 
L 131.040909 349.760794 
L 131.381818 349.033189 
L 131.722727 348.655027 
L 132.063636 348.716136 
L 132.404545 349.467559 
L 132.745455 348.214754 
L 133.086364 348.229295 
L 133.427273 348.585301 
L 133.768182 347.291006 
L 134.109091 346.492238 
L 134.45 346.430402 
L 134.790909 346.199865 
L 135.472727 344.261227 
L 135.813636 343.800932 
L 136.154545 344.853551 
L 136.495455 347.041943 
L 136.836364 347.952221 
L 137.177273 346.785642 
L 137.859091 346.28219 
L 138.2 346.365581 
L 138.540909 346.283625 
L 139.563636 343.823471 
L 139.904545 343.571299 
L 140.245455 344.77708 
L 140.927273 343.79776 
L 141.268182 343.556489 
L 141.609091 342.845118 
L 141.95 343.938216 
L 142.290909 345.599295 
L 142.631818 345.84587 
L 142.972727 346.333253 
L 143.313636 348.657624 
L 143.654545 347.4256 
L 143.995455 347.193384 
L 144.336364 346.122055 
L 144.677273 346.261757 
L 145.018182 347.010179 
L 145.359091 346.570765 
L 145.7 346.396914 
L 146.722727 345.153753 
L 147.063636 345.008994 
L 147.404545 344.585575 
L 147.745455 344.978305 
L 148.086364 344.779006 
L 148.427273 344.413137 
L 148.768182 344.652762 
L 149.109091 344.054395 
L 149.45 343.770916 
L 149.790909 343.993397 
L 150.131818 344.01353 
L 150.472727 345.109494 
L 150.813636 345.754912 
L 151.836364 344.751684 
L 152.177273 344.916404 
L 152.859091 343.773754 
L 153.2 343.668175 
L 153.881818 342.23529 
L 154.222727 342.019723 
L 154.563636 341.606188 
L 154.904545 340.767952 
L 155.245455 340.640014 
L 155.586364 340.078386 
L 156.268182 339.80727 
L 156.95 339.973053 
L 157.290909 339.45844 
L 157.972727 337.168015 
L 158.313636 336.373526 
L 158.654545 334.948659 
L 158.995455 334.576834 
L 159.336364 334.374887 
L 159.677273 333.398765 
L 160.018182 333.413728 
L 160.359091 331.680931 
L 160.7 330.535898 
L 161.040909 330.681833 
L 161.381818 331.039841 
L 162.063636 329.720892 
L 162.404545 329.835114 
L 162.745455 329.650332 
L 163.086364 329.110018 
L 163.427273 328.994733 
L 163.768182 329.241868 
L 164.109091 328.82957 
L 164.45 329.094787 
L 164.790909 329.592218 
L 165.472727 327.421144 
L 166.495455 323.846975 
L 166.836364 324.192483 
L 167.177273 322.89913 
L 167.518182 322.049553 
L 167.859091 322.038896 
L 168.2 321.076514 
L 169.563636 322.017083 
L 169.904545 323.298394 
L 170.245455 323.585701 
L 170.586364 323.686159 
L 170.927273 323.432952 
L 171.268182 323.851124 
L 171.609091 323.042803 
L 171.95 324.199344 
L 172.290909 323.806969 
L 172.631818 322.76375 
L 172.972727 322.704295 
L 173.313636 322.402372 
L 173.995455 320.007631 
L 174.677273 320.035986 
L 175.018182 319.139164 
L 175.359091 320.064385 
L 175.7 320.619975 
L 176.381818 320.293299 
L 176.722727 320.177512 
L 177.063636 319.866037 
L 177.404545 319.890816 
L 177.745455 322.22773 
L 178.086364 321.305575 
L 178.427273 320.859449 
L 179.45 325.866229 
L 179.790909 324.524995 
L 180.131818 324.179184 
L 180.472727 325.418171 
L 180.813636 324.421433 
L 181.154545 324.615697 
L 181.495455 323.668733 
L 181.836364 323.162506 
L 182.177273 321.813258 
L 182.518182 321.597807 
L 182.859091 321.845495 
L 183.2 321.058253 
L 183.540909 321.055276 
L 183.881818 321.240458 
L 184.222727 321.17546 
L 184.563636 320.14505 
L 184.904545 319.564507 
L 185.245455 319.58825 
L 185.927273 319.855173 
L 186.268182 318.807823 
L 186.609091 318.167415 
L 186.95 316.779491 
L 187.290909 317.315387 
L 187.631818 317.486063 
L 188.313636 318.836272 
L 188.654545 319.772229 
L 188.995455 319.089992 
L 189.336364 319.32828 
L 189.677273 319.302668 
L 190.018182 317.135218 
L 190.359091 316.873365 
L 190.7 315.911549 
L 191.040909 316.453374 
L 192.063636 312.484482 
L 192.404545 312.023616 
L 192.745455 313.310988 
L 193.086364 312.04193 
L 193.427273 313.154754 
L 193.768182 312.734102 
L 194.109091 311.810592 
L 194.45 311.809973 
L 194.790909 312.075294 
L 195.131818 311.781257 
L 195.472727 311.325062 
L 195.813636 311.676213 
L 196.154545 312.680285 
L 196.495455 312.67492 
L 196.836364 313.489401 
L 197.518182 311.447994 
L 197.859091 311.579243 
L 198.2 310.991537 
L 198.540909 309.139691 
L 198.881818 308.476903 
L 199.222727 308.118599 
L 199.563636 306.699209 
L 199.904545 306.191071 
L 200.586364 305.71333 
L 200.927273 303.293388 
L 201.268182 304.3984 
L 201.609091 303.003389 
L 201.95 303.359477 
L 202.290909 304.015629 
L 202.631818 303.441328 
L 202.972727 303.119194 
L 203.654545 301.238293 
L 203.995455 301.001321 
L 204.336364 300.169521 
L 204.677273 300.731806 
L 205.018182 299.913883 
L 205.7 301.45576 
L 206.040909 302.05361 
L 206.381818 301.9559 
L 206.722727 302.926124 
L 207.063636 302.335885 
L 207.404545 302.385895 
L 207.745455 300.933628 
L 208.086364 301.062448 
L 208.768182 299.792383 
L 209.109091 299.568063 
L 209.45 298.945095 
L 209.790909 297.773438 
L 210.131818 297.620625 
L 210.472727 295.955242 
L 210.813636 294.87239 
L 211.495455 291.873829 
L 212.177273 291.552546 
L 212.518182 292.096978 
L 212.859091 291.579416 
L 213.2 292.252584 
L 213.881818 291.517768 
L 214.563636 291.309733 
L 214.904545 290.537467 
L 215.245455 290.67247 
L 215.586364 290.481015 
L 215.927273 290.765429 
L 216.268182 290.870445 
L 216.609091 291.384501 
L 217.290909 292.743755 
L 217.972727 295.622557 
L 218.313636 295.134875 
L 218.654545 294.25425 
L 218.995455 295.011928 
L 219.336364 293.995492 
L 219.677273 293.342845 
L 220.018182 292.28233 
L 220.359091 292.921657 
L 220.7 292.953834 
L 221.722727 293.594209 
L 222.063636 294.198199 
L 222.404545 296.4518 
L 222.745455 297.417393 
L 223.086364 295.979925 
L 223.427273 296.224476 
L 224.109091 295.095274 
L 224.45 295.482693 
L 225.131818 293.344203 
L 225.472727 292.636476 
L 226.154545 292.135785 
L 226.836364 291.293388 
L 227.177273 291.552285 
L 227.518182 291.535634 
L 227.859091 290.773783 
L 228.881818 292.6692 
L 229.222727 292.259974 
L 229.563636 295.992223 
L 230.245455 294.871275 
L 230.586364 295.090653 
L 231.268182 295.199324 
L 231.609091 295.358168 
L 231.95 295.241729 
L 232.290909 295.51163 
L 232.631818 294.824461 
L 232.972727 294.674012 
L 233.313636 294.385389 
L 233.995455 295.205411 
L 234.336364 294.852478 
L 234.677273 295.585613 
L 235.018182 295.731327 
L 235.359091 296.701198 
L 235.7 297.019172 
L 236.040909 298.725628 
L 236.381818 299.129511 
L 237.063636 299.03565 
L 237.745455 297.710795 
L 238.086364 298.190719 
L 238.427273 297.883418 
L 238.768182 297.407139 
L 239.45 297.968821 
L 239.790909 298.098799 
L 240.131818 297.244836 
L 240.472727 297.467642 
L 240.813636 297.143928 
L 241.154545 297.322272 
L 241.495455 297.35908 
L 242.518182 299.206697 
L 242.859091 301.793762 
L 243.540909 301.014455 
L 244.222727 305.010868 
L 244.563636 304.866948 
L 244.904545 304.138251 
L 245.245455 304.255083 
L 245.927273 303.769526 
L 246.268182 304.188171 
L 246.609091 305.215825 
L 246.95 305.582792 
L 247.290909 306.469262 
L 247.631818 306.794545 
L 247.972727 307.578426 
L 248.654545 306.371795 
L 248.995455 306.218292 
L 249.336364 306.768414 
L 249.677273 306.450572 
L 250.018182 306.612068 
L 250.359091 307.026693 
L 250.7 306.87013 
L 251.040909 307.59452 
L 251.722727 308.220213 
L 252.063636 309.787945 
L 252.745455 314.520442 
L 253.086364 313.853376 
L 253.427273 312.846446 
L 254.109091 312.035282 
L 254.45 312.494524 
L 254.790909 316.129959 
L 255.813636 318.170982 
L 256.154545 317.35417 
L 256.495455 315.612777 
L 256.836364 314.915212 
L 257.518182 311.775396 
L 257.859091 313.0995 
L 258.2 312.705031 
L 258.540909 313.676666 
L 258.881818 313.844642 
L 259.563636 312.188863 
L 259.904545 311.347893 
L 260.245455 311.676283 
L 260.586364 310.856443 
L 260.927273 311.463137 
L 261.609091 309.334293 
L 261.95 310.136737 
L 262.290909 309.486438 
L 262.631818 310.612653 
L 262.972727 310.8884 
L 263.313636 310.382508 
L 263.654545 312.910314 
L 263.995455 313.332625 
L 264.336364 315.879141 
L 264.677273 315.572497 
L 265.018182 316.024889 
L 265.359091 315.352798 
L 266.040909 318.371866 
L 266.381818 317.562535 
L 266.722727 315.711145 
L 267.063636 315.580006 
L 267.404545 314.655041 
L 267.745455 315.696763 
L 268.086364 317.271039 
L 268.427273 316.794811 
L 268.768182 317.383854 
L 269.109091 319.832569 
L 270.813636 316.515317 
L 271.154545 314.540632 
L 271.495455 316.376866 
L 271.836364 317.581423 
L 272.177273 316.524234 
L 272.518182 317.759346 
L 272.859091 316.085289 
L 273.540909 315.096671 
L 273.881818 316.443275 
L 274.222727 320.109024 
L 274.904545 317.791515 
L 275.245455 317.603468 
L 275.586364 317.269401 
L 275.927273 318.150827 
L 276.268182 318.289525 
L 276.609091 319.606817 
L 276.95 319.975822 
L 277.290909 320.818913 
L 277.631818 322.973399 
L 277.972727 323.653443 
L 278.313636 323.338532 
L 279.336364 320.012503 
L 280.018182 321.704754 
L 280.359091 321.638144 
L 281.381818 326.158339 
L 281.722727 327.034023 
L 282.063636 326.832188 
L 282.745455 325.222964 
L 283.768182 320.729467 
L 284.109091 320.402817 
L 284.45 318.392795 
L 285.131818 319.592695 
L 285.472727 318.52209 
L 285.813636 316.737493 
L 286.154545 319.490896 
L 287.177273 317.863359 
L 287.518182 317.86179 
L 288.2 320.76079 
L 288.540909 320.629205 
L 289.222727 321.842508 
L 289.563636 322.519387 
L 289.904545 320.793135 
L 290.245455 321.175715 
L 290.586364 322.673844 
L 290.927273 322.211309 
L 291.268182 323.101142 
L 292.290909 323.942813 
L 292.631818 324.001339 
L 292.972727 323.763797 
L 293.313636 323.876729 
L 293.654545 323.403833 
L 293.995455 323.419962 
L 294.336364 326.378995 
L 294.677273 327.485578 
L 295.018182 327.1593 
L 295.359091 325.766546 
L 295.7 323.793607 
L 296.040909 319.290163 
L 296.381818 320.236408 
L 297.063636 318.265409 
L 297.404545 318.211427 
L 297.745455 316.212207 
L 298.086364 316.205511 
L 298.427273 314.462756 
L 298.768182 313.878373 
L 299.109091 315.243084 
L 299.790909 315.368576 
L 300.131818 314.984301 
L 300.472727 315.00497 
L 300.813636 314.508355 
L 301.154545 314.790828 
L 301.495455 313.720979 
L 302.177273 312.954812 
L 302.518182 312.869241 
L 302.859091 315.39239 
L 303.2 317.043756 
L 303.881818 322.071289 
L 304.563636 324.296709 
L 304.904545 324.712955 
L 305.245455 326.131127 
L 305.586364 325.034791 
L 305.927273 328.888581 
L 306.268182 329.650125 
L 306.95 327.354726 
L 307.290909 327.534213 
L 307.631818 324.530568 
L 307.972727 322.902163 
L 308.313636 323.048945 
L 308.654545 319.578483 
L 308.995455 318.043016 
L 309.336364 315.210028 
L 309.677273 313.439285 
L 310.018182 314.38463 
L 310.359091 313.56231 
L 310.7 314.99945 
L 311.040909 311.674388 
L 311.381818 311.115958 
L 311.722727 311.38736 
L 312.063636 310.570728 
L 312.404545 308.588008 
L 312.745455 305.616317 
L 313.086364 315.128738 
L 313.427273 316.420014 
L 313.768182 316.36482 
L 314.109091 317.120089 
L 314.45 321.180857 
L 314.790909 320.145311 
L 315.472727 319.221196 
L 315.813636 316.613177 
L 316.154545 317.70702 
L 316.495455 321.146475 
L 316.836364 318.502726 
L 317.177273 320.43747 
L 317.518182 318.484615 
L 317.859091 318.123977 
L 318.540909 319.261694 
L 318.881818 319.544644 
L 319.222727 324.564561 
L 319.563636 324.396344 
L 319.904545 328.015086 
L 320.245455 327.275279 
L 320.586364 324.919688 
L 321.609091 321.43671 
L 321.95 321.837004 
L 322.290909 319.521298 
L 322.972727 317.931118 
L 323.313636 316.166255 
L 323.654545 316.566707 
L 323.995455 313.964357 
L 324.336364 313.250163 
L 324.677273 314.640654 
L 325.018182 314.337508 
L 325.359091 312.212094 
L 325.7 308.422005 
L 326.040909 307.24205 
L 326.722727 302.716707 
L 327.063636 304.809725 
L 327.404545 305.420892 
L 327.745455 312.730266 
L 328.086364 310.260375 
L 328.427273 310.894411 
L 328.768182 314.131926 
L 329.109091 314.080081 
L 329.45 310.616956 
L 329.790909 310.138976 
L 330.131818 309.904413 
L 330.472727 310.616241 
L 330.813636 310.66117 
L 331.154545 311.371532 
L 331.495455 316.057908 
L 331.836364 314.695696 
L 332.177273 310.806657 
L 332.518182 310.93026 
L 332.859091 310.764726 
L 333.2 308.680303 
L 333.540909 308.462604 
L 334.222727 313.325639 
L 334.563636 314.135614 
L 334.904545 315.373036 
L 335.245455 313.743552 
L 335.586364 313.959898 
L 335.927273 312.938448 
L 336.268182 318.131286 
L 336.609091 317.267353 
L 336.95 318.441908 
L 337.290909 315.244033 
L 337.631818 317.464414 
L 337.972727 317.593146 
L 338.654545 312.563153 
L 338.995455 311.567987 
L 339.336364 308.76069 
L 339.677273 308.419528 
L 340.018182 305.725417 
L 340.359091 304.992401 
L 340.7 305.589091 
L 341.040909 302.682894 
L 341.381818 302.037746 
L 341.722727 302.528599 
L 342.063636 301.1373 
L 342.404545 297.042622 
L 342.745455 295.383436 
L 343.086364 298.322362 
L 343.427273 294.618993 
L 344.109091 293.625314 
L 344.45 293.711244 
L 344.790909 294.065661 
L 345.472727 289.715496 
L 345.813636 288.688418 
L 346.154545 289.406334 
L 346.836364 287.676952 
L 347.177273 286.368326 
L 347.518182 286.519284 
L 347.859091 289.976067 
L 348.2 290.132302 
L 348.540909 292.408905 
L 348.881818 293.161081 
L 349.222727 296.399357 
L 349.563636 294.189949 
L 349.904545 293.168504 
L 350.245455 295.863122 
L 350.586364 296.770308 
L 350.927273 293.947617 
L 351.268182 295.827179 
L 351.609091 296.205094 
L 351.95 290.333702 
L 352.290909 292.08982 
L 352.631818 293.069001 
L 352.972727 288.717605 
L 353.313636 289.806955 
L 353.654545 292.269698 
L 353.995455 292.30927 
L 354.336364 290.232511 
L 354.677273 290.420564 
L 355.018182 289.546822 
L 355.7 285.521129 
L 356.040909 282.790293 
L 356.381818 282.947961 
L 356.722727 282.890639 
L 357.063636 279.936124 
L 357.404545 282.463576 
L 357.745455 279.371612 
L 358.086364 281.111413 
L 358.427273 278.142793 
L 358.768182 273.154902 
L 359.109091 274.030251 
L 360.131818 272.347993 
L 360.472727 266.556979 
L 360.813636 266.206071 
L 361.154545 267.520221 
L 361.495455 264.942469 
L 361.836364 263.651854 
L 362.177273 263.465674 
L 362.518182 260.013276 
L 362.859091 259.8494 
L 363.2 255.246171 
L 363.540909 262.760842 
L 363.881818 256.827674 
L 364.222727 263.231991 
L 364.563636 266.735993 
L 364.904545 261.666797 
L 365.245455 261.54061 
L 365.586364 258.343169 
L 365.927273 261.635527 
L 366.268182 261.401764 
L 366.609091 266.385891 
L 367.290909 263.545917 
L 367.631818 263.18586 
L 367.972727 261.177151 
L 368.313636 258.125914 
L 368.654545 256.553967 
L 368.995455 256.410695 
L 369.677273 248.95555 
L 370.018182 248.201758 
L 370.359091 248.064329 
L 370.7 249.493851 
L 371.040909 249.846525 
L 371.381818 251.10999 
L 371.722727 262.661475 
L 372.063636 260.859031 
L 372.404545 255.91208 
L 372.745455 255.090765 
L 373.086364 254.997889 
L 373.768182 246.885534 
L 374.109091 247.755342 
L 374.45 248.9613 
L 374.790909 245.576228 
L 375.131818 247.74956 
L 375.472727 248.553567 
L 375.813636 247.789022 
L 376.154545 250.745379 
L 376.495455 251.18883 
L 376.836364 252.628263 
L 377.177273 252.146836 
L 377.518182 249.683117 
L 377.859091 248.218165 
L 378.2 244.739717 
L 378.540909 244.775177 
L 378.881818 241.610202 
L 379.222727 239.886459 
L 379.563636 240.003813 
L 379.904545 241.651031 
L 380.245455 241.467341 
L 380.586364 242.351803 
L 380.927273 240.180072 
L 381.268182 245.344131 
L 381.95 239.617857 
L 382.290909 240.153586 
L 382.631818 245.390527 
L 383.313636 243.933273 
L 383.654545 246.08508 
L 383.995455 246.350881 
L 384.677273 242.530026 
L 385.018182 239.761598 
L 385.359091 239.511893 
L 385.7 240.980613 
L 386.040909 239.833226 
L 386.381818 240.816618 
L 387.063636 238.148783 
L 387.404545 238.887246 
L 387.745455 238.56641 
L 388.086364 237.534683 
L 388.427273 237.571308 
L 388.768182 242.313259 
L 389.109091 240.879647 
L 389.45 244.238648 
L 389.790909 244.698456 
L 390.131818 242.805901 
L 390.813636 240.356778 
L 391.154545 240.470655 
L 393.2 260.816495 
L 393.540909 260.512606 
L 393.881818 262.461133 
L 394.904545 253.046507 
L 395.245455 252.148662 
L 395.586364 252.202483 
L 395.927273 248.527123 
L 396.268182 250.056784 
L 396.609091 249.449369 
L 396.95 253.191602 
L 397.631818 248.399337 
L 397.972727 248.014767 
L 398.654545 252.256095 
L 398.995455 249.905104 
L 399.336364 248.670827 
L 399.677273 250.152253 
L 400.018182 249.138418 
L 400.359091 250.253207 
L 401.040909 249.30375 
L 401.381818 250.832162 
L 401.722727 251.120375 
L 402.063636 252.745206 
L 402.404545 251.806629 
L 402.745455 252.612485 
L 403.086364 255.835066 
L 403.427273 251.719467 
L 403.768182 251.07945 
L 404.109091 248.766224 
L 404.45 247.693498 
L 404.790909 245.465864 
L 405.131818 244.756278 
L 405.813636 250.190787 
L 406.154545 247.909419 
L 406.495455 247.580216 
L 406.836364 247.871129 
L 407.177273 247.794014 
L 407.859091 250.34182 
L 408.2 249.862342 
L 408.540909 256.274861 
L 408.881818 255.182671 
L 409.563636 255.707117 
L 409.904545 254.161575 
L 410.245455 255.586908 
L 410.927273 249.546082 
L 411.609091 252.272403 
L 411.95 250.907261 
L 412.290909 246.559464 
L 412.631818 244.294324 
L 412.972727 243.478402 
L 413.313636 245.207086 
L 413.654545 243.464723 
L 413.995455 242.510541 
L 414.336364 243.548692 
L 414.677273 243.913932 
L 415.018182 243.366097 
L 415.359091 244.415931 
L 415.7 243.143025 
L 416.381818 238.99151 
L 416.722727 235.843002 
L 417.063636 233.799042 
L 417.404545 235.811821 
L 417.745455 235.02881 
L 418.086364 234.978297 
L 418.427273 239.761074 
L 418.768182 236.867412 
L 419.109091 237.687258 
L 419.790909 232.521592 
L 420.131818 231.053994 
L 420.472727 228.673381 
L 420.813636 230.32983 
L 421.154545 225.248917 
L 421.836364 222.22259 
L 422.177273 226.788116 
L 422.518182 224.594307 
L 422.859091 224.035965 
L 423.2 222.724433 
L 423.540909 219.309283 
L 423.881818 218.743639 
L 424.222727 219.433954 
L 424.563636 224.67892 
L 425.586364 220.052337 
L 425.927273 217.139372 
L 426.268182 221.506696 
L 426.609091 216.975737 
L 426.95 215.717308 
L 427.290909 216.394149 
L 427.631818 213.647653 
L 427.972727 217.132102 
L 428.313636 214.020176 
L 428.654545 209.244518 
L 429.677273 201.190604 
L 430.018182 200.622955 
L 430.359091 199.353041 
L 430.7 195.213557 
L 431.040909 196.721114 
L 431.381818 195.10979 
L 431.722727 198.4499 
L 432.063636 197.562832 
L 432.404545 200.453527 
L 432.745455 195.695156 
L 433.086364 201.103788 
L 433.427273 202.040575 
L 434.109091 203.034121 
L 434.45 200.784015 
L 434.790909 199.657651 
L 435.131818 199.069772 
L 435.472727 198.913657 
L 435.813636 200.697265 
L 436.154545 195.624926 
L 436.836364 190.428224 
L 437.177273 190.492882 
L 437.518182 194.52504 
L 437.859091 194.436096 
L 438.881818 181.277284 
L 439.222727 181.909933 
L 439.563636 179.48771 
L 439.904545 172.720907 
L 440.927273 161.727887 
L 441.268182 159.860257 
L 441.609091 162.439594 
L 441.95 163.514248 
L 442.631818 158.12822 
L 442.972727 169.288039 
L 443.313636 162.129657 
L 443.654545 170.379509 
L 443.995455 192.136 
L 444.336364 189.663738 
L 444.677273 200.012447 
L 445.359091 213.108254 
L 445.7 215.127024 
L 446.040909 218.379879 
L 446.722727 204.834237 
L 447.063636 202.205143 
L 447.404545 202.444727 
L 448.086364 198.657466 
L 448.427273 188.520393 
L 448.768182 188.789111 
L 449.45 179.854078 
L 449.790909 172.065564 
L 450.131818 173.436882 
L 450.472727 180.766911 
L 450.813636 173.831527 
L 451.154545 174.086471 
L 451.495455 172.179945 
L 453.2 106.090231 
L 453.540909 107.94701 
L 453.881818 119.818565 
L 454.563636 184.058894 
L 455.245455 142.216272 
L 455.586364 145.848276 
L 455.927273 138.230839 
L 456.268182 121.694522 
L 456.609091 122.796162 
L 456.95 130.08039 
L 457.290909 165.621513 
L 457.631818 139.497408 
L 457.972727 147.384334 
L 458.654545 138.498117 
L 458.995455 134.485048 
L 459.336364 123.152962 
L 459.677273 119.04592 
L 460.018182 112.626353 
L 460.359091 115.185762 
L 461.040909 91.277592 
L 461.381818 84.962856 
L 462.063636 80.012963 
L 462.404545 68.51373 
L 462.745455 66.105678 
L 463.086364 61.798687 
L 463.427273 78.701179 
L 463.768182 89.692989 
L 464.109091 80.954744 
L 464.45 85.988473 
L 465.131818 64.467202 
L 465.472727 73.208255 
L 465.813636 92.388229 
L 466.154545 87.652056 
L 466.495455 76.500432 
L 466.836364 69.993324 
L 467.177273 67.834301 
L 467.859091 54.225991 
L 468.2 59.115064 
L 468.540909 54.173529 
L 468.881818 55.094703 
L 469.222727 69.166593 
L 469.563636 70.792895 
L 470.586364 59.777864 
L 470.927273 57.32005 
L 471.268182 57.449362 
L 471.95 50.500614 
L 472.290909 54.383895 
L 472.631818 51.92945 
L 472.972727 59.588773 
L 473.313636 58.417084 
L 473.654545 61.092808 
L 473.995455 55.6203 
L 474.336364 52.553148 
L 474.677273 52.814273 
L 475.018182 46.183509 
L 475.359091 44.930453 
L 475.7 41.527442 
L 476.040909 40.15454 
L 476.381818 35.710714 
L 476.722727 34.940577 
L 477.063636 34.900135 
L 477.404545 28.68481 
L 477.745455 25.708316 
L 478.086364 24.496364 
L 478.427273 30.320428 
L 478.768182 39.206303 
L 479.109091 35.968531 
L 479.45 31.46145 
L 479.790909 30.887816 
L 480.131818 28.222315 
L 480.472727 26.517867 
L 481.154545 43.74489 
L 481.495455 42.515708 
L 481.836364 41.986608 
L 482.177273 35.534681 
L 482.518182 38.377323 
L 482.859091 37.489257 
L 483.2 37.076839 
L 483.540909 35.502132 
L 483.881818 35.057992 
L 484.222727 36.846859 
L 484.563636 44.72601 
L 484.904545 42.75712 
L 485.245455 47.834213 
L 485.586364 60.128553 
L 485.927273 62.477284 
L 486.268182 60.72125 
L 486.609091 73.457835 
L 486.95 69.688288 
L 487.290909 84.253227 
L 487.631818 89.02351 
L 488.313636 80.757003 
L 488.654545 88.143319 
L 488.995455 87.544954 
L 489.336364 82.281111 
L 490.018182 100.097249 
L 490.359091 96.615657 
L 490.7 95.829306 
L 491.040909 97.135261 
L 491.381818 93.764307 
L 491.722727 97.95468 
L 492.063636 94.562661 
L 492.745455 91.461082 
L 493.427273 95.968123 
L 493.768182 96.007971 
L 494.109091 104.194526 
L 494.45 107.771204 
L 494.790909 116.386571 
L 495.131818 117.205895 
L 495.472727 128.189138 
L 495.813636 131.446491 
L 496.154545 125.150648 
L 496.495455 129.41281 
L 496.836364 127.581911 
L 497.177273 133.946058 
L 497.518182 134.516814 
L 497.859091 135.636735 
L 498.2 140.207493 
L 498.540909 146.702399 
L 498.881818 149.761537 
L 499.222727 163.005856 
L 499.563636 158.686843 
L 499.904545 157.545547 
L 500.245455 159.174286 
L 500.586364 151.220477 
L 501.268182 145.473141 
L 501.609091 148.141823 
L 501.95 139.676651 
L 502.290909 139.388266 
L 502.631818 140.332125 
L 502.972727 142.937102 
L 503.313636 143.131272 
L 504.336364 145.500421 
L 504.677273 142.50432 
L 505.018182 148.24241 
L 505.359091 150.326419 
L 506.040909 164.563871 
L 506.381818 158.216317 
L 506.722727 158.213648 
L 507.063636 161.222749 
L 507.404545 161.258507 
L 507.745455 157.095419 
L 508.086364 158.981792 
L 508.427273 159.690746 
L 508.768182 158.080102 
L 509.109091 162.417001 
L 509.45 164.984571 
L 509.790909 162.778617 
L 510.131818 163.14608 
L 510.472727 169.804934 
L 510.813636 174.09207 
L 511.154545 180.228846 
L 511.495455 183.83792 
L 511.836364 178.006305 
L 512.177273 175.801282 
L 512.859091 153.895726 
L 513.2 157.755581 
L 513.540909 159.071251 
L 513.881818 156.346898 
L 514.222727 159.680859 
L 514.563636 155.703885 
L 514.904545 158.737725 
L 515.586364 151.666952 
L 515.927273 157.102036 
L 516.268182 159.421267 
L 516.609091 171.432785 
L 516.95 163.424216 
L 517.290909 160.744926 
L 517.631818 162.46045 
L 517.972727 150.790893 
L 518.313636 147.737888 
L 518.654545 141.769649 
L 518.995455 146.348969 
L 519.336364 144.509401 
L 519.677273 141.971906 
L 520.018182 143.359525 
L 520.359091 147.959842 
L 520.7 154.786183 
L 521.040909 151.721898 
L 521.381818 150.535397 
L 521.722727 153.821171 
L 522.063636 150.833142 
L 522.404545 158.822112 
L 522.745455 157.542236 
L 523.086364 157.364682 
L 523.427273 160.785307 
L 523.768182 160.457124 
L 524.109091 163.589528 
L 524.45 163.997072 
L 524.790909 167.005894 
L 525.131818 166.578921 
L 525.472727 170.881159 
L 525.813636 170.393355 
L 526.154545 167.626414 
L 526.495455 167.666666 
L 526.836364 165.769435 
L 527.177273 162.161797 
L 527.518182 162.064155 
L 527.859091 166.35116 
L 528.2 166.595189 
L 528.540909 165.883197 
L 529.222727 167.681407 
L 529.563636 172.248709 
L 530.245455 175.540077 
L 530.586364 172.62516 
L 530.927273 173.474943 
L 531.268182 171.230335 
L 531.609091 172.283671 
L 531.95 169.083942 
L 532.290909 169.642978 
L 532.631818 168.343908 
L 532.972727 164.962255 
L 533.313636 165.079561 
L 533.654545 166.236256 
L 533.995455 168.950736 
L 534.336364 169.121536 
L 534.677273 161.74794 
L 535.018182 161.84117 
L 535.359091 152.590106 
L 535.7 152.503007 
L 536.040909 147.98191 
L 536.381818 152.664964 
L 536.722727 154.915588 
L 537.063636 152.94424 
L 537.404545 155.481001 
L 537.745455 154.223715 
L 538.086364 163.102619 
L 538.768182 159.698747 
L 539.109091 160.407838 
L 539.45 157.12258 
L 539.790909 155.139448 
L 540.131818 155.435702 
L 540.472727 155.337756 
L 540.813636 157.844917 
L 541.154545 164.310587 
L 541.836364 161.406328 
L 542.177273 159.995601 
L 542.859091 154.708063 
L 543.2 155.326102 
L 543.540909 153.803931 
L 543.881818 158.986432 
L 544.222727 156.112999 
L 544.563636 159.812759 
L 545.245455 162.265374 
L 545.586364 164.855688 
L 545.927273 162.901051 
L 547.290909 171.655058 
L 547.631818 169.207067 
L 547.972727 168.70501 
L 548.313636 172.857079 
L 548.654545 172.659517 
L 548.995455 172.649535 
L 549.336364 174.925962 
L 549.677273 176.03269 
L 550.018182 179.8139 
L 550.359091 192.737455 
L 550.7 195.781005 
L 551.040909 192.926116 
L 551.381818 194.825744 
L 551.722727 202.256874 
L 552.063636 204.810381 
L 553.086364 185.411276 
L 553.427273 185.475493 
L 553.768182 178.396791 
L 554.109091 177.919795 
L 554.45 180.427346 
L 554.790909 175.445866 
L 555.131818 172.18926 
L 555.472727 175.221001 
L 555.813636 176.839382 
L 556.154545 173.973295 
L 556.495455 172.397152 
L 556.836364 173.409639 
L 556.836364 173.409639 
" style="fill:none;stroke:#1f77b4;stroke-linecap:square;stroke-width:1.5;"/>
   </g>
   <g id="patch_3">
    <path d="M 24.2 387.72 
L 24.2 7.2 
" style="fill:none;stroke:#000000;stroke-linecap:square;stroke-linejoin:miter;stroke-width:0.8;"/>
   </g>
   <g id="patch_4">
    <path d="M 582.2 387.72 
L 582.2 7.2 
" style="fill:none;stroke:#000000;stroke-linecap:square;stroke-linejoin:miter;stroke-width:0.8;"/>
   </g>
   <g id="patch_5">
    <path d="M 24.2 387.72 
L 582.2 387.72 
" style="fill:none;stroke:#000000;stroke-linecap:square;stroke-linejoin:miter;stroke-width:0.8;"/>
   </g>
   <g id="patch_6">
    <path d="M 24.2 7.2 
L 582.2 7.2 
" style="fill:none;stroke:#000000;stroke-linecap:square;stroke-linejoin:miter;stroke-width:0.8;"/>
   </g>
  </g>
 </g>
 <defs>
  <clipPath id="p6a8671eeae">
   <rect height="380.52" width="558" x="24.2" y="7.2"/>
  </clipPath>
 </defs>
</svg>
