<?xml version="1.0" encoding="utf-8" standalone="no"?>
<!DOCTYPE svg PUBLIC "-//W3C//DTD SVG 1.1//EN"
  "http://www.w3.org/Graphics/SVG/1.1/DTD/svg11.dtd">
<!-- Created with matplotlib (https://matplotlib.org/) -->
<svg height="423.302812pt" version="1.1" viewBox="0 0 594.4 423.302812" width="594.4pt" xmlns="http://www.w3.org/2000/svg" xmlns:xlink="http://www.w3.org/1999/xlink">
 <defs>
  <style type="text/css">
*{stroke-linecap:butt;stroke-linejoin:round;}
  </style>
 </defs>
 <g id="figure_1">
  <g id="patch_1">
   <path d="M 0 423.302812 
L 594.4 423.302812 
L 594.4 0 
L 0 0 
z
" style="fill:none;"/>
  </g>
  <g id="axes_1">
   <g id="patch_2">
    <path d="M 29.2 387.72 
L 587.2 387.72 
L 587.2 7.2 
L 29.2 7.2 
z
" style="fill:#ffffff;"/>
   </g>
   <g id="matplotlib.axis_1">
    <g id="xtick_1">
     <g id="line2d_1">
      <defs>
       <path d="M 0 0 
L 0 3.5 
" id="mde1aaedc64" style="stroke:#000000;stroke-width:0.8;"/>
      </defs>
      <g>
       <use style="stroke:#000000;stroke-width:0.8;" x="36.154545" xlink:href="#mde1aaedc64" y="387.72"/>
      </g>
     </g>
     <g id="text_1">
      <!-- 1990-51 -->
      <defs>
       <path d="M 21.875 56.25 
Q 16.796875 51.171875 8.984375 46.484375 
L 8.984375 53.90625 
Q 18.75 60.546875 25 69.53125 
L 29.6875 69.53125 
L 29.6875 2.34375 
L 21.875 2.34375 
z
" id="SimHei-49"/>
       <path d="M 12.5 1.171875 
Q 21.09375 15.625 26.5625 27.34375 
Q 16.796875 25.78125 10.34375 29.875 
Q 3.90625 33.984375 2.53125 41.015625 
Q 1.171875 48.046875 2.734375 53.703125 
Q 4.296875 59.375 7.609375 63.078125 
Q 10.9375 66.796875 15.625 68.359375 
Q 20.3125 69.921875 24.015625 69.921875 
Q 27.734375 69.921875 31.640625 68.359375 
Q 35.546875 66.796875 38.671875 63.671875 
Q 41.796875 60.546875 42.96875 57.21875 
Q 44.140625 53.90625 44.140625 48.625 
Q 44.140625 43.359375 40.234375 35.15625 
Q 36.328125 26.953125 21.09375 1.171875 
z
M 9.765625 50 
Q 10.9375 39.84375 14.640625 36.515625 
Q 18.359375 33.203125 22.65625 33.59375 
Q 26.953125 33.984375 29.484375 35.9375 
Q 32.03125 37.890625 34.375 42.578125 
Q 35.9375 48.4375 35.15625 52.53125 
Q 34.375 56.640625 31.046875 59.375 
Q 27.734375 62.109375 23.828125 62.109375 
Q 21.484375 62.5 17.765625 60.9375 
Q 14.0625 59.375 11.90625 54.6875 
Q 9.765625 50 10.9375 39.84375 
z
" id="SimHei-57"/>
       <path d="M 3.125 29.296875 
Q 3.90625 50 6.4375 56.046875 
Q 8.984375 62.109375 13.671875 66.015625 
Q 18.359375 69.921875 25.1875 69.921875 
Q 32.03125 69.921875 37.109375 64.25 
Q 42.1875 58.59375 43.75 50 
Q 45.3125 41.40625 44.71875 30.265625 
Q 44.140625 19.140625 40.8125 12.109375 
Q 37.5 5.078125 30.859375 2.34375 
Q 24.21875 -0.390625 17.578125 2.921875 
Q 10.9375 6.25 8.203125 11.71875 
Q 5.46875 17.1875 4.296875 23.234375 
Q 3.125 29.296875 3.90625 50 
z
M 12.890625 52.734375 
Q 10.546875 31.25 12.5 22.84375 
Q 14.453125 14.453125 18.9375 10.9375 
Q 23.4375 7.421875 28.125 9.5625 
Q 32.8125 11.71875 34.953125 18.15625 
Q 37.109375 24.609375 37.109375 32.21875 
Q 37.109375 39.84375 36.515625 46.09375 
Q 35.9375 52.34375 33 57.421875 
Q 30.078125 62.5 25.1875 62.6875 
Q 20.3125 62.890625 16.59375 57.8125 
Q 12.890625 52.734375 10.546875 31.25 
z
" id="SimHei-48"/>
       <path d="M 46.484375 33.203125 
L 1.953125 33.203125 
L 1.953125 39.453125 
L 46.484375 39.453125 
z
" id="SimHei-45"/>
       <path d="M 8.59375 20.703125 
Q 11.328125 10.15625 17.96875 8.984375 
Q 24.609375 7.8125 28.703125 10.34375 
Q 32.8125 12.890625 34.5625 16.984375 
Q 36.328125 21.09375 36.125 26.171875 
Q 35.9375 31.25 33.390625 34.765625 
Q 30.859375 38.28125 26.953125 39.453125 
Q 23.046875 40.625 18.15625 39.453125 
Q 13.28125 38.28125 10.15625 33.984375 
L 3.515625 34.765625 
Q 4.296875 37.109375 10.9375 68.359375 
L 41.796875 68.359375 
L 41.796875 61.328125 
L 16.796875 61.328125 
Q 14.84375 50.78125 12.890625 44.53125 
Q 18.75 47.265625 23.828125 47.0625 
Q 28.90625 46.875 33.59375 44.71875 
Q 38.28125 42.578125 40.421875 38.859375 
Q 42.578125 35.15625 43.546875 31.4375 
Q 44.53125 27.734375 44.328125 23.4375 
Q 44.140625 19.140625 42.578125 14.640625 
Q 41.015625 10.15625 37.890625 7.21875 
Q 34.765625 4.296875 30.265625 2.53125 
Q 25.78125 0.78125 19.921875 1.171875 
Q 14.0625 1.5625 8.78125 5.46875 
Q 3.515625 9.375 1.5625 18.75 
z
" id="SimHei-53"/>
      </defs>
      <g transform="translate(18.654545 401.595)scale(0.1 -0.1)">
       <use xlink:href="#SimHei-49"/>
       <use x="50" xlink:href="#SimHei-57"/>
       <use x="100" xlink:href="#SimHei-57"/>
       <use x="150" xlink:href="#SimHei-48"/>
       <use x="200" xlink:href="#SimHei-45"/>
       <use x="250" xlink:href="#SimHei-53"/>
       <use x="300" xlink:href="#SimHei-49"/>
      </g>
     </g>
    </g>
    <g id="xtick_2">
     <g id="line2d_2">
      <g>
       <use style="stroke:#000000;stroke-width:0.8;" x="104.336364" xlink:href="#mde1aaedc64" y="387.72"/>
      </g>
     </g>
     <g id="text_2">
      <!-- 1994-43 -->
      <defs>
       <path d="M 31.25 17.1875 
L 1.171875 17.1875 
L 1.171875 23.828125 
L 32.8125 69.53125 
L 38.671875 69.53125 
L 38.671875 23.828125 
L 48.046875 23.828125 
L 48.046875 17.1875 
L 38.671875 17.1875 
L 38.671875 2.34375 
L 31.25 2.34375 
z
M 31.25 23.828125 
L 31.25 54.6875 
L 9.375 23.828125 
z
" id="SimHei-52"/>
       <path d="M 3.90625 19.140625 
L 10.9375 20.3125 
Q 12.5 15.234375 16.015625 11.90625 
Q 19.53125 8.59375 24.796875 8.78125 
Q 30.078125 8.984375 33.203125 13.078125 
Q 36.328125 17.1875 35.9375 22.453125 
Q 35.546875 27.734375 31.828125 30.65625 
Q 28.125 33.59375 19.921875 34.765625 
L 19.921875 39.84375 
Q 28.125 40.625 31.828125 44.140625 
Q 35.546875 47.65625 35.15625 53.3125 
Q 34.765625 58.984375 30.078125 61.515625 
Q 25.390625 64.0625 20.109375 62.109375 
Q 14.84375 60.15625 11.71875 51.171875 
L 4.6875 52.34375 
Q 7.03125 59.375 11.125 64.0625 
Q 15.234375 68.75 22.265625 69.53125 
Q 29.296875 70.3125 34.5625 67.765625 
Q 39.84375 65.234375 41.984375 59.953125 
Q 44.140625 54.6875 42.578125 48.4375 
Q 41.015625 42.1875 33.59375 37.5 
Q 39.0625 35.15625 41.984375 30.46875 
Q 44.921875 25.78125 43.9375 18.15625 
Q 42.96875 10.546875 37.109375 5.859375 
Q 31.25 1.171875 23.828125 1.359375 
Q 16.40625 1.5625 10.9375 6.046875 
Q 5.46875 10.546875 3.90625 19.140625 
z
" id="SimHei-51"/>
      </defs>
      <g transform="translate(86.836364 401.595)scale(0.1 -0.1)">
       <use xlink:href="#SimHei-49"/>
       <use x="50" xlink:href="#SimHei-57"/>
       <use x="100" xlink:href="#SimHei-57"/>
       <use x="150" xlink:href="#SimHei-52"/>
       <use x="200" xlink:href="#SimHei-45"/>
       <use x="250" xlink:href="#SimHei-52"/>
       <use x="300" xlink:href="#SimHei-51"/>
      </g>
     </g>
    </g>
    <g id="xtick_3">
     <g id="line2d_3">
      <g>
       <use style="stroke:#000000;stroke-width:0.8;" x="172.518182" xlink:href="#mde1aaedc64" y="387.72"/>
      </g>
     </g>
     <g id="text_3">
      <!-- 1998-42 -->
      <defs>
       <path d="M 2.734375 16.796875 
Q 2.734375 26.171875 5.078125 30.65625 
Q 7.421875 35.15625 12.890625 37.890625 
Q 8.203125 40.625 6.640625 43.9375 
Q 5.078125 47.265625 4.875 51.5625 
Q 4.6875 55.859375 6.046875 58.984375 
Q 7.421875 62.109375 10.15625 64.84375 
Q 12.890625 67.578125 16.203125 68.546875 
Q 19.53125 69.53125 23.4375 69.53125 
Q 27.34375 69.53125 30.46875 68.75 
Q 33.59375 67.96875 37.109375 65.421875 
Q 40.625 62.890625 42.1875 58.203125 
Q 43.75 53.515625 41.984375 47.265625 
Q 40.234375 41.015625 32.8125 37.5 
Q 39.453125 35.546875 42.1875 31.4375 
Q 44.921875 27.34375 44.921875 21.484375 
Q 44.921875 15.625 43.15625 12.109375 
Q 41.40625 8.59375 39.25 6.25 
Q 37.109375 3.90625 33.390625 2.53125 
Q 29.6875 1.171875 24.015625 1.171875 
Q 18.359375 1.171875 14.25 2.53125 
Q 10.15625 3.90625 7.421875 6.640625 
Q 4.6875 9.375 3.703125 13.078125 
Q 2.734375 16.796875 2.734375 26.171875 
z
M 10.9375 26.5625 
Q 10.546875 17.1875 12.296875 13.671875 
Q 14.0625 10.15625 18.75 9.171875 
Q 23.4375 8.203125 28.515625 9.375 
Q 33.59375 10.546875 35.546875 14.84375 
Q 37.5 19.140625 36.90625 23.4375 
Q 36.328125 27.734375 32.03125 30.65625 
Q 27.734375 33.59375 22.65625 33.203125 
Q 17.578125 32.8125 14.25 29.6875 
Q 10.9375 26.5625 10.546875 17.1875 
z
M 12.109375 56.25 
Q 12.109375 48.4375 14.84375 44.921875 
Q 17.578125 41.40625 23.4375 41.40625 
Q 29.296875 41.40625 32.21875 44.921875 
Q 35.15625 48.4375 34.953125 53.3125 
Q 34.765625 58.203125 31.4375 60.546875 
Q 28.125 62.890625 22.453125 62.5 
Q 16.796875 62.109375 14.453125 59.171875 
Q 12.109375 56.25 12.109375 48.4375 
z
" id="SimHei-56"/>
       <path d="M 4.6875 3.90625 
Q 5.078125 9.765625 10.15625 14.453125 
Q 15.234375 19.140625 23.046875 29.09375 
Q 30.859375 39.0625 33.203125 44.53125 
Q 35.546875 50 34.953125 53.90625 
Q 34.375 57.8125 31.25 60.34375 
Q 28.125 62.890625 24.015625 62.5 
Q 19.921875 62.109375 16.203125 59.375 
Q 12.5 56.640625 10.546875 51.171875 
L 3.125 52.34375 
Q 6.25 61.328125 11.125 65.421875 
Q 16.015625 69.53125 22.65625 69.921875 
Q 26.5625 70.3125 29.6875 69.71875 
Q 32.8125 69.140625 36.125 66.984375 
Q 39.453125 64.84375 41.59375 60.546875 
Q 43.75 56.25 43.15625 50.1875 
Q 42.578125 44.140625 37.109375 35.734375 
Q 31.640625 27.34375 16.015625 9.375 
L 44.140625 9.375 
L 44.140625 2.34375 
L 4.6875 2.34375 
z
" id="SimHei-50"/>
      </defs>
      <g transform="translate(155.018182 401.595)scale(0.1 -0.1)">
       <use xlink:href="#SimHei-49"/>
       <use x="50" xlink:href="#SimHei-57"/>
       <use x="100" xlink:href="#SimHei-57"/>
       <use x="150" xlink:href="#SimHei-56"/>
       <use x="200" xlink:href="#SimHei-45"/>
       <use x="250" xlink:href="#SimHei-52"/>
       <use x="300" xlink:href="#SimHei-50"/>
      </g>
     </g>
    </g>
    <g id="xtick_4">
     <g id="line2d_4">
      <g>
       <use style="stroke:#000000;stroke-width:0.8;" x="240.7" xlink:href="#mde1aaedc64" y="387.72"/>
      </g>
     </g>
     <g id="text_4">
      <!-- 2002-45 -->
      <g transform="translate(223.2 401.595)scale(0.1 -0.1)">
       <use xlink:href="#SimHei-50"/>
       <use x="50" xlink:href="#SimHei-48"/>
       <use x="100" xlink:href="#SimHei-48"/>
       <use x="150" xlink:href="#SimHei-50"/>
       <use x="200" xlink:href="#SimHei-45"/>
       <use x="250" xlink:href="#SimHei-52"/>
       <use x="300" xlink:href="#SimHei-53"/>
      </g>
     </g>
    </g>
    <g id="xtick_5">
     <g id="line2d_5">
      <g>
       <use style="stroke:#000000;stroke-width:0.8;" x="308.881818" xlink:href="#mde1aaedc64" y="387.72"/>
      </g>
     </g>
     <g id="text_5">
      <!-- 2006-46 -->
      <defs>
       <path d="M 3.515625 19.53125 
Q 4.296875 30.859375 6.046875 34.765625 
Q 7.8125 38.671875 11.328125 44.53125 
L 27.34375 69.53125 
L 36.328125 69.53125 
L 19.921875 43.75 
Q 30.46875 46.484375 36.71875 42.96875 
Q 42.96875 39.453125 45.109375 34.953125 
Q 47.265625 30.46875 47.453125 25.1875 
Q 47.65625 19.921875 45.890625 14.84375 
Q 44.140625 9.765625 39.640625 5.65625 
Q 35.15625 1.5625 27.140625 1.171875 
Q 19.140625 0.78125 13.46875 4.09375 
Q 7.8125 7.421875 5.65625 13.46875 
Q 3.515625 19.53125 4.296875 30.859375 
z
M 12.5 16.015625 
Q 19.53125 8.59375 25.390625 8.203125 
Q 31.25 7.8125 35.15625 12.109375 
Q 39.0625 16.40625 39.0625 24.609375 
Q 39.0625 32.8125 34.171875 35.9375 
Q 29.296875 39.0625 23.234375 38.28125 
Q 17.1875 37.5 14.453125 32.421875 
Q 11.71875 27.34375 12.109375 21.671875 
Q 12.5 16.015625 19.53125 8.59375 
z
" id="SimHei-54"/>
      </defs>
      <g transform="translate(291.381818 401.595)scale(0.1 -0.1)">
       <use xlink:href="#SimHei-50"/>
       <use x="50" xlink:href="#SimHei-48"/>
       <use x="100" xlink:href="#SimHei-48"/>
       <use x="150" xlink:href="#SimHei-54"/>
       <use x="200" xlink:href="#SimHei-45"/>
       <use x="250" xlink:href="#SimHei-52"/>
       <use x="300" xlink:href="#SimHei-54"/>
      </g>
     </g>
    </g>
    <g id="xtick_6">
     <g id="line2d_6">
      <g>
       <use style="stroke:#000000;stroke-width:0.8;" x="377.063636" xlink:href="#mde1aaedc64" y="387.72"/>
      </g>
     </g>
     <g id="text_6">
      <!-- 2010-42 -->
      <g transform="translate(359.563636 401.595)scale(0.1 -0.1)">
       <use xlink:href="#SimHei-50"/>
       <use x="50" xlink:href="#SimHei-48"/>
       <use x="100" xlink:href="#SimHei-49"/>
       <use x="150" xlink:href="#SimHei-48"/>
       <use x="200" xlink:href="#SimHei-45"/>
       <use x="250" xlink:href="#SimHei-52"/>
       <use x="300" xlink:href="#SimHei-50"/>
      </g>
     </g>
    </g>
    <g id="xtick_7">
     <g id="line2d_7">
      <g>
       <use style="stroke:#000000;stroke-width:0.8;" x="445.245455" xlink:href="#mde1aaedc64" y="387.72"/>
      </g>
     </g>
     <g id="text_7">
      <!-- 2014-38 -->
      <g transform="translate(427.745455 401.595)scale(0.1 -0.1)">
       <use xlink:href="#SimHei-50"/>
       <use x="50" xlink:href="#SimHei-48"/>
       <use x="100" xlink:href="#SimHei-49"/>
       <use x="150" xlink:href="#SimHei-52"/>
       <use x="200" xlink:href="#SimHei-45"/>
       <use x="250" xlink:href="#SimHei-51"/>
       <use x="300" xlink:href="#SimHei-56"/>
      </g>
     </g>
    </g>
    <g id="xtick_8">
     <g id="line2d_8">
      <g>
       <use style="stroke:#000000;stroke-width:0.8;" x="513.427273" xlink:href="#mde1aaedc64" y="387.72"/>
      </g>
     </g>
     <g id="text_8">
      <!-- 2018-32 -->
      <g transform="translate(495.927273 401.595)scale(0.1 -0.1)">
       <use xlink:href="#SimHei-50"/>
       <use x="50" xlink:href="#SimHei-48"/>
       <use x="100" xlink:href="#SimHei-49"/>
       <use x="150" xlink:href="#SimHei-56"/>
       <use x="200" xlink:href="#SimHei-45"/>
       <use x="250" xlink:href="#SimHei-51"/>
       <use x="300" xlink:href="#SimHei-50"/>
      </g>
     </g>
    </g>
    <g id="xtick_9">
     <g id="line2d_9">
      <g>
       <use style="stroke:#000000;stroke-width:0.8;" x="581.609091" xlink:href="#mde1aaedc64" y="387.72"/>
      </g>
     </g>
    </g>
    <g id="text_9">
     <!-- 交易周份 -->
     <defs>
      <path d="M 36.328125 40.625 
Q 43.359375 24.609375 50 17.96875 
Q 60.546875 28.515625 66.015625 42.578125 
Q 69.140625 40.234375 73.828125 37.5 
Q 64.453125 22.65625 55.46875 12.890625 
Q 68.75 2.734375 93.75 0.390625 
Q 89.84375 -5.078125 89.0625 -8.59375 
Q 64.0625 -3.90625 49.21875 8.203125 
Q 32.421875 -4.296875 10.15625 -9.375 
Q 8.984375 -4.6875 5.859375 -0.78125 
Q 29.6875 1.953125 43.359375 13.28125 
Q 34.375 23.828125 28.90625 36.71875 
Q 33.59375 38.671875 36.328125 40.625 
z
M 19.53125 58.203125 
Q 13.671875 58.203125 8.203125 57.8125 
L 8.203125 65.625 
L 19.140625 64.84375 
L 80.078125 64.84375 
Q 86.328125 65.234375 92.96875 65.625 
L 92.96875 57.421875 
Q 86.328125 57.8125 80.078125 58.203125 
z
M 39.453125 51.5625 
Q 33.984375 46.484375 16.015625 31.25 
Q 12.890625 35.15625 8.59375 37.5 
Q 16.015625 41.40625 22.0625 47.265625 
Q 28.125 53.125 31.25 57.421875 
Q 35.15625 54.6875 39.453125 51.5625 
z
M 67.578125 57.421875 
Q 69.53125 55.859375 76.5625 50.578125 
Q 83.59375 45.3125 90.234375 40.625 
Q 85.9375 37.5 82.8125 33.984375 
Q 79.296875 38.671875 60.9375 51.5625 
Q 64.0625 54.6875 67.578125 57.421875 
z
M 50.78125 82.8125 
Q 54.6875 73.828125 56.640625 68.359375 
Q 51.171875 66.796875 47.265625 65.625 
Q 44.921875 72.265625 41.40625 80.078125 
Q 46.09375 81.640625 50.78125 82.8125 
z
" id="SimHei-20132"/>
      <path d="M 81.25 78.125 
Q 80.859375 71.09375 80.859375 65.625 
L 80.859375 56.25 
Q 80.859375 51.953125 81.25 44.53125 
L 40.625 44.53125 
Q 38.671875 41.015625 34.375 36.328125 
L 88.28125 36.328125 
L 87.109375 23.828125 
L 84.375 0.78125 
Q 83.203125 -5.078125 77.140625 -6.828125 
Q 71.09375 -8.59375 65.234375 -8.984375 
Q 63.28125 -3.125 60.9375 -0.390625 
Q 65.234375 -0.78125 70.5 -0.1875 
Q 75.78125 0.390625 76.953125 5.078125 
L 80.078125 30.46875 
L 69.921875 30.46875 
Q 60.9375 10.9375 49.609375 2.734375 
Q 38.28125 -5.46875 23.828125 -9.375 
Q 23.046875 -6.640625 18.359375 -3.515625 
Q 25.390625 -2.34375 33.78125 1.359375 
Q 42.1875 5.078125 49.40625 12.296875 
Q 56.640625 19.53125 61.71875 30.46875 
L 49.609375 30.46875 
Q 40.234375 13.671875 16.796875 4.296875 
Q 14.84375 7.8125 10.546875 9.375 
Q 17.578125 11.328125 26.953125 16.59375 
Q 36.328125 21.875 41.796875 30.46875 
L 28.90625 30.46875 
Q 17.96875 22.265625 11.328125 19.140625 
Q 10.15625 22.265625 5.859375 25 
Q 12.109375 27.34375 19.921875 32.8125 
Q 27.734375 38.28125 31.640625 44.53125 
L 19.140625 44.53125 
Q 19.53125 51.171875 19.53125 57.03125 
L 19.53125 65.625 
Q 19.53125 70.703125 19.140625 78.125 
L 81.25 78.125 
z
M 73.4375 50.390625 
L 73.4375 58.203125 
L 26.953125 58.203125 
L 26.953125 50.390625 
z
M 73.4375 64.453125 
L 73.4375 71.875 
L 26.953125 71.875 
L 26.953125 64.453125 
z
" id="SimHei-26131"/>
      <path d="M 87.5 76.953125 
Q 87.109375 68.75 87.109375 59.375 
L 87.109375 0.78125 
Q 86.71875 -5.859375 83.203125 -7.21875 
Q 79.6875 -8.59375 67.578125 -9.375 
Q 67.1875 -6.25 64.453125 -1.171875 
Q 75 -1.5625 77.53125 -0.578125 
Q 80.078125 0.390625 79.6875 3.515625 
L 79.6875 70.703125 
L 23.4375 70.703125 
Q 23.4375 40.234375 22.65625 29.484375 
Q 21.875 18.75 19.328125 8.59375 
Q 16.796875 -1.5625 12.109375 -9.765625 
Q 9.765625 -7.03125 4.296875 -3.515625 
Q 10.15625 3.515625 12.890625 15.625 
Q 15.625 27.734375 16.015625 40.421875 
Q 16.40625 53.125 15.625 76.953125 
L 87.5 76.953125 
z
M 32.03125 5.078125 
Q 32.421875 9.765625 32.421875 14.84375 
L 32.421875 21.875 
Q 32.421875 25.390625 32.03125 30.078125 
L 68.75 30.078125 
Q 68.359375 26.953125 68.359375 22.65625 
L 68.359375 13.671875 
Q 68.359375 9.375 68.75 5.078125 
z
M 46.875 59.375 
Q 46.875 64.84375 46.484375 68.359375 
L 54.296875 68.359375 
Q 53.90625 63.671875 53.90625 59.375 
Q 64.0625 59.375 69.921875 59.765625 
L 69.921875 52.34375 
Q 64.453125 52.734375 53.90625 52.734375 
L 53.90625 43.75 
Q 65.625 43.75 75.390625 44.140625 
L 75.390625 36.71875 
Q 65.234375 37.109375 58.203125 37.109375 
L 42.96875 37.109375 
Q 36.328125 37.109375 26.953125 36.71875 
L 26.953125 44.140625 
Q 36.328125 43.75 46.875 43.75 
L 46.875 52.734375 
Q 39.0625 52.734375 30.859375 52.34375 
L 30.859375 59.765625 
Q 38.671875 59.375 46.875 59.375 
z
M 60.9375 11.328125 
L 60.9375 23.828125 
L 39.84375 23.828125 
L 39.84375 11.328125 
z
" id="SimHei-21608"/>
      <path d="M 74.21875 79.6875 
Q 76.171875 68.359375 82.03125 57.03125 
Q 87.890625 45.703125 96.875 38.28125 
Q 94.140625 37.109375 90.234375 32.421875 
Q 87.5 35.546875 83.59375 40.234375 
Q 82.8125 35.546875 82.421875 20.5 
Q 82.03125 5.46875 81.046875 0.390625 
Q 80.078125 -4.6875 75.78125 -6.25 
Q 71.484375 -7.8125 63.671875 -8.59375 
Q 62.5 -3.90625 60.546875 0 
Q 68.75 -0.390625 71.484375 0.390625 
Q 74.21875 1.171875 74.609375 9.171875 
Q 75 17.1875 75.390625 35.15625 
L 57.8125 35.15625 
Q 57.421875 20.3125 53.515625 10.15625 
Q 49.609375 0 37.109375 -9.765625 
Q 33.984375 -5.46875 31.25 -3.515625 
Q 42.96875 3.515625 46.671875 12.5 
Q 50.390625 21.484375 50.390625 35.15625 
Q 46.875 35.15625 41.796875 34.765625 
L 41.796875 40.234375 
Q 38.671875 35.9375 33.59375 30.46875 
Q 31.25 33.59375 27.34375 35.9375 
Q 44.921875 51.171875 50.390625 76.171875 
Q 53.90625 74.609375 58.59375 73.046875 
Q 56.640625 68.75 53.515625 60.734375 
Q 50.390625 52.734375 43.359375 42.1875 
Q 47.65625 41.796875 53.125 41.796875 
L 82.8125 41.796875 
Q 71.484375 56.640625 66.796875 77.734375 
Q 71.484375 78.515625 74.21875 79.6875 
z
M 3.515625 39.453125 
Q 8.984375 44.921875 16.015625 57.609375 
Q 23.046875 70.3125 25.78125 81.640625 
Q 30.859375 79.296875 34.375 77.734375 
Q 32.03125 74.21875 25 58.984375 
L 25 9.765625 
Q 25 1.171875 25.390625 -8.984375 
L 17.1875 -8.984375 
Q 17.578125 0.78125 17.578125 9.765625 
L 17.578125 45.703125 
Q 12.109375 37.5 8.984375 33.984375 
Q 6.640625 36.71875 3.515625 39.453125 
z
" id="SimHei-20221"/>
     </defs>
     <g transform="translate(288.2 414.852812)scale(0.1 -0.1)">
      <use xlink:href="#SimHei-20132"/>
      <use x="100" xlink:href="#SimHei-26131"/>
      <use x="200" xlink:href="#SimHei-21608"/>
      <use x="300" xlink:href="#SimHei-20221"/>
     </g>
    </g>
   </g>
   <g id="matplotlib.axis_2">
    <g id="ytick_1">
     <g id="line2d_10">
      <defs>
       <path d="M 0 0 
L -3.5 0 
" id="mc596c7dec2" style="stroke:#000000;stroke-width:0.8;"/>
      </defs>
      <g>
       <use style="stroke:#000000;stroke-width:0.8;" x="29.2" xlink:href="#mc596c7dec2" y="373.64362"/>
      </g>
     </g>
     <g id="text_10">
      <!-- 1.0 -->
      <defs>
       <path d="M 16.796875 1.953125 
L 7.8125 1.953125 
L 7.8125 10.546875 
L 16.796875 10.546875 
z
" id="SimHei-46"/>
      </defs>
      <g transform="translate(7.2 377.08112)scale(0.1 -0.1)">
       <use xlink:href="#SimHei-49"/>
       <use x="50" xlink:href="#SimHei-46"/>
       <use x="100" xlink:href="#SimHei-48"/>
      </g>
     </g>
    </g>
    <g id="ytick_2">
     <g id="line2d_11">
      <g>
       <use style="stroke:#000000;stroke-width:0.8;" x="29.2" xlink:href="#mc596c7dec2" y="316.385211"/>
      </g>
     </g>
     <g id="text_11">
      <!-- 1.5 -->
      <g transform="translate(7.2 319.822711)scale(0.1 -0.1)">
       <use xlink:href="#SimHei-49"/>
       <use x="50" xlink:href="#SimHei-46"/>
       <use x="100" xlink:href="#SimHei-53"/>
      </g>
     </g>
    </g>
    <g id="ytick_3">
     <g id="line2d_12">
      <g>
       <use style="stroke:#000000;stroke-width:0.8;" x="29.2" xlink:href="#mc596c7dec2" y="259.126801"/>
      </g>
     </g>
     <g id="text_12">
      <!-- 2.0 -->
      <g transform="translate(7.2 262.564301)scale(0.1 -0.1)">
       <use xlink:href="#SimHei-50"/>
       <use x="50" xlink:href="#SimHei-46"/>
       <use x="100" xlink:href="#SimHei-48"/>
      </g>
     </g>
    </g>
    <g id="ytick_4">
     <g id="line2d_13">
      <g>
       <use style="stroke:#000000;stroke-width:0.8;" x="29.2" xlink:href="#mc596c7dec2" y="201.868391"/>
      </g>
     </g>
     <g id="text_13">
      <!-- 2.5 -->
      <g transform="translate(7.2 205.305891)scale(0.1 -0.1)">
       <use xlink:href="#SimHei-50"/>
       <use x="50" xlink:href="#SimHei-46"/>
       <use x="100" xlink:href="#SimHei-53"/>
      </g>
     </g>
    </g>
    <g id="ytick_5">
     <g id="line2d_14">
      <g>
       <use style="stroke:#000000;stroke-width:0.8;" x="29.2" xlink:href="#mc596c7dec2" y="144.609982"/>
      </g>
     </g>
     <g id="text_14">
      <!-- 3.0 -->
      <g transform="translate(7.2 148.047482)scale(0.1 -0.1)">
       <use xlink:href="#SimHei-51"/>
       <use x="50" xlink:href="#SimHei-46"/>
       <use x="100" xlink:href="#SimHei-48"/>
      </g>
     </g>
    </g>
    <g id="ytick_6">
     <g id="line2d_15">
      <g>
       <use style="stroke:#000000;stroke-width:0.8;" x="29.2" xlink:href="#mc596c7dec2" y="87.351572"/>
      </g>
     </g>
     <g id="text_15">
      <!-- 3.5 -->
      <g transform="translate(7.2 90.789072)scale(0.1 -0.1)">
       <use xlink:href="#SimHei-51"/>
       <use x="50" xlink:href="#SimHei-46"/>
       <use x="100" xlink:href="#SimHei-53"/>
      </g>
     </g>
    </g>
    <g id="ytick_7">
     <g id="line2d_16">
      <g>
       <use style="stroke:#000000;stroke-width:0.8;" x="29.2" xlink:href="#mc596c7dec2" y="30.093162"/>
      </g>
     </g>
     <g id="text_16">
      <!-- 4.0 -->
      <g transform="translate(7.2 33.530662)scale(0.1 -0.1)">
       <use xlink:href="#SimHei-52"/>
       <use x="50" xlink:href="#SimHei-46"/>
       <use x="100" xlink:href="#SimHei-48"/>
      </g>
     </g>
    </g>
   </g>
   <g id="line2d_17">
    <path clip-path="url(#pe515ee1ae1)" d="M 54.563636 370.423636 
L 54.904545 365.858039 
L 55.245455 363.039702 
L 55.586364 361.454798 
M 56.268182 360.792761 
L 56.609091 359.271481 
L 56.95 305.437012 
L 57.631818 298.742026 
L 57.972727 295.516419 
L 58.654545 284.858942 
L 58.995455 280.420667 
L 59.336364 278.263498 
L 59.677273 262.725457 
L 60.018182 280.419172 
M 60.7 289.775423 
L 61.040909 265.843445 
L 61.381818 212.225922 
L 61.722727 197.846698 
L 62.404545 323.55989 
L 62.745455 321.867138 
L 63.086364 320.89665 
L 63.768182 332.150384 
L 64.109091 329.888706 
L 64.45 332.656721 
L 64.790909 334.32823 
L 65.131818 334.22947 
L 65.472727 332.82762 
L 65.813636 330.707793 
L 66.154545 332.376792 
L 66.836364 328.131059 
L 67.177273 327.394444 
L 67.518182 328.699864 
L 67.859091 328.508033 
L 68.2 330.679944 
L 68.540909 329.466399 
L 68.881818 323.705488 
L 69.222727 323.569155 
L 69.563636 324.059637 
L 69.904545 323.780174 
L 70.245455 322.388201 
L 70.586364 328.053633 
L 70.927273 324.775447 
L 71.268182 324.971672 
L 71.609091 321.575387 
L 71.95 324.869607 
L 72.290909 317.99294 
L 72.631818 319.715716 
L 72.972727 317.368607 
L 73.313636 316.288861 
L 73.654545 296.901231 
L 73.995455 302.397638 
L 74.336364 295.661136 
L 75.018182 293.697119 
L 75.359091 292.006844 
L 75.7 306.135984 
L 76.381818 312.310201 
L 76.722727 312.330951 
L 77.063636 313.731081 
L 77.745455 309.675519 
L 78.086364 306.541324 
L 78.427273 302.135789 
L 78.768182 306.734319 
L 79.109091 304.715227 
L 79.790909 297.956945 
L 80.131818 299.946854 
L 80.472727 296.597594 
L 80.813636 278.460807 
L 81.154545 283.336113 
L 81.495455 284.754112 
L 81.836364 277.781343 
L 82.177273 278.492214 
L 82.518182 281.7492 
L 82.859091 282.672271 
L 83.2 293.690753 
L 83.540909 272.562399 
L 83.881818 275.377247 
L 84.222727 276.327749 
L 84.563636 274.753621 
L 84.904545 275.137753 
L 85.245455 274.509336 
L 85.586364 277.74615 
L 85.927273 283.042909 
L 86.268182 283.262795 
L 86.609091 286.762652 
L 86.95 297.340668 
L 87.290909 300.996584 
L 87.631818 310.488224 
L 88.313636 289.431766 
L 88.654545 301.029173 
L 88.995455 306.34707 
L 89.677273 325.727842 
L 90.018182 332.140681 
L 90.359091 326.193364 
L 90.7 327.70808 
L 91.040909 332.461802 
L 91.381818 326.055738 
L 91.722727 332.337781 
L 92.063636 325.78949 
L 92.404545 327.268527 
L 93.086364 336.460737 
L 93.427273 330.181735 
L 93.768182 328.00542 
L 94.45 331.254665 
L 94.790909 326.078971 
L 95.131818 323.493934 
L 95.472727 339.504294 
L 95.813636 347.734047 
L 96.495455 351.87348 
L 97.177273 347.884433 
L 97.518182 354.186753 
L 97.859091 352.799322 
L 98.2 355.490978 
L 98.540909 353.183856 
L 98.881818 351.846373 
L 99.222727 351.284895 
L 99.904545 350.690923 
L 100.245455 356.01608 
L 100.586364 357.851697 
L 101.268182 356.254762 
L 101.609091 355.731228 
L 101.95 349.558438 
L 102.290909 347.16589 
L 102.631818 349.084544 
L 102.972727 345.263434 
L 103.313636 344.11497 
L 103.654545 344.852915 
L 103.995455 342.584357 
L 104.336364 343.463491 
L 104.677273 343.754477 
L 105.018182 340.249888 
L 105.359091 342.359241 
L 105.7 342.727097 
L 106.040909 342.840972 
L 106.722727 344.085574 
L 107.063636 341.58285 
L 107.745455 346.151271 
L 108.086364 346.000883 
L 109.45 348.821956 
L 110.472727 344.969637 
L 111.495455 343.795388 
L 111.836364 342.80822 
L 112.177273 343.135844 
L 112.859091 341.747421 
L 113.2 341.229119 
L 113.540909 339.936123 
L 113.881818 335.482279 
L 114.222727 338.487443 
L 114.563636 339.934033 
L 114.904545 340.847107 
L 115.245455 340.816613 
L 115.586364 341.038071 
L 115.927273 342.047625 
L 116.268182 344.369796 
L 116.609091 342.697798 
L 117.290909 335.583872 
L 117.631818 335.069078 
L 117.972727 325.724688 
L 118.313636 321.172101 
L 118.654545 325.361004 
L 120.359091 312.942149 
L 120.7 312.319424 
L 121.040909 309.419629 
L 121.722727 305.409397 
L 122.404545 305.376501 
L 123.086364 309.906794 
L 123.427273 313.238711 
L 123.768182 311.280637 
L 124.109091 314.157764 
L 124.45 314.383968 
L 124.790909 312.962476 
L 125.131818 312.7843 
L 125.472727 307.910422 
L 125.813636 306.889846 
L 126.154545 304.92596 
L 126.836364 305.73972 
L 127.177273 308.95069 
L 127.518182 309.652296 
L 127.859091 309.446476 
L 128.2 307.651294 
L 128.540909 307.992276 
L 128.881818 312.058672 
L 129.222727 312.211176 
L 129.563636 312.988344 
L 129.904545 313.299099 
L 130.245455 310.929028 
L 130.586364 305.84993 
L 130.927273 302.846547 
L 131.609091 306.389749 
L 131.95 305.88788 
L 132.290909 302.616635 
L 132.631818 306.685239 
L 132.972727 303.478573 
L 133.313636 306.819837 
L 133.654545 298.333097 
L 133.995455 281.790403 
L 134.336364 283.026353 
L 135.018182 279.220277 
L 135.359091 279.453036 
L 135.7 282.383288 
L 136.040909 274.398106 
L 136.381818 273.69611 
L 136.722727 271.886032 
L 137.063636 272.22861 
L 137.404545 272.804932 
L 137.745455 270.565666 
L 138.086364 269.384996 
L 138.427273 268.635034 
L 139.109091 260.715973 
L 139.45 263.269037 
L 139.790909 253.677869 
L 140.131818 252.071663 
L 140.472727 253.502833 
L 140.813636 252.296459 
L 141.154545 249.786866 
L 141.836364 263.567094 
L 142.177273 262.537783 
L 142.518182 269.222982 
L 143.2 262.090661 
L 143.540909 261.603254 
L 143.881818 260.871928 
L 144.222727 259.495696 
L 144.563636 263.140154 
L 144.904545 262.176393 
L 145.245455 269.41421 
L 145.927273 263.879688 
L 146.268182 267.432295 
L 146.609091 266.914467 
L 146.95 267.189697 
L 147.631818 276.045835 
L 147.972727 271.112686 
L 148.313636 271.168033 
L 148.654545 265.785971 
L 148.995455 262.95203 
L 149.336364 262.689663 
L 149.677273 261.07687 
L 150.018182 264.116611 
L 150.359091 266.020759 
L 150.7 264.924722 
L 151.040909 266.2782 
L 151.381818 264.617412 
L 152.063636 255.57596 
L 153.427273 249.676098 
L 153.768182 252.054502 
L 154.109091 251.058371 
L 155.131818 253.421836 
L 155.813636 260.2806 
L 156.154545 256.900915 
L 156.495455 260.842733 
L 156.836364 260.645421 
L 157.177273 259.722165 
L 157.518182 259.668939 
L 157.859091 263.530903 
L 158.2 265.639949 
L 158.540909 264.183553 
L 158.881818 265.687782 
L 159.222727 265.603464 
L 159.904545 271.670849 
L 160.245455 270.373644 
L 160.586364 266.416458 
L 160.927273 266.858837 
L 161.609091 263.308676 
L 161.95 265.73685 
L 162.290909 265.203478 
L 162.631818 261.26316 
L 162.972727 259.172982 
L 163.313636 258.308555 
L 163.654545 256.412736 
L 163.995455 258.64099 
L 164.336364 258.464949 
L 164.677273 254.04377 
L 165.018182 257.223309 
L 165.359091 256.061464 
L 165.7 253.599358 
L 166.381818 255.134197 
L 166.722727 253.026941 
L 167.063636 252.807796 
L 167.404545 251.75224 
L 167.745455 253.085582 
L 168.086364 252.381533 
L 168.427273 253.725001 
L 168.768182 251.168248 
L 169.109091 250.616056 
L 169.45 250.899447 
L 169.790909 253.975773 
L 170.131818 253.424971 
L 170.472727 251.658351 
L 170.813636 252.726631 
L 171.154545 249.849866 
L 171.495455 248.097091 
L 171.836364 247.243666 
L 172.177273 245.379452 
L 172.518182 249.499688 
L 172.859091 251.373414 
L 173.2 254.881887 
L 173.540909 256.719422 
L 173.881818 256.575003 
L 174.222727 259.323691 
L 174.904545 256.434289 
L 175.927273 254.857011 
L 176.268182 254.991393 
L 176.609091 255.548667 
L 176.95 259.016676 
L 177.290909 258.37347 
L 177.631818 256.013558 
L 177.972727 255.975021 
L 178.313636 255.481627 
L 178.654545 247.928408 
L 178.995455 245.811003 
L 179.336364 248.67945 
L 179.677273 247.661177 
L 180.018182 242.934405 
L 180.359091 236.097258 
L 180.7 238.632257 
L 181.040909 233.358729 
L 181.381818 236.824541 
L 181.722727 232.915012 
L 182.063636 233.559506 
L 182.404545 237.319198 
L 182.745455 239.078348 
L 183.086364 243.269403 
L 183.427273 239.409676 
L 184.45 258.874127 
L 185.131818 252.503322 
L 185.472727 253.458676 
L 185.813636 252.201848 
L 186.154545 248.749302 
L 186.495455 248.647074 
L 187.177273 245.997478 
L 187.518182 248.020265 
L 187.859091 248.231108 
L 188.2 246.571517 
L 189.222727 251.460103 
L 189.563636 250.178134 
L 189.904545 251.79451 
L 190.245455 250.084875 
L 190.586364 249.567775 
L 190.927273 250.498525 
L 191.268182 247.653236 
L 191.609091 248.217707 
L 191.95 247.518514 
L 192.290909 250.92095 
L 192.631818 252.295516 
L 192.972727 255.250195 
L 193.654545 256.411481 
L 193.995455 258.780187 
L 194.336364 264.616538 
L 195.018182 280.050275 
L 195.359091 277.681773 
L 195.7 276.728726 
L 196.040909 274.815057 
L 196.381818 274.435729 
L 196.722727 275.876875 
L 197.404545 270.419699 
L 197.745455 265.451726 
L 198.086364 264.200549 
L 198.427273 266.981683 
L 198.768182 267.707149 
L 199.109091 266.636628 
L 199.45 263.463964 
L 199.790909 256.829351 
L 200.131818 260.447832 
L 200.472727 258.577173 
L 200.813636 259.205313 
L 201.836364 247.167009 
L 202.177273 245.831906 
L 202.518182 247.81488 
L 203.2 253.976695 
L 203.540909 250.677514 
L 203.881818 251.148205 
L 204.563636 258.111772 
L 204.904545 256.133353 
L 205.586364 261.352888 
L 205.927273 259.751173 
L 206.268182 261.576163 
L 206.95 257.431628 
L 207.290909 256.561318 
L 207.631818 254.26895 
L 207.972727 255.167795 
L 208.313636 252.554084 
L 208.654545 251.49197 
L 208.995455 254.250815 
L 209.336364 252.548187 
L 210.018182 246.522233 
L 210.359091 243.047234 
L 210.7 243.016594 
L 211.040909 237.602102 
L 211.381818 236.638204 
L 211.722727 236.253878 
L 212.063636 236.654662 
L 212.404545 239.297233 
L 212.745455 238.79428 
L 213.427273 235.425135 
L 213.768182 236.415605 
L 214.109091 236.186014 
L 214.45 239.487383 
L 214.790909 240.59348 
L 215.131818 241.278251 
L 215.472727 239.979403 
L 215.813636 242.273341 
L 216.154545 241.068986 
L 216.495455 240.494251 
L 216.836364 239.042927 
L 217.177273 239.468171 
L 217.518182 238.305783 
L 217.859091 238.65533 
L 218.2 240.683058 
L 218.540909 240.437808 
L 218.881818 238.55685 
L 219.222727 237.657278 
L 219.563636 238.120208 
L 219.904545 237.929928 
L 220.927273 243.59843 
L 221.268182 243.822693 
L 221.609091 238.613413 
L 221.95 238.081378 
L 222.290909 236.41085 
L 222.972727 239.030788 
L 223.313636 232.615201 
L 223.654545 229.094044 
L 223.995455 228.884459 
L 224.336364 226.190581 
L 224.677273 225.221031 
L 225.018182 226.954327 
L 225.359091 225.860919 
L 225.7 225.846755 
L 226.040909 224.746611 
L 226.381818 221.831937 
L 226.722727 221.932875 
L 227.063636 220.658178 
L 227.404545 216.827545 
L 227.745455 215.655116 
L 228.086364 215.720517 
L 228.427273 219.803847 
L 228.768182 221.04607 
L 229.45 224.724628 
L 230.131818 223.435679 
L 230.472727 221.799416 
L 231.495455 218.453353 
L 231.836364 218.64053 
L 232.518182 220.843409 
L 232.859091 220.785134 
L 233.2 222.257837 
L 233.881818 220.630698 
L 234.222727 218.832363 
L 234.563636 214.108079 
L 234.904545 214.659747 
L 235.245455 216.363109 
L 235.586364 216.043204 
L 236.268182 218.802219 
L 236.609091 218.29394 
L 236.95 217.112465 
L 237.290909 216.408011 
L 237.631818 217.266749 
L 237.972727 218.998572 
L 238.313636 218.514081 
L 238.654545 217.541197 
L 238.995455 215.90368 
L 239.336364 218.11631 
L 239.677273 218.382574 
L 240.018182 218.07152 
L 240.359091 215.938898 
L 240.7 214.730779 
L 241.040909 212.089722 
L 241.381818 210.98323 
L 241.722727 213.370003 
L 243.086364 217.279203 
L 243.427273 221.077229 
L 243.768182 219.56073 
L 244.109091 220.291859 
L 244.45 217.392985 
L 244.790909 216.722835 
L 245.472727 217.672585 
L 245.813636 216.802425 
L 246.154545 216.482223 
L 246.495455 215.543846 
L 246.836364 213.58864 
L 247.177273 212.833293 
L 247.518182 210.084978 
L 247.859091 198.17 
L 248.2 202.172448 
L 248.540909 203.445381 
L 249.222727 188.295759 
L 249.563636 188.068461 
L 249.904545 192.092695 
L 250.245455 191.759915 
L 250.586364 190.068357 
L 250.927273 191.450908 
L 251.268182 189.563242 
L 251.609091 185.82152 
L 251.95 184.152912 
L 252.972727 187.669224 
L 253.313636 190.525093 
L 253.995455 193.058269 
L 254.336364 194.516369 
L 255.018182 195.023279 
L 255.359091 197.756783 
L 255.7 196.458098 
L 256.381818 190.686824 
L 256.722727 190.037142 
L 257.745455 166.5567 
L 258.086364 161.738754 
L 258.427273 165.305238 
L 258.768182 162.540306 
L 259.109091 158.588254 
L 259.45 156.661246 
L 259.790909 146.019458 
L 260.472727 133.776853 
L 260.813636 129.85489 
L 261.154545 131.781857 
L 261.836364 147.926146 
L 262.177273 154.297033 
L 262.518182 153.24336 
L 262.859091 148.559545 
L 263.2 149.220069 
L 263.540909 142.742579 
L 263.881818 140.162653 
L 264.222727 140.42226 
L 264.563636 139.010095 
L 264.904545 141.709376 
L 265.245455 131.714263 
L 265.927273 119.163624 
L 266.268182 117.234877 
L 266.609091 117.661813 
L 266.95 115.305071 
L 267.290909 117.404247 
L 267.631818 114.899418 
L 267.972727 115.960226 
L 268.654545 110.408436 
L 268.995455 110.741613 
L 269.336364 109.80033 
L 269.677273 113.0652 
L 270.018182 111.546064 
L 270.359091 105.600076 
L 270.7 104.036552 
L 271.381818 97.916721 
L 272.404545 102.251331 
L 272.745455 106.102318 
L 273.086364 103.149391 
L 273.427273 106.972166 
L 273.768182 105.611705 
L 274.109091 101.162663 
L 274.45 99.326359 
L 274.790909 95.840461 
L 275.131818 98.660849 
L 275.472727 99.455039 
L 275.813636 100.577232 
L 276.154545 103.499609 
L 276.836364 96.908177 
L 277.177273 98.622644 
L 277.518182 97.566608 
L 277.859091 98.990713 
L 278.2 98.830764 
L 278.881818 99.118428 
L 279.222727 93.956229 
L 279.563636 96.097941 
L 279.904545 101.042241 
L 280.245455 98.999805 
L 280.586364 102.378498 
L 281.268182 97.892926 
L 281.609091 94.95187 
L 281.95 100.241312 
L 282.972727 87.68923 
L 283.313636 86.429348 
L 283.654545 88.192546 
L 283.995455 92.640989 
L 284.336364 87.410639 
L 284.677273 86.365083 
L 285.018182 75.627102 
L 285.7 72.99508 
L 286.040909 65.82642 
L 286.381818 62.075671 
L 286.722727 61.896716 
L 287.063636 64.320451 
L 287.404545 64.616716 
L 287.745455 68.781421 
L 288.086364 68.615766 
L 288.427273 70.951371 
L 288.768182 69.194087 
L 289.109091 71.903961 
L 289.45 77.136721 
L 289.790909 78.381712 
L 290.131818 75.568172 
L 290.472727 76.877327 
L 290.813636 80.031046 
L 291.154545 78.040599 
L 291.495455 75.302228 
L 291.836364 77.360327 
L 292.177273 74.385312 
L 292.518182 74.888877 
L 292.859091 68.703441 
L 293.2 65.526893 
L 293.540909 65.594092 
L 293.881818 67.566209 
L 294.222727 67.261278 
L 294.563636 70.600271 
L 294.904545 71.255006 
L 295.245455 68.005228 
L 295.586364 68.483785 
L 295.927273 67.943661 
L 296.609091 64.542359 
L 297.290909 64.010554 
L 297.631818 61.419422 
L 297.972727 60.489126 
L 298.313636 68.105525 
L 298.654545 65.554111 
L 298.995455 64.769754 
L 299.336364 55.894638 
L 299.677273 57.148642 
L 300.359091 53.121821 
L 300.7 57.465681 
L 301.040909 64.858126 
L 301.381818 69.384921 
L 301.722727 70.261418 
L 302.063636 68.407618 
L 302.404545 65.219596 
L 303.086364 74.745042 
L 303.768182 71.165004 
L 304.109091 66.436276 
L 304.45 67.042293 
L 304.790909 69.318437 
L 305.131818 74.174072 
L 305.472727 73.994816 
L 305.813636 73.024426 
L 306.154545 70.989429 
L 306.495455 81.043668 
L 306.836364 84.005442 
L 307.177273 78.137516 
L 307.518182 81.325444 
L 307.859091 75.637484 
L 308.2 67.598237 
L 308.540909 69.452916 
L 308.881818 68.103422 
L 309.222727 66.17326 
L 309.563636 71.823246 
L 309.904545 68.437176 
L 310.245455 68.065301 
L 310.586364 78.640776 
L 310.927273 69.143605 
L 311.268182 55.026509 
L 311.95 80.873803 
L 312.290909 76.071079 
L 312.631818 76.532207 
L 312.972727 82.222968 
L 313.313636 76.338904 
L 313.654545 61.48203 
L 314.336364 72.140988 
L 314.677273 63.352993 
L 315.359091 56.394139 
L 315.7 50.430151 
L 316.040909 50.998325 
L 316.381818 41.386879 
L 316.722727 41.500359 
L 317.063636 33.872298 
L 317.404545 46.066755 
L 317.745455 44.182109 
L 318.086364 56.225466 
L 318.427273 62.365853 
L 319.109091 78.716128 
L 319.45 95.50007 
L 319.790909 91.256196 
L 320.131818 96.94185 
L 320.472727 105.70632 
L 320.813636 90.162619 
L 321.154545 99.331295 
L 321.495455 93.199848 
L 321.836364 90.928035 
L 322.177273 98.162432 
L 323.540909 65.672305 
L 323.881818 71.737967 
L 324.222727 72.34636 
L 324.563636 70.983738 
L 324.904545 84.442692 
L 325.245455 84.457226 
L 325.586364 85.38534 
L 325.927273 77.190881 
L 326.268182 75.377272 
L 326.609091 79.644212 
L 326.95 75.593773 
L 327.290909 76.977522 
L 327.631818 71.537983 
L 327.972727 76.337057 
L 328.313636 73.638378 
L 328.654545 79.09639 
L 328.995455 77.530902 
L 329.336364 84.992041 
L 329.677273 89.806275 
L 330.359091 76.655835 
L 330.7 78.363579 
L 331.040909 74.684423 
L 331.381818 80.447038 
L 331.722727 81.911544 
L 332.063636 81.388702 
L 332.404545 89.55139 
L 332.745455 86.463765 
L 333.427273 97.969617 
L 333.768182 97.868167 
L 334.109091 95.558027 
L 334.45 95.220782 
L 334.790909 90.909055 
L 335.131818 75.577932 
L 335.813636 77.05613 
L 336.154545 78.669714 
L 336.495455 67.133541 
L 336.836364 82.306509 
L 337.177273 79.313742 
L 337.518182 83.535902 
L 337.859091 77.626765 
L 338.2 84.428076 
L 338.881818 78.643515 
L 339.222727 71.871743 
L 339.563636 69.910607 
L 339.904545 65.57252 
L 340.586364 50.215649 
L 340.927273 45.157825 
L 341.268182 48.222517 
L 341.609091 36.817566 
L 341.95 33.838252 
L 342.290909 37.689087 
L 342.972727 24.496364 
L 343.313636 39.632677 
L 343.654545 40.849085 
L 343.995455 42.607466 
L 344.336364 50.630984 
L 344.677273 61.704854 
L 345.018182 66.283708 
L 345.359091 67.802464 
L 345.7 65.076442 
L 346.381818 71.052867 
L 346.722727 72.431825 
L 347.404545 84.322534 
L 347.745455 85.789677 
L 348.086364 79.071695 
L 348.427273 82.003634 
L 348.768182 82.155131 
L 349.45 94.296002 
L 349.790909 95.772994 
L 350.131818 100.166948 
L 350.813636 92.238204 
L 351.154545 91.620566 
L 351.495455 92.333941 
L 351.836364 94.034016 
L 352.177273 93.278081 
L 352.518182 92.22335 
L 352.859091 99.801586 
L 353.2 103.200115 
L 353.540909 100.814131 
L 353.881818 94.860618 
L 354.222727 97.473702 
L 354.563636 100.98871 
L 354.904545 102.740275 
L 355.586364 89.778367 
L 355.927273 97.038084 
L 356.268182 95.369165 
L 356.609091 95.119742 
L 356.95 99.153126 
L 357.290909 101.807712 
L 357.631818 101.060892 
L 357.972727 104.670208 
L 358.313636 107.005664 
L 358.654545 108.51275 
L 358.995455 108.225736 
L 359.336364 108.305522 
L 359.677273 105.837985 
L 360.018182 109.218098 
L 360.359091 110.494754 
L 360.7 114.93648 
L 361.040909 109.467257 
L 361.381818 107.335971 
L 361.722727 103.491548 
L 362.063636 105.143316 
L 362.404545 100.272871 
L 362.745455 101.706503 
L 363.086364 100.814181 
L 363.427273 102.775703 
L 364.109091 105.107221 
L 365.131818 117.844846 
L 365.472727 116.101401 
L 365.813636 117.63726 
L 366.154545 116.364513 
L 366.495455 117.197708 
L 366.836364 117.224417 
L 367.177273 118.005608 
L 367.859091 121.500521 
L 368.2 131.112878 
L 368.540909 125.174106 
L 368.881818 128.171647 
L 369.222727 123.684746 
L 369.563636 122.779024 
L 370.245455 131.53676 
L 370.586364 132.111637 
L 370.927273 128.011379 
L 371.268182 128.249078 
L 371.609091 114.890967 
L 371.95 121.826314 
L 372.631818 131.062724 
L 372.972727 132.87428 
L 373.313636 141.137526 
L 373.654545 145.260158 
L 373.995455 143.619723 
L 375.018182 165.571821 
L 375.359091 169.019003 
L 375.7 168.284659 
L 376.040909 171.648153 
L 376.381818 172.816083 
L 376.722727 157.394167 
L 377.063636 164.589657 
L 377.404545 167.826983 
L 377.745455 168.061787 
L 378.086364 172.281007 
L 378.427273 172.965202 
L 378.768182 179.478397 
L 379.45 172.251425 
L 379.790909 175.452847 
L 380.131818 170.820084 
L 380.472727 174.221338 
L 381.495455 161.686433 
L 381.836364 160.230032 
L 382.177273 161.581433 
L 382.518182 164.762313 
L 382.859091 165.374505 
L 383.2 169.165949 
L 383.540909 167.374157 
L 384.222727 172.948077 
L 384.904545 167.386815 
L 385.245455 166.264107 
L 385.586364 163.971884 
L 385.927273 166.756015 
L 386.268182 165.696666 
L 386.609091 169.281173 
L 386.95 168.933276 
L 387.290909 169.376044 
L 387.631818 167.010345 
L 387.972727 171.23668 
L 388.313636 171.732349 
L 388.654545 171.251378 
L 388.995455 168.576032 
L 390.018182 185.304822 
L 390.359091 188.459366 
L 390.7 188.049675 
L 391.381818 194.802518 
L 391.722727 193.549293 
L 392.063636 191.738612 
L 392.404545 192.35102 
L 392.745455 188.650148 
L 393.427273 187.423309 
L 393.768182 181.080462 
L 394.109091 177.005818 
L 394.45 169.779874 
L 395.131818 177.916086 
L 395.813636 178.806193 
L 396.154545 180.37895 
L 396.495455 178.525182 
L 397.177273 158.216328 
L 397.859091 153.511574 
L 398.2 143.983117 
L 398.540909 152.710765 
L 398.881818 151.165349 
L 399.904545 165.442622 
L 400.245455 166.561162 
L 400.586364 165.865222 
L 400.927273 170.220075 
L 401.268182 173.030667 
L 401.609091 170.23326 
L 401.95 162.121348 
L 402.290909 168.27501 
L 402.631818 170.128426 
L 402.972727 169.598267 
L 403.313636 168.13543 
L 403.995455 174.621893 
L 404.336364 172.622144 
L 404.677273 172.650227 
L 405.018182 175.800596 
L 405.359091 175.265211 
L 405.7 176.760538 
L 406.040909 175.2708 
L 406.381818 172.24328 
L 407.063636 180.64356 
L 407.745455 176.017232 
L 408.086364 170.720162 
L 408.427273 175.750638 
L 408.768182 174.309804 
L 409.109091 180.035067 
L 409.45 175.158059 
L 409.790909 178.822691 
L 410.131818 180.408665 
L 410.472727 180.427746 
L 411.154545 180.802153 
L 411.495455 181.94153 
L 411.836364 178.289258 
L 412.518182 174.488623 
L 412.859091 172.060803 
L 413.2 168.548936 
L 413.881818 153.756946 
L 414.222727 153.725512 
L 414.563636 157.31032 
L 414.904545 157.128353 
L 415.245455 152.766674 
L 415.586364 160.836583 
L 415.927273 161.324296 
L 416.268182 157.541821 
L 416.609091 148.355252 
L 417.290909 162.080834 
L 417.631818 159.383177 
L 417.972727 163.436015 
L 418.313636 161.919876 
L 418.654545 158.511315 
L 418.995455 161.498925 
L 419.336364 159.442264 
L 419.677273 161.407999 
L 420.018182 159.466762 
L 420.359091 159.209395 
L 420.7 156.854435 
L 421.040909 164.012301 
L 421.381818 163.454442 
L 421.722727 167.736665 
L 422.063636 168.500555 
L 422.404545 168.061982 
L 422.745455 169.777069 
L 423.086364 173.639696 
L 423.427273 168.007888 
L 423.768182 172.668349 
L 424.45 167.213557 
L 424.790909 170.288549 
L 425.131818 169.424573 
L 425.472727 172.929393 
L 425.813636 169.045431 
L 426.154545 171.482193 
L 426.495455 168.898416 
L 426.836364 165.118034 
L 427.177273 156.631064 
L 427.518182 157.132668 
L 427.859091 158.817268 
L 428.2 159.081731 
L 428.540909 155.567828 
L 428.881818 158.351628 
L 429.222727 154.851697 
L 429.563636 150.170376 
L 429.904545 148.72682 
L 430.245455 151.255601 
L 430.586364 150.789325 
L 430.927273 151.69213 
L 431.268182 147.288769 
L 431.609091 149.113114 
L 431.95 150.281471 
L 432.290909 147.96227 
L 432.631818 151.025754 
L 432.972727 148.110551 
L 433.654545 148.337326 
L 433.995455 146.325574 
L 434.336364 146.354288 
L 434.677273 149.284934 
L 435.018182 146.519032 
L 435.359091 144.784518 
L 435.7 147.011655 
L 436.040909 151.216313 
L 436.381818 146.039504 
L 436.722727 142.55637 
L 437.063636 144.671467 
L 437.404545 144.948663 
L 437.745455 146.879916 
L 438.086364 143.713174 
L 438.427273 143.99872 
L 438.768182 144.061702 
L 439.109091 141.602428 
L 439.45 140.930799 
L 439.790909 144.571502 
L 440.131818 143.782622 
L 440.472727 143.54259 
L 440.813636 144.263875 
L 441.154545 145.474391 
L 441.495455 148.606199 
L 441.836364 146.092479 
L 442.177273 145.218837 
L 442.518182 140.77843 
L 443.881818 154.387966 
L 444.222727 154.311532 
L 444.904545 158.930814 
L 445.245455 158.159429 
L 446.268182 164.120158 
L 446.609091 163.394308 
L 446.95 164.378349 
L 447.290909 157.462687 
L 447.631818 155.704367 
L 447.972727 148.36008 
L 448.313636 153.611015 
L 448.654545 141.584967 
L 448.995455 123.362375 
L 449.336364 129.675206 
L 449.677273 107.933076 
L 450.018182 99.574158 
L 450.359091 84.635736 
L 450.7 92.079556 
L 451.040909 91.861315 
L 451.381818 106.758596 
L 452.063636 126.15314 
L 452.404545 128.846836 
L 452.745455 133.386045 
L 453.086364 130.983868 
L 453.427273 142.507456 
L 453.768182 141.084748 
L 454.109091 141.452995 
L 454.790909 150.201734 
L 455.131818 145.97894 
L 455.472727 133.906776 
L 455.813636 149.223288 
L 456.154545 148.445088 
L 456.495455 160.168665 
L 456.836364 175.836832 
L 457.518182 196.089326 
L 457.859091 191.843196 
L 458.2 191.56614 
L 458.881818 176.308779 
L 459.563636 124.882124 
L 460.245455 166.98467 
L 460.586364 164.795858 
L 460.927273 168.328616 
L 461.268182 184.362105 
L 461.609091 179.205128 
L 461.95 171.473212 
L 462.290909 149.585058 
L 462.631818 169.276941 
L 462.972727 163.377915 
L 463.995455 178.104499 
L 464.336364 190.654943 
L 465.359091 202.91229 
L 465.7 209.38457 
L 466.040909 210.647982 
L 466.381818 209.584277 
L 466.722727 207.566829 
L 467.404545 216.252477 
L 467.745455 216.600519 
L 468.086364 218.002854 
L 468.427273 203.967898 
L 468.768182 199.055061 
L 469.109091 202.355488 
L 469.45 198.694898 
L 470.131818 212.256838 
L 470.813636 194.245233 
L 471.154545 195.798575 
L 471.495455 206.684669 
L 471.836364 212.70628 
L 472.177273 210.714196 
L 472.859091 216.0752 
L 473.2 211.600486 
L 473.540909 212.248466 
L 473.881818 212.008423 
L 474.222727 206.559115 
L 474.563636 208.287021 
L 474.904545 208.477335 
L 475.245455 214.486046 
L 475.586364 213.710727 
L 475.927273 212.184786 
L 476.268182 212.329122 
L 476.609091 214.988411 
L 476.95 215.347086 
L 477.290909 212.590853 
L 477.631818 216.54197 
L 477.972727 208.318721 
L 478.313636 207.142546 
L 478.654545 203.869811 
L 478.995455 207.893377 
L 479.336364 208.034351 
L 479.677273 206.933736 
L 480.018182 208.696746 
L 480.359091 208.248765 
L 480.7 208.903479 
L 481.040909 209.283268 
L 481.381818 212.727401 
L 481.722727 210.257869 
L 482.063636 209.035931 
L 482.404545 209.517421 
L 482.745455 208.148169 
L 483.086364 209.561391 
L 483.768182 198.635677 
L 484.45 199.710263 
L 484.790909 199.58421 
L 485.131818 199.934253 
L 485.472727 199.075339 
L 485.813636 195.422749 
L 486.154545 190.079115 
L 486.495455 189.290094 
L 486.836364 190.822402 
L 487.177273 188.344684 
L 487.518182 187.294729 
L 487.859091 188.036363 
L 488.2 190.480874 
L 488.540909 191.38969 
L 488.881818 190.902689 
L 489.222727 189.418481 
L 489.563636 184.450701 
L 489.904545 184.861924 
L 490.245455 183.016049 
L 490.927273 173.838394 
L 491.268182 172.640199 
L 491.609091 163.183741 
L 491.95 168.232904 
L 492.290909 156.578904 
L 492.631818 152.016674 
L 492.972727 159.620918 
L 493.313636 164.030247 
L 493.654545 160.298212 
L 493.995455 160.309031 
L 494.336364 159.191386 
L 495.018182 146.553485 
L 495.359091 146.899532 
L 495.7 144.053416 
L 496.040909 150.362619 
L 496.381818 152.905898 
L 496.722727 147.036597 
L 497.063636 148.884124 
L 497.404545 149.970487 
L 497.745455 154.014224 
L 498.086364 153.130407 
L 498.427273 155.773794 
L 498.768182 159.937934 
L 499.109091 158.5594 
L 499.45 159.945042 
L 499.790909 159.443529 
L 500.131818 164.662896 
L 500.813636 149.644147 
L 501.154545 149.748749 
L 501.495455 150.148413 
L 501.836364 156.037596 
L 502.177273 153.185325 
L 502.518182 149.35723 
L 503.2 148.454415 
L 503.540909 132.192348 
L 503.881818 129.468125 
L 504.222727 114.096007 
L 504.563636 117.315953 
L 504.904545 123.258736 
L 505.245455 122.370565 
L 505.586364 134.208989 
L 506.268182 141.319966 
L 506.609091 141.676865 
L 506.95 148.949209 
L 507.290909 151.337256 
L 507.631818 145.885773 
L 507.972727 145.375099 
L 508.313636 142.17554 
L 508.654545 142.748145 
L 508.995455 143.968487 
L 509.336364 143.063951 
L 509.677273 145.413368 
L 510.018182 143.137184 
L 510.359091 144.134647 
L 511.040909 125.886364 
L 511.381818 132.035604 
L 511.722727 130.018513 
L 512.063636 131.776632 
L 512.404545 129.032477 
L 512.745455 128.29375 
L 513.086364 118.367188 
L 513.427273 118.308391 
L 513.768182 115.071076 
L 514.109091 113.949569 
L 514.45 112.39622 
L 514.790909 113.631357 
L 515.131818 106.696576 
L 515.813636 106.02454 
L 516.154545 95.661778 
L 516.495455 90.432911 
L 516.836364 87.741887 
L 517.859091 109.334373 
L 518.2 106.37309 
L 518.540909 105.876766 
L 518.881818 107.068345 
L 519.222727 105.558458 
L 519.563636 105.033145 
L 520.245455 102.990762 
L 520.586364 108.832245 
L 520.927273 109.646663 
L 521.268182 107.799894 
L 521.609091 101.973912 
L 521.95 115.917949 
L 522.290909 124.892343 
L 522.631818 127.109731 
L 523.313636 138.867009 
L 523.654545 143.165414 
L 525.018182 150.992067 
L 525.359091 148.944106 
L 525.7 144.5404 
L 526.040909 142.660111 
L 526.381818 141.428748 
L 526.722727 136.579358 
L 527.063636 139.764683 
L 527.404545 130.397366 
L 528.086364 139.298403 
L 528.427273 141.433787 
L 528.768182 142.598095 
L 529.109091 141.896949 
L 529.45 139.449905 
L 529.790909 141.958878 
L 530.131818 143.444429 
L 530.472727 144.114212 
L 531.154545 157.392089 
L 531.495455 159.911882 
L 531.836364 158.813234 
L 532.177273 157.082514 
L 532.518182 161.921218 
L 532.859091 158.407948 
L 533.2 157.503107 
L 533.540909 155.942074 
L 533.881818 155.552714 
L 534.222727 153.352514 
L 534.563636 158.498512 
L 535.245455 163.105155 
L 535.586364 161.647607 
L 535.927273 157.930911 
L 536.268182 162.429958 
L 536.609091 162.541684 
L 536.95 159.550224 
L 537.290909 160.172612 
L 537.631818 159.704573 
L 537.972727 164.755568 
L 538.313636 166.46929 
L 538.654545 166.112856 
L 538.995455 172.549943 
L 539.336364 171.815202 
L 539.677273 176.175705 
L 540.018182 171.152751 
L 540.359091 172.423952 
L 540.7 172.160943 
L 541.040909 169.520767 
L 541.381818 170.651938 
L 542.063636 177.7736 
L 542.404545 178.955553 
L 542.745455 181.273662 
L 543.086364 179.018351 
L 543.427273 183.571705 
L 543.768182 183.012175 
L 544.109091 183.190382 
L 545.813636 194.015514 
L 546.154545 190.976997 
L 546.495455 197.17446 
L 546.836364 197.245461 
L 547.177273 198.531305 
L 547.518182 204.60309 
L 547.859091 205.823804 
L 548.2 202.554629 
L 548.540909 203.257219 
L 548.881818 207.849859 
L 549.222727 208.647062 
L 549.563636 203.228695 
L 549.904545 201.065778 
L 550.245455 201.378712 
L 550.586364 202.261999 
L 550.927273 203.987682 
L 551.268182 202.601772 
L 551.609091 198.599381 
L 551.95 201.88532 
L 552.290909 202.656259 
L 552.631818 202.06755 
L 552.972727 199.058997 
L 553.313636 192.403303 
L 553.654545 198.157258 
L 553.995455 200.585165 
L 554.677273 202.712197 
L 555.359091 212.43536 
L 555.7 208.186437 
L 556.040909 213.10222 
L 556.381818 209.572948 
L 556.722727 208.061889 
L 557.063636 213.74817 
L 557.404545 210.28399 
L 557.745455 201.084334 
L 558.086364 196.867186 
L 558.427273 189.387649 
L 558.768182 189.816986 
L 559.45 196.987709 
L 559.790909 192.964575 
L 560.131818 192.024967 
L 560.472727 200.222293 
L 560.813636 199.21163 
L 561.154545 190.785015 
L 561.495455 195.904333 
L 561.836364 198.461867 
L 561.836364 198.461867 
" style="fill:none;stroke:#1f77b4;stroke-linecap:square;stroke-width:1.5;"/>
   </g>
   <g id="patch_3">
    <path d="M 29.2 387.72 
L 29.2 7.2 
" style="fill:none;stroke:#000000;stroke-linecap:square;stroke-linejoin:miter;stroke-width:0.8;"/>
   </g>
   <g id="patch_4">
    <path d="M 587.2 387.72 
L 587.2 7.2 
" style="fill:none;stroke:#000000;stroke-linecap:square;stroke-linejoin:miter;stroke-width:0.8;"/>
   </g>
   <g id="patch_5">
    <path d="M 29.2 387.72 
L 587.2 387.72 
" style="fill:none;stroke:#000000;stroke-linecap:square;stroke-linejoin:miter;stroke-width:0.8;"/>
   </g>
   <g id="patch_6">
    <path d="M 29.2 7.2 
L 587.2 7.2 
" style="fill:none;stroke:#000000;stroke-linecap:square;stroke-linejoin:miter;stroke-width:0.8;"/>
   </g>
  </g>
 </g>
 <defs>
  <clipPath id="pe515ee1ae1">
   <rect height="380.52" width="558" x="29.2" y="7.2"/>
  </clipPath>
 </defs>
</svg>
