<?xml version="1.0" encoding="utf-8" standalone="no"?>
<!DOCTYPE svg PUBLIC "-//W3C//DTD SVG 1.1//EN"
  "http://www.w3.org/Graphics/SVG/1.1/DTD/svg11.dtd">
<!-- Created with matplotlib (https://matplotlib.org/) -->
<svg height="423.302812pt" version="1.1" viewBox="0 0 584.4 423.302812" width="584.4pt" xmlns="http://www.w3.org/2000/svg" xmlns:xlink="http://www.w3.org/1999/xlink">
 <defs>
  <style type="text/css">
*{stroke-linecap:butt;stroke-linejoin:round;}
  </style>
 </defs>
 <g id="figure_1">
  <g id="patch_1">
   <path d="M 0 423.302812 
L 584.4 423.302812 
L 584.4 0 
L 0 0 
z
" style="fill:none;"/>
  </g>
  <g id="axes_1">
   <g id="patch_2">
    <path d="M 19.2 387.72 
L 577.2 387.72 
L 577.2 7.2 
L 19.2 7.2 
z
" style="fill:#ffffff;"/>
   </g>
   <g id="matplotlib.axis_1">
    <g id="xtick_1">
     <g id="line2d_1">
      <defs>
       <path d="M 0 0 
L 0 3.5 
" id="m8229a0a360" style="stroke:#000000;stroke-width:0.8;"/>
      </defs>
      <g>
       <use style="stroke:#000000;stroke-width:0.8;" x="34.617112" xlink:href="#m8229a0a360" y="387.72"/>
      </g>
     </g>
     <g id="text_1">
      <!-- 1990-12 -->
      <defs>
       <path d="M 21.875 56.25 
Q 16.796875 51.171875 8.984375 46.484375 
L 8.984375 53.90625 
Q 18.75 60.546875 25 69.53125 
L 29.6875 69.53125 
L 29.6875 2.34375 
L 21.875 2.34375 
z
" id="SimHei-49"/>
       <path d="M 12.5 1.171875 
Q 21.09375 15.625 26.5625 27.34375 
Q 16.796875 25.78125 10.34375 29.875 
Q 3.90625 33.984375 2.53125 41.015625 
Q 1.171875 48.046875 2.734375 53.703125 
Q 4.296875 59.375 7.609375 63.078125 
Q 10.9375 66.796875 15.625 68.359375 
Q 20.3125 69.921875 24.015625 69.921875 
Q 27.734375 69.921875 31.640625 68.359375 
Q 35.546875 66.796875 38.671875 63.671875 
Q 41.796875 60.546875 42.96875 57.21875 
Q 44.140625 53.90625 44.140625 48.625 
Q 44.140625 43.359375 40.234375 35.15625 
Q 36.328125 26.953125 21.09375 1.171875 
z
M 9.765625 50 
Q 10.9375 39.84375 14.640625 36.515625 
Q 18.359375 33.203125 22.65625 33.59375 
Q 26.953125 33.984375 29.484375 35.9375 
Q 32.03125 37.890625 34.375 42.578125 
Q 35.9375 48.4375 35.15625 52.53125 
Q 34.375 56.640625 31.046875 59.375 
Q 27.734375 62.109375 23.828125 62.109375 
Q 21.484375 62.5 17.765625 60.9375 
Q 14.0625 59.375 11.90625 54.6875 
Q 9.765625 50 10.9375 39.84375 
z
" id="SimHei-57"/>
       <path d="M 3.125 29.296875 
Q 3.90625 50 6.4375 56.046875 
Q 8.984375 62.109375 13.671875 66.015625 
Q 18.359375 69.921875 25.1875 69.921875 
Q 32.03125 69.921875 37.109375 64.25 
Q 42.1875 58.59375 43.75 50 
Q 45.3125 41.40625 44.71875 30.265625 
Q 44.140625 19.140625 40.8125 12.109375 
Q 37.5 5.078125 30.859375 2.34375 
Q 24.21875 -0.390625 17.578125 2.921875 
Q 10.9375 6.25 8.203125 11.71875 
Q 5.46875 17.1875 4.296875 23.234375 
Q 3.125 29.296875 3.90625 50 
z
M 12.890625 52.734375 
Q 10.546875 31.25 12.5 22.84375 
Q 14.453125 14.453125 18.9375 10.9375 
Q 23.4375 7.421875 28.125 9.5625 
Q 32.8125 11.71875 34.953125 18.15625 
Q 37.109375 24.609375 37.109375 32.21875 
Q 37.109375 39.84375 36.515625 46.09375 
Q 35.9375 52.34375 33 57.421875 
Q 30.078125 62.5 25.1875 62.6875 
Q 20.3125 62.890625 16.59375 57.8125 
Q 12.890625 52.734375 10.546875 31.25 
z
" id="SimHei-48"/>
       <path d="M 46.484375 33.203125 
L 1.953125 33.203125 
L 1.953125 39.453125 
L 46.484375 39.453125 
z
" id="SimHei-45"/>
       <path d="M 4.6875 3.90625 
Q 5.078125 9.765625 10.15625 14.453125 
Q 15.234375 19.140625 23.046875 29.09375 
Q 30.859375 39.0625 33.203125 44.53125 
Q 35.546875 50 34.953125 53.90625 
Q 34.375 57.8125 31.25 60.34375 
Q 28.125 62.890625 24.015625 62.5 
Q 19.921875 62.109375 16.203125 59.375 
Q 12.5 56.640625 10.546875 51.171875 
L 3.125 52.34375 
Q 6.25 61.328125 11.125 65.421875 
Q 16.015625 69.53125 22.65625 69.921875 
Q 26.5625 70.3125 29.6875 69.71875 
Q 32.8125 69.140625 36.125 66.984375 
Q 39.453125 64.84375 41.59375 60.546875 
Q 43.75 56.25 43.15625 50.1875 
Q 42.578125 44.140625 37.109375 35.734375 
Q 31.640625 27.34375 16.015625 9.375 
L 44.140625 9.375 
L 44.140625 2.34375 
L 4.6875 2.34375 
z
" id="SimHei-50"/>
      </defs>
      <g transform="translate(17.117112 401.595)scale(0.1 -0.1)">
       <use xlink:href="#SimHei-49"/>
       <use x="50" xlink:href="#SimHei-57"/>
       <use x="100" xlink:href="#SimHei-57"/>
       <use x="150" xlink:href="#SimHei-48"/>
       <use x="200" xlink:href="#SimHei-45"/>
       <use x="250" xlink:href="#SimHei-49"/>
       <use x="300" xlink:href="#SimHei-50"/>
      </g>
     </g>
    </g>
    <g id="xtick_2">
     <g id="line2d_2">
      <g>
       <use style="stroke:#000000;stroke-width:0.8;" x="105.663713" xlink:href="#m8229a0a360" y="387.72"/>
      </g>
     </g>
     <g id="text_2">
      <!-- 1995-02 -->
      <defs>
       <path d="M 8.59375 20.703125 
Q 11.328125 10.15625 17.96875 8.984375 
Q 24.609375 7.8125 28.703125 10.34375 
Q 32.8125 12.890625 34.5625 16.984375 
Q 36.328125 21.09375 36.125 26.171875 
Q 35.9375 31.25 33.390625 34.765625 
Q 30.859375 38.28125 26.953125 39.453125 
Q 23.046875 40.625 18.15625 39.453125 
Q 13.28125 38.28125 10.15625 33.984375 
L 3.515625 34.765625 
Q 4.296875 37.109375 10.9375 68.359375 
L 41.796875 68.359375 
L 41.796875 61.328125 
L 16.796875 61.328125 
Q 14.84375 50.78125 12.890625 44.53125 
Q 18.75 47.265625 23.828125 47.0625 
Q 28.90625 46.875 33.59375 44.71875 
Q 38.28125 42.578125 40.421875 38.859375 
Q 42.578125 35.15625 43.546875 31.4375 
Q 44.53125 27.734375 44.328125 23.4375 
Q 44.140625 19.140625 42.578125 14.640625 
Q 41.015625 10.15625 37.890625 7.21875 
Q 34.765625 4.296875 30.265625 2.53125 
Q 25.78125 0.78125 19.921875 1.171875 
Q 14.0625 1.5625 8.78125 5.46875 
Q 3.515625 9.375 1.5625 18.75 
z
" id="SimHei-53"/>
      </defs>
      <g transform="translate(88.163713 401.595)scale(0.1 -0.1)">
       <use xlink:href="#SimHei-49"/>
       <use x="50" xlink:href="#SimHei-57"/>
       <use x="100" xlink:href="#SimHei-57"/>
       <use x="150" xlink:href="#SimHei-53"/>
       <use x="200" xlink:href="#SimHei-45"/>
       <use x="250" xlink:href="#SimHei-48"/>
       <use x="300" xlink:href="#SimHei-50"/>
      </g>
     </g>
    </g>
    <g id="xtick_3">
     <g id="line2d_3">
      <g>
       <use style="stroke:#000000;stroke-width:0.8;" x="176.710313" xlink:href="#m8229a0a360" y="387.72"/>
      </g>
     </g>
     <g id="text_3">
      <!-- 1999-04 -->
      <defs>
       <path d="M 31.25 17.1875 
L 1.171875 17.1875 
L 1.171875 23.828125 
L 32.8125 69.53125 
L 38.671875 69.53125 
L 38.671875 23.828125 
L 48.046875 23.828125 
L 48.046875 17.1875 
L 38.671875 17.1875 
L 38.671875 2.34375 
L 31.25 2.34375 
z
M 31.25 23.828125 
L 31.25 54.6875 
L 9.375 23.828125 
z
" id="SimHei-52"/>
      </defs>
      <g transform="translate(159.210313 401.595)scale(0.1 -0.1)">
       <use xlink:href="#SimHei-49"/>
       <use x="50" xlink:href="#SimHei-57"/>
       <use x="100" xlink:href="#SimHei-57"/>
       <use x="150" xlink:href="#SimHei-57"/>
       <use x="200" xlink:href="#SimHei-45"/>
       <use x="250" xlink:href="#SimHei-48"/>
       <use x="300" xlink:href="#SimHei-52"/>
      </g>
     </g>
    </g>
    <g id="xtick_4">
     <g id="line2d_4">
      <g>
       <use style="stroke:#000000;stroke-width:0.8;" x="247.756914" xlink:href="#m8229a0a360" y="387.72"/>
      </g>
     </g>
     <g id="text_4">
      <!-- 2003-06 -->
      <defs>
       <path d="M 3.90625 19.140625 
L 10.9375 20.3125 
Q 12.5 15.234375 16.015625 11.90625 
Q 19.53125 8.59375 24.796875 8.78125 
Q 30.078125 8.984375 33.203125 13.078125 
Q 36.328125 17.1875 35.9375 22.453125 
Q 35.546875 27.734375 31.828125 30.65625 
Q 28.125 33.59375 19.921875 34.765625 
L 19.921875 39.84375 
Q 28.125 40.625 31.828125 44.140625 
Q 35.546875 47.65625 35.15625 53.3125 
Q 34.765625 58.984375 30.078125 61.515625 
Q 25.390625 64.0625 20.109375 62.109375 
Q 14.84375 60.15625 11.71875 51.171875 
L 4.6875 52.34375 
Q 7.03125 59.375 11.125 64.0625 
Q 15.234375 68.75 22.265625 69.53125 
Q 29.296875 70.3125 34.5625 67.765625 
Q 39.84375 65.234375 41.984375 59.953125 
Q 44.140625 54.6875 42.578125 48.4375 
Q 41.015625 42.1875 33.59375 37.5 
Q 39.0625 35.15625 41.984375 30.46875 
Q 44.921875 25.78125 43.9375 18.15625 
Q 42.96875 10.546875 37.109375 5.859375 
Q 31.25 1.171875 23.828125 1.359375 
Q 16.40625 1.5625 10.9375 6.046875 
Q 5.46875 10.546875 3.90625 19.140625 
z
" id="SimHei-51"/>
       <path d="M 3.515625 19.53125 
Q 4.296875 30.859375 6.046875 34.765625 
Q 7.8125 38.671875 11.328125 44.53125 
L 27.34375 69.53125 
L 36.328125 69.53125 
L 19.921875 43.75 
Q 30.46875 46.484375 36.71875 42.96875 
Q 42.96875 39.453125 45.109375 34.953125 
Q 47.265625 30.46875 47.453125 25.1875 
Q 47.65625 19.921875 45.890625 14.84375 
Q 44.140625 9.765625 39.640625 5.65625 
Q 35.15625 1.5625 27.140625 1.171875 
Q 19.140625 0.78125 13.46875 4.09375 
Q 7.8125 7.421875 5.65625 13.46875 
Q 3.515625 19.53125 4.296875 30.859375 
z
M 12.5 16.015625 
Q 19.53125 8.59375 25.390625 8.203125 
Q 31.25 7.8125 35.15625 12.109375 
Q 39.0625 16.40625 39.0625 24.609375 
Q 39.0625 32.8125 34.171875 35.9375 
Q 29.296875 39.0625 23.234375 38.28125 
Q 17.1875 37.5 14.453125 32.421875 
Q 11.71875 27.34375 12.109375 21.671875 
Q 12.5 16.015625 19.53125 8.59375 
z
" id="SimHei-54"/>
      </defs>
      <g transform="translate(230.256914 401.595)scale(0.1 -0.1)">
       <use xlink:href="#SimHei-50"/>
       <use x="50" xlink:href="#SimHei-48"/>
       <use x="100" xlink:href="#SimHei-48"/>
       <use x="150" xlink:href="#SimHei-51"/>
       <use x="200" xlink:href="#SimHei-45"/>
       <use x="250" xlink:href="#SimHei-48"/>
       <use x="300" xlink:href="#SimHei-54"/>
      </g>
     </g>
    </g>
    <g id="xtick_5">
     <g id="line2d_5">
      <g>
       <use style="stroke:#000000;stroke-width:0.8;" x="318.803514" xlink:href="#m8229a0a360" y="387.72"/>
      </g>
     </g>
     <g id="text_5">
      <!-- 2007-08 -->
      <defs>
       <path d="M 13.28125 2.34375 
Q 20.3125 32.03125 37.890625 61.328125 
L 4.296875 61.328125 
L 4.296875 68.359375 
L 46.09375 68.359375 
L 46.09375 61.71875 
Q 27.734375 32.03125 21.875 2.34375 
L 13.28125 2.34375 
z
" id="SimHei-55"/>
       <path d="M 2.734375 16.796875 
Q 2.734375 26.171875 5.078125 30.65625 
Q 7.421875 35.15625 12.890625 37.890625 
Q 8.203125 40.625 6.640625 43.9375 
Q 5.078125 47.265625 4.875 51.5625 
Q 4.6875 55.859375 6.046875 58.984375 
Q 7.421875 62.109375 10.15625 64.84375 
Q 12.890625 67.578125 16.203125 68.546875 
Q 19.53125 69.53125 23.4375 69.53125 
Q 27.34375 69.53125 30.46875 68.75 
Q 33.59375 67.96875 37.109375 65.421875 
Q 40.625 62.890625 42.1875 58.203125 
Q 43.75 53.515625 41.984375 47.265625 
Q 40.234375 41.015625 32.8125 37.5 
Q 39.453125 35.546875 42.1875 31.4375 
Q 44.921875 27.34375 44.921875 21.484375 
Q 44.921875 15.625 43.15625 12.109375 
Q 41.40625 8.59375 39.25 6.25 
Q 37.109375 3.90625 33.390625 2.53125 
Q 29.6875 1.171875 24.015625 1.171875 
Q 18.359375 1.171875 14.25 2.53125 
Q 10.15625 3.90625 7.421875 6.640625 
Q 4.6875 9.375 3.703125 13.078125 
Q 2.734375 16.796875 2.734375 26.171875 
z
M 10.9375 26.5625 
Q 10.546875 17.1875 12.296875 13.671875 
Q 14.0625 10.15625 18.75 9.171875 
Q 23.4375 8.203125 28.515625 9.375 
Q 33.59375 10.546875 35.546875 14.84375 
Q 37.5 19.140625 36.90625 23.4375 
Q 36.328125 27.734375 32.03125 30.65625 
Q 27.734375 33.59375 22.65625 33.203125 
Q 17.578125 32.8125 14.25 29.6875 
Q 10.9375 26.5625 10.546875 17.1875 
z
M 12.109375 56.25 
Q 12.109375 48.4375 14.84375 44.921875 
Q 17.578125 41.40625 23.4375 41.40625 
Q 29.296875 41.40625 32.21875 44.921875 
Q 35.15625 48.4375 34.953125 53.3125 
Q 34.765625 58.203125 31.4375 60.546875 
Q 28.125 62.890625 22.453125 62.5 
Q 16.796875 62.109375 14.453125 59.171875 
Q 12.109375 56.25 12.109375 48.4375 
z
" id="SimHei-56"/>
      </defs>
      <g transform="translate(301.303514 401.595)scale(0.1 -0.1)">
       <use xlink:href="#SimHei-50"/>
       <use x="50" xlink:href="#SimHei-48"/>
       <use x="100" xlink:href="#SimHei-48"/>
       <use x="150" xlink:href="#SimHei-55"/>
       <use x="200" xlink:href="#SimHei-45"/>
       <use x="250" xlink:href="#SimHei-48"/>
       <use x="300" xlink:href="#SimHei-56"/>
      </g>
     </g>
    </g>
    <g id="xtick_6">
     <g id="line2d_6">
      <g>
       <use style="stroke:#000000;stroke-width:0.8;" x="389.850115" xlink:href="#m8229a0a360" y="387.72"/>
      </g>
     </g>
     <g id="text_6">
      <!-- 2011-10 -->
      <g transform="translate(372.350115 401.595)scale(0.1 -0.1)">
       <use xlink:href="#SimHei-50"/>
       <use x="50" xlink:href="#SimHei-48"/>
       <use x="100" xlink:href="#SimHei-49"/>
       <use x="150" xlink:href="#SimHei-49"/>
       <use x="200" xlink:href="#SimHei-45"/>
       <use x="250" xlink:href="#SimHei-49"/>
       <use x="300" xlink:href="#SimHei-48"/>
      </g>
     </g>
    </g>
    <g id="xtick_7">
     <g id="line2d_7">
      <g>
       <use style="stroke:#000000;stroke-width:0.8;" x="460.896715" xlink:href="#m8229a0a360" y="387.72"/>
      </g>
     </g>
     <g id="text_7">
      <!-- 2015-12 -->
      <g transform="translate(443.396715 401.595)scale(0.1 -0.1)">
       <use xlink:href="#SimHei-50"/>
       <use x="50" xlink:href="#SimHei-48"/>
       <use x="100" xlink:href="#SimHei-49"/>
       <use x="150" xlink:href="#SimHei-53"/>
       <use x="200" xlink:href="#SimHei-45"/>
       <use x="250" xlink:href="#SimHei-49"/>
       <use x="300" xlink:href="#SimHei-50"/>
      </g>
     </g>
    </g>
    <g id="xtick_8">
     <g id="line2d_8">
      <g>
       <use style="stroke:#000000;stroke-width:0.8;" x="531.943316" xlink:href="#m8229a0a360" y="387.72"/>
      </g>
     </g>
     <g id="text_8">
      <!-- 2020-02 -->
      <g transform="translate(514.443316 401.595)scale(0.1 -0.1)">
       <use xlink:href="#SimHei-50"/>
       <use x="50" xlink:href="#SimHei-48"/>
       <use x="100" xlink:href="#SimHei-50"/>
       <use x="150" xlink:href="#SimHei-48"/>
       <use x="200" xlink:href="#SimHei-45"/>
       <use x="250" xlink:href="#SimHei-48"/>
       <use x="300" xlink:href="#SimHei-50"/>
      </g>
     </g>
    </g>
    <g id="text_9">
     <!-- 交易月份 -->
     <defs>
      <path d="M 36.328125 40.625 
Q 43.359375 24.609375 50 17.96875 
Q 60.546875 28.515625 66.015625 42.578125 
Q 69.140625 40.234375 73.828125 37.5 
Q 64.453125 22.65625 55.46875 12.890625 
Q 68.75 2.734375 93.75 0.390625 
Q 89.84375 -5.078125 89.0625 -8.59375 
Q 64.0625 -3.90625 49.21875 8.203125 
Q 32.421875 -4.296875 10.15625 -9.375 
Q 8.984375 -4.6875 5.859375 -0.78125 
Q 29.6875 1.953125 43.359375 13.28125 
Q 34.375 23.828125 28.90625 36.71875 
Q 33.59375 38.671875 36.328125 40.625 
z
M 19.53125 58.203125 
Q 13.671875 58.203125 8.203125 57.8125 
L 8.203125 65.625 
L 19.140625 64.84375 
L 80.078125 64.84375 
Q 86.328125 65.234375 92.96875 65.625 
L 92.96875 57.421875 
Q 86.328125 57.8125 80.078125 58.203125 
z
M 39.453125 51.5625 
Q 33.984375 46.484375 16.015625 31.25 
Q 12.890625 35.15625 8.59375 37.5 
Q 16.015625 41.40625 22.0625 47.265625 
Q 28.125 53.125 31.25 57.421875 
Q 35.15625 54.6875 39.453125 51.5625 
z
M 67.578125 57.421875 
Q 69.53125 55.859375 76.5625 50.578125 
Q 83.59375 45.3125 90.234375 40.625 
Q 85.9375 37.5 82.8125 33.984375 
Q 79.296875 38.671875 60.9375 51.5625 
Q 64.0625 54.6875 67.578125 57.421875 
z
M 50.78125 82.8125 
Q 54.6875 73.828125 56.640625 68.359375 
Q 51.171875 66.796875 47.265625 65.625 
Q 44.921875 72.265625 41.40625 80.078125 
Q 46.09375 81.640625 50.78125 82.8125 
z
" id="SimHei-20132"/>
      <path d="M 81.25 78.125 
Q 80.859375 71.09375 80.859375 65.625 
L 80.859375 56.25 
Q 80.859375 51.953125 81.25 44.53125 
L 40.625 44.53125 
Q 38.671875 41.015625 34.375 36.328125 
L 88.28125 36.328125 
L 87.109375 23.828125 
L 84.375 0.78125 
Q 83.203125 -5.078125 77.140625 -6.828125 
Q 71.09375 -8.59375 65.234375 -8.984375 
Q 63.28125 -3.125 60.9375 -0.390625 
Q 65.234375 -0.78125 70.5 -0.1875 
Q 75.78125 0.390625 76.953125 5.078125 
L 80.078125 30.46875 
L 69.921875 30.46875 
Q 60.9375 10.9375 49.609375 2.734375 
Q 38.28125 -5.46875 23.828125 -9.375 
Q 23.046875 -6.640625 18.359375 -3.515625 
Q 25.390625 -2.34375 33.78125 1.359375 
Q 42.1875 5.078125 49.40625 12.296875 
Q 56.640625 19.53125 61.71875 30.46875 
L 49.609375 30.46875 
Q 40.234375 13.671875 16.796875 4.296875 
Q 14.84375 7.8125 10.546875 9.375 
Q 17.578125 11.328125 26.953125 16.59375 
Q 36.328125 21.875 41.796875 30.46875 
L 28.90625 30.46875 
Q 17.96875 22.265625 11.328125 19.140625 
Q 10.15625 22.265625 5.859375 25 
Q 12.109375 27.34375 19.921875 32.8125 
Q 27.734375 38.28125 31.640625 44.53125 
L 19.140625 44.53125 
Q 19.53125 51.171875 19.53125 57.03125 
L 19.53125 65.625 
Q 19.53125 70.703125 19.140625 78.125 
L 81.25 78.125 
z
M 73.4375 50.390625 
L 73.4375 58.203125 
L 26.953125 58.203125 
L 26.953125 50.390625 
z
M 73.4375 64.453125 
L 73.4375 71.875 
L 26.953125 71.875 
L 26.953125 64.453125 
z
" id="SimHei-26131"/>
      <path d="M 82.03125 75.390625 
Q 81.25 66.015625 81.25 58.59375 
L 81.25 3.125 
Q 81.25 -4.296875 77.34375 -5.859375 
Q 73.4375 -7.421875 62.109375 -8.203125 
Q 61.328125 -3.515625 58.59375 0.78125 
Q 67.1875 0.390625 70.5 0.78125 
Q 73.828125 1.171875 73.828125 6.25 
L 73.828125 25 
L 28.90625 25 
Q 26.953125 12.109375 22.65625 3.515625 
Q 18.359375 -5.078125 14.0625 -8.984375 
Q 10.9375 -6.25 6.25 -5.078125 
Q 12.5 0.390625 16.203125 8 
Q 19.921875 15.625 20.890625 23.046875 
Q 21.875 30.46875 21.875 39.453125 
L 21.875 56.640625 
Q 21.875 65.234375 21.484375 75.390625 
L 82.03125 75.390625 
z
M 73.828125 53.125 
L 73.828125 69.53125 
L 29.296875 69.53125 
L 29.296875 53.125 
z
M 73.828125 31.25 
L 73.828125 47.265625 
L 29.296875 47.265625 
L 29.296875 31.25 
z
" id="SimHei-26376"/>
      <path d="M 74.21875 79.6875 
Q 76.171875 68.359375 82.03125 57.03125 
Q 87.890625 45.703125 96.875 38.28125 
Q 94.140625 37.109375 90.234375 32.421875 
Q 87.5 35.546875 83.59375 40.234375 
Q 82.8125 35.546875 82.421875 20.5 
Q 82.03125 5.46875 81.046875 0.390625 
Q 80.078125 -4.6875 75.78125 -6.25 
Q 71.484375 -7.8125 63.671875 -8.59375 
Q 62.5 -3.90625 60.546875 0 
Q 68.75 -0.390625 71.484375 0.390625 
Q 74.21875 1.171875 74.609375 9.171875 
Q 75 17.1875 75.390625 35.15625 
L 57.8125 35.15625 
Q 57.421875 20.3125 53.515625 10.15625 
Q 49.609375 0 37.109375 -9.765625 
Q 33.984375 -5.46875 31.25 -3.515625 
Q 42.96875 3.515625 46.671875 12.5 
Q 50.390625 21.484375 50.390625 35.15625 
Q 46.875 35.15625 41.796875 34.765625 
L 41.796875 40.234375 
Q 38.671875 35.9375 33.59375 30.46875 
Q 31.25 33.59375 27.34375 35.9375 
Q 44.921875 51.171875 50.390625 76.171875 
Q 53.90625 74.609375 58.59375 73.046875 
Q 56.640625 68.75 53.515625 60.734375 
Q 50.390625 52.734375 43.359375 42.1875 
Q 47.65625 41.796875 53.125 41.796875 
L 82.8125 41.796875 
Q 71.484375 56.640625 66.796875 77.734375 
Q 71.484375 78.515625 74.21875 79.6875 
z
M 3.515625 39.453125 
Q 8.984375 44.921875 16.015625 57.609375 
Q 23.046875 70.3125 25.78125 81.640625 
Q 30.859375 79.296875 34.375 77.734375 
Q 32.03125 74.21875 25 58.984375 
L 25 9.765625 
Q 25 1.171875 25.390625 -8.984375 
L 17.1875 -8.984375 
Q 17.578125 0.78125 17.578125 9.765625 
L 17.578125 45.703125 
Q 12.109375 37.5 8.984375 33.984375 
Q 6.640625 36.71875 3.515625 39.453125 
z
" id="SimHei-20221"/>
     </defs>
     <g transform="translate(278.2 414.852812)scale(0.1 -0.1)">
      <use xlink:href="#SimHei-20132"/>
      <use x="100" xlink:href="#SimHei-26131"/>
      <use x="200" xlink:href="#SimHei-26376"/>
      <use x="300" xlink:href="#SimHei-20221"/>
     </g>
    </g>
   </g>
   <g id="matplotlib.axis_2">
    <g id="ytick_1">
     <g id="line2d_9">
      <defs>
       <path d="M 0 0 
L -3.5 0 
" id="m29c6144d5b" style="stroke:#000000;stroke-width:0.8;"/>
      </defs>
      <g>
       <use style="stroke:#000000;stroke-width:0.8;" x="19.2" xlink:href="#m29c6144d5b" y="381.724812"/>
      </g>
     </g>
     <g id="text_10">
      <!-- 1 -->
      <g transform="translate(7.2 385.162312)scale(0.1 -0.1)">
       <use xlink:href="#SimHei-49"/>
      </g>
     </g>
    </g>
    <g id="ytick_2">
     <g id="line2d_10">
      <g>
       <use style="stroke:#000000;stroke-width:0.8;" x="19.2" xlink:href="#m29c6144d5b" y="317.872035"/>
      </g>
     </g>
     <g id="text_11">
      <!-- 2 -->
      <g transform="translate(7.2 321.309535)scale(0.1 -0.1)">
       <use xlink:href="#SimHei-50"/>
      </g>
     </g>
    </g>
    <g id="ytick_3">
     <g id="line2d_11">
      <g>
       <use style="stroke:#000000;stroke-width:0.8;" x="19.2" xlink:href="#m29c6144d5b" y="254.019259"/>
      </g>
     </g>
     <g id="text_12">
      <!-- 3 -->
      <g transform="translate(7.2 257.456759)scale(0.1 -0.1)">
       <use xlink:href="#SimHei-51"/>
      </g>
     </g>
    </g>
    <g id="ytick_4">
     <g id="line2d_12">
      <g>
       <use style="stroke:#000000;stroke-width:0.8;" x="19.2" xlink:href="#m29c6144d5b" y="190.166482"/>
      </g>
     </g>
     <g id="text_13">
      <!-- 4 -->
      <g transform="translate(7.2 193.603982)scale(0.1 -0.1)">
       <use xlink:href="#SimHei-52"/>
      </g>
     </g>
    </g>
    <g id="ytick_5">
     <g id="line2d_13">
      <g>
       <use style="stroke:#000000;stroke-width:0.8;" x="19.2" xlink:href="#m29c6144d5b" y="126.313706"/>
      </g>
     </g>
     <g id="text_14">
      <!-- 5 -->
      <g transform="translate(7.2 129.751206)scale(0.1 -0.1)">
       <use xlink:href="#SimHei-53"/>
      </g>
     </g>
    </g>
    <g id="ytick_6">
     <g id="line2d_14">
      <g>
       <use style="stroke:#000000;stroke-width:0.8;" x="19.2" xlink:href="#m29c6144d5b" y="62.46093"/>
      </g>
     </g>
     <g id="text_15">
      <!-- 6 -->
      <g transform="translate(7.2 65.89843)scale(0.1 -0.1)">
       <use xlink:href="#SimHei-54"/>
      </g>
     </g>
    </g>
   </g>
   <g id="line2d_15">
    <path clip-path="url(#pefa55c4e13)" d="M 47.4055 369.287309 
L 48.826432 356.36549 
M 51.668296 340.699935 
L 53.089228 327.410048 
L 54.51016 272.934931 
L 55.931092 255.007372 
L 57.352024 242.600679 
L 58.772956 163.257412 
L 60.193888 284.338606 
L 61.61482 290.282037 
L 63.035752 288.232912 
L 64.456684 285.021822 
L 65.877617 280.169826 
L 67.298549 277.764301 
L 68.719481 276.721174 
L 70.140413 229.425505 
L 71.561345 224.254932 
L 72.982277 241.825737 
L 74.403209 230.597176 
L 75.824141 224.875258 
L 77.245073 210.257039 
L 78.666005 211.184908 
L 80.086937 224.974932 
L 81.507869 223.338943 
L 82.928801 252.830011 
L 84.349733 248.798118 
L 85.770665 286.175788 
L 87.191597 278.219566 
L 88.612529 280.084603 
L 90.033461 282.791903 
L 94.296257 307.071508 
L 95.717189 305.099874 
L 97.138121 315.235341 
L 98.559053 303.387492 
L 99.979985 302.784464 
L 101.400917 301.811471 
L 102.821849 302.9051 
L 104.242781 306.09968 
L 105.663713 305.390714 
L 107.084645 302.126322 
L 108.505577 300.22961 
L 109.926509 299.029471 
L 111.347441 301.800696 
L 112.768373 295.211114 
L 114.189305 283.544931 
L 115.610237 273.670012 
L 117.031169 266.041786 
L 118.452101 273.531481 
L 119.873033 273.445458 
L 121.293965 265.050057 
L 122.714897 270.119451 
L 124.135829 269.181101 
L 125.556761 267.095565 
L 126.977693 265.414978 
L 128.398625 262.016211 
L 129.819557 236.894368 
L 131.240489 231.80208 
L 132.661421 230.246649 
L 134.082353 215.276412 
L 135.503285 210.022551 
L 136.924217 219.992182 
L 138.345149 217.753698 
L 139.766081 215.913109 
L 142.607945 228.205715 
L 144.028877 221.873889 
L 145.449809 220.055626 
L 146.870741 217.240435 
L 148.291673 206.681212 
L 149.712605 208.394099 
L 151.133537 212.157489 
L 152.554469 214.566384 
L 153.975401 220.774118 
L 155.396333 225.773972 
L 156.817265 220.936534 
L 158.238197 216.789884 
L 159.659129 213.77309 
L 161.080061 208.763794 
L 162.500993 206.986744 
L 163.921925 205.627969 
L 165.342857 206.284471 
L 166.763789 201.316507 
L 168.184721 209.218597 
L 169.605653 211.745747 
L 171.026585 209.120283 
L 172.447517 210.14438 
L 173.868449 209.638669 
L 175.289381 199.193182 
L 176.710313 191.227081 
L 178.131245 195.609031 
L 179.552177 218.021462 
L 180.973109 213.969598 
L 182.394041 208.552287 
L 183.814973 212.203899 
L 185.235905 212.390598 
L 186.656837 210.689965 
L 188.077769 218.27754 
L 189.498701 238.960708 
L 190.919633 241.348992 
L 192.340565 236.671136 
L 193.761497 229.483083 
L 195.182429 224.534087 
L 196.603361 218.647477 
L 198.024293 211.51166 
L 199.445225 216.552504 
L 200.866157 224.529676 
L 202.287089 220.717484 
L 203.708021 215.699731 
L 205.128953 213.484398 
L 206.549885 206.933336 
L 207.970817 201.248352 
L 209.391749 200.066532 
L 210.812681 206.031959 
L 212.233613 206.251144 
L 213.654545 203.44528 
L 216.496409 207.896111 
L 219.338273 197.909136 
L 220.759206 194.568584 
L 223.60107 184.382606 
L 225.022002 191.37349 
L 226.442934 193.394158 
L 227.863866 188.703546 
L 229.284798 192.499117 
L 230.70573 185.109985 
L 232.126662 189.241262 
L 234.968526 186.789724 
L 236.389458 188.257827 
L 237.81039 184.32135 
L 239.231322 188.759048 
L 240.652254 187.653444 
L 242.073186 187.63539 
L 243.494118 182.530198 
L 244.91505 169.088476 
L 249.177846 160.353954 
L 250.598778 168.102625 
L 252.01971 167.764938 
L 253.440642 152.290773 
L 254.861574 139.064124 
L 256.282506 116.416457 
L 257.703438 118.803205 
L 259.12437 126.859174 
L 260.545302 118.896631 
L 261.966234 103.320157 
L 263.387166 99.321905 
L 264.808098 89.354589 
L 266.22903 92.79321 
L 267.649962 80.717048 
L 269.070894 85.902811 
L 270.491826 83.135473 
L 271.912758 85.497871 
L 273.33369 82.37814 
L 276.175554 85.308311 
L 277.596486 80.374063 
L 279.017418 73.454552 
L 280.43835 74.796055 
L 281.859282 61.39082 
L 283.280214 50.528323 
L 284.701146 54.287217 
L 286.122078 62.50901 
L 287.54301 64.315944 
L 288.963942 57.027747 
L 290.384874 51.741138 
L 291.805806 53.664635 
L 293.226738 53.388728 
L 294.64767 56.212488 
L 296.068602 42.500607 
L 297.489534 47.894986 
L 298.910466 51.144848 
L 300.331398 54.917597 
L 301.75233 63.545323 
L 303.173262 75.784491 
L 304.594194 61.939807 
L 306.015126 59.383245 
L 307.436058 60.091525 
L 308.85699 60.960796 
L 310.277922 47.083823 
L 311.698854 45.554005 
L 313.119786 24.496364 
L 314.540718 30.407081 
L 315.96165 70.613853 
L 317.382582 65.702953 
L 318.803514 65.092115 
L 320.224446 48.412393 
L 321.645378 62.825518 
L 324.487242 56.252482 
L 325.908174 65.767588 
L 327.329106 55.218365 
L 328.750038 69.665169 
L 330.17097 77.251082 
L 331.591902 60.673074 
L 333.012834 66.547872 
L 334.433766 65.602572 
L 335.854698 54.193822 
L 337.27563 39.102455 
L 338.696562 26.536683 
L 340.117494 33.368726 
L 341.538426 49.469604 
L 344.38029 63.529189 
L 345.801222 83.142025 
L 347.222154 77.732675 
L 348.643086 76.317575 
L 350.064018 82.475724 
L 351.48495 74.765256 
L 352.905882 83.65437 
L 354.326814 89.555166 
L 355.747746 90.829014 
L 357.168678 89.577461 
L 358.58961 80.61587 
L 361.431474 94.499828 
L 362.852406 96.43216 
L 364.273338 103.143782 
L 365.69427 104.16629 
L 367.115202 102.825226 
L 368.536134 111.049912 
L 369.957066 135.359703 
L 371.377998 148.306337 
L 372.79893 144.742352 
L 374.219862 155.919283 
L 375.640794 151.368751 
L 377.061727 138.948137 
L 378.482659 147.883932 
L 379.903591 144.82513 
L 381.324523 143.267533 
L 382.745455 142.840973 
L 384.166387 147.524612 
L 385.587319 161.98793 
L 387.008251 166.002142 
L 388.429183 155.444255 
L 389.850115 148.90639 
L 391.271047 153.735604 
L 392.691979 131.009285 
L 394.112911 131.609796 
L 395.533843 142.753769 
L 396.954775 138.58873 
L 398.375707 143.559186 
L 399.796639 150.446716 
L 402.638503 145.304581 
L 404.059435 149.646228 
L 405.480367 154.910551 
L 406.901299 152.223044 
L 408.322231 137.644496 
L 409.743163 131.594843 
L 411.164095 127.440537 
L 412.585027 133.319073 
L 414.005959 137.421213 
L 415.426891 135.031769 
L 416.847823 144.27206 
L 418.268755 144.185886 
L 419.689687 144.766065 
L 421.110619 144.472473 
L 422.531551 135.874718 
L 423.952483 128.338408 
L 425.373415 129.867818 
L 426.794347 127.839067 
L 428.215279 124.304226 
L 429.636211 122.086798 
L 431.057143 119.395031 
L 432.478075 120.342917 
L 433.899007 121.033716 
L 435.319939 123.034529 
L 436.740871 119.024673 
L 438.161803 128.703049 
L 439.582735 136.315959 
L 441.003667 131.93465 
L 442.424599 116.858148 
L 443.845531 63.009959 
L 445.266463 93.206787 
L 448.108327 122.824188 
L 449.529259 123.143713 
L 450.950191 173.147726 
L 452.371123 149.185068 
L 453.792055 139.409746 
L 455.212987 138.020356 
L 456.633919 137.569785 
L 458.054851 163.739668 
L 459.475783 172.234263 
L 460.896715 182.099224 
L 462.317647 167.174492 
L 463.738579 163.764054 
L 465.159511 181.298492 
L 466.580443 180.751698 
L 468.001375 180.473631 
L 469.422307 183.653023 
L 470.843239 175.476786 
L 472.264171 174.749944 
L 473.685103 176.144978 
L 475.106035 175.311353 
L 476.526967 168.227675 
L 477.947899 165.943976 
L 479.368831 155.937287 
L 480.789763 155.226799 
L 482.210695 151.490275 
L 483.631627 141.580709 
L 485.052559 123.771356 
L 486.473491 128.899338 
L 487.894423 115.297691 
L 489.315355 117.617577 
L 490.736287 125.027833 
L 492.157219 128.939502 
L 493.578151 117.614941 
L 494.999083 119.394138 
L 496.420015 95.093145 
L 497.840947 100.076333 
L 499.261879 118.497078 
L 500.682811 112.241336 
L 502.103743 115.930701 
L 503.524675 104.227578 
L 506.366539 84.924714 
L 507.787471 78.585519 
L 509.208403 58.995115 
L 510.629335 79.528443 
L 512.050267 77.548483 
L 513.471199 71.916166 
L 514.892131 103.955391 
L 516.313063 122.186401 
L 517.733995 120.98856 
L 519.154927 117.496631 
L 520.575859 118.380153 
L 521.996791 119.003465 
L 523.417723 135.797212 
L 524.838655 133.34654 
L 526.259587 133.644096 
L 527.680519 133.068891 
L 529.101451 136.144601 
L 530.522383 140.733492 
L 531.943316 144.89309 
L 533.364248 144.505207 
L 534.78518 152.895793 
L 536.206112 158.826112 
L 537.627044 170.358396 
L 539.047976 179.113394 
L 540.468908 181.845451 
L 541.88984 176.930275 
L 543.310772 176.455844 
L 544.731704 165.89443 
L 546.152636 181.355875 
L 547.573568 183.699521 
L 548.9945 173.885903 
L 550.415432 163.262486 
L 551.836364 171.04309 
L 551.836364 171.04309 
" style="fill:none;stroke:#1f77b4;stroke-linecap:square;stroke-width:1.5;"/>
   </g>
   <g id="patch_3">
    <path d="M 19.2 387.72 
L 19.2 7.2 
" style="fill:none;stroke:#000000;stroke-linecap:square;stroke-linejoin:miter;stroke-width:0.8;"/>
   </g>
   <g id="patch_4">
    <path d="M 577.2 387.72 
L 577.2 7.2 
" style="fill:none;stroke:#000000;stroke-linecap:square;stroke-linejoin:miter;stroke-width:0.8;"/>
   </g>
   <g id="patch_5">
    <path d="M 19.2 387.72 
L 577.2 387.72 
" style="fill:none;stroke:#000000;stroke-linecap:square;stroke-linejoin:miter;stroke-width:0.8;"/>
   </g>
   <g id="patch_6">
    <path d="M 19.2 7.2 
L 577.2 7.2 
" style="fill:none;stroke:#000000;stroke-linecap:square;stroke-linejoin:miter;stroke-width:0.8;"/>
   </g>
  </g>
 </g>
 <defs>
  <clipPath id="pefa55c4e13">
   <rect height="380.52" width="558" x="19.2" y="7.2"/>
  </clipPath>
 </defs>
</svg>
