<?xml version="1.0" encoding="utf-8" standalone="no"?>
<!DOCTYPE svg PUBLIC "-//W3C//DTD SVG 1.1//EN"
  "http://www.w3.org/Graphics/SVG/1.1/DTD/svg11.dtd">
<!-- Created with matplotlib (https://matplotlib.org/) -->
<svg height="423.302812pt" version="1.1" viewBox="0 0 589.4 423.302812" width="589.4pt" xmlns="http://www.w3.org/2000/svg" xmlns:xlink="http://www.w3.org/1999/xlink">
 <defs>
  <style type="text/css">
*{stroke-linecap:butt;stroke-linejoin:round;}
  </style>
 </defs>
 <g id="figure_1">
  <g id="patch_1">
   <path d="M 0 423.302812 
L 589.4 423.302812 
L 589.4 0 
L 0 0 
z
" style="fill:none;"/>
  </g>
  <g id="axes_1">
   <g id="patch_2">
    <path d="M 24.2 387.72 
L 582.2 387.72 
L 582.2 7.2 
L 24.2 7.2 
z
" style="fill:#ffffff;"/>
   </g>
   <g id="matplotlib.axis_1">
    <g id="xtick_1">
     <g id="line2d_1">
      <defs>
       <path d="M 0 0 
L 0 3.5 
" id="mf1a09b9154" style="stroke:#000000;stroke-width:0.8;"/>
      </defs>
      <g>
       <use style="stroke:#000000;stroke-width:0.8;" x="39.617112" xlink:href="#mf1a09b9154" y="387.72"/>
      </g>
     </g>
     <g id="text_1">
      <!-- 1990-12 -->
      <defs>
       <path d="M 21.875 56.25 
Q 16.796875 51.171875 8.984375 46.484375 
L 8.984375 53.90625 
Q 18.75 60.546875 25 69.53125 
L 29.6875 69.53125 
L 29.6875 2.34375 
L 21.875 2.34375 
z
" id="SimHei-49"/>
       <path d="M 12.5 1.171875 
Q 21.09375 15.625 26.5625 27.34375 
Q 16.796875 25.78125 10.34375 29.875 
Q 3.90625 33.984375 2.53125 41.015625 
Q 1.171875 48.046875 2.734375 53.703125 
Q 4.296875 59.375 7.609375 63.078125 
Q 10.9375 66.796875 15.625 68.359375 
Q 20.3125 69.921875 24.015625 69.921875 
Q 27.734375 69.921875 31.640625 68.359375 
Q 35.546875 66.796875 38.671875 63.671875 
Q 41.796875 60.546875 42.96875 57.21875 
Q 44.140625 53.90625 44.140625 48.625 
Q 44.140625 43.359375 40.234375 35.15625 
Q 36.328125 26.953125 21.09375 1.171875 
z
M 9.765625 50 
Q 10.9375 39.84375 14.640625 36.515625 
Q 18.359375 33.203125 22.65625 33.59375 
Q 26.953125 33.984375 29.484375 35.9375 
Q 32.03125 37.890625 34.375 42.578125 
Q 35.9375 48.4375 35.15625 52.53125 
Q 34.375 56.640625 31.046875 59.375 
Q 27.734375 62.109375 23.828125 62.109375 
Q 21.484375 62.5 17.765625 60.9375 
Q 14.0625 59.375 11.90625 54.6875 
Q 9.765625 50 10.9375 39.84375 
z
" id="SimHei-57"/>
       <path d="M 3.125 29.296875 
Q 3.90625 50 6.4375 56.046875 
Q 8.984375 62.109375 13.671875 66.015625 
Q 18.359375 69.921875 25.1875 69.921875 
Q 32.03125 69.921875 37.109375 64.25 
Q 42.1875 58.59375 43.75 50 
Q 45.3125 41.40625 44.71875 30.265625 
Q 44.140625 19.140625 40.8125 12.109375 
Q 37.5 5.078125 30.859375 2.34375 
Q 24.21875 -0.390625 17.578125 2.921875 
Q 10.9375 6.25 8.203125 11.71875 
Q 5.46875 17.1875 4.296875 23.234375 
Q 3.125 29.296875 3.90625 50 
z
M 12.890625 52.734375 
Q 10.546875 31.25 12.5 22.84375 
Q 14.453125 14.453125 18.9375 10.9375 
Q 23.4375 7.421875 28.125 9.5625 
Q 32.8125 11.71875 34.953125 18.15625 
Q 37.109375 24.609375 37.109375 32.21875 
Q 37.109375 39.84375 36.515625 46.09375 
Q 35.9375 52.34375 33 57.421875 
Q 30.078125 62.5 25.1875 62.6875 
Q 20.3125 62.890625 16.59375 57.8125 
Q 12.890625 52.734375 10.546875 31.25 
z
" id="SimHei-48"/>
       <path d="M 46.484375 33.203125 
L 1.953125 33.203125 
L 1.953125 39.453125 
L 46.484375 39.453125 
z
" id="SimHei-45"/>
       <path d="M 4.6875 3.90625 
Q 5.078125 9.765625 10.15625 14.453125 
Q 15.234375 19.140625 23.046875 29.09375 
Q 30.859375 39.0625 33.203125 44.53125 
Q 35.546875 50 34.953125 53.90625 
Q 34.375 57.8125 31.25 60.34375 
Q 28.125 62.890625 24.015625 62.5 
Q 19.921875 62.109375 16.203125 59.375 
Q 12.5 56.640625 10.546875 51.171875 
L 3.125 52.34375 
Q 6.25 61.328125 11.125 65.421875 
Q 16.015625 69.53125 22.65625 69.921875 
Q 26.5625 70.3125 29.6875 69.71875 
Q 32.8125 69.140625 36.125 66.984375 
Q 39.453125 64.84375 41.59375 60.546875 
Q 43.75 56.25 43.15625 50.1875 
Q 42.578125 44.140625 37.109375 35.734375 
Q 31.640625 27.34375 16.015625 9.375 
L 44.140625 9.375 
L 44.140625 2.34375 
L 4.6875 2.34375 
z
" id="SimHei-50"/>
      </defs>
      <g transform="translate(22.117112 401.595)scale(0.1 -0.1)">
       <use xlink:href="#SimHei-49"/>
       <use x="50" xlink:href="#SimHei-57"/>
       <use x="100" xlink:href="#SimHei-57"/>
       <use x="150" xlink:href="#SimHei-48"/>
       <use x="200" xlink:href="#SimHei-45"/>
       <use x="250" xlink:href="#SimHei-49"/>
       <use x="300" xlink:href="#SimHei-50"/>
      </g>
     </g>
    </g>
    <g id="xtick_2">
     <g id="line2d_2">
      <g>
       <use style="stroke:#000000;stroke-width:0.8;" x="110.663713" xlink:href="#mf1a09b9154" y="387.72"/>
      </g>
     </g>
     <g id="text_2">
      <!-- 1995-02 -->
      <defs>
       <path d="M 8.59375 20.703125 
Q 11.328125 10.15625 17.96875 8.984375 
Q 24.609375 7.8125 28.703125 10.34375 
Q 32.8125 12.890625 34.5625 16.984375 
Q 36.328125 21.09375 36.125 26.171875 
Q 35.9375 31.25 33.390625 34.765625 
Q 30.859375 38.28125 26.953125 39.453125 
Q 23.046875 40.625 18.15625 39.453125 
Q 13.28125 38.28125 10.15625 33.984375 
L 3.515625 34.765625 
Q 4.296875 37.109375 10.9375 68.359375 
L 41.796875 68.359375 
L 41.796875 61.328125 
L 16.796875 61.328125 
Q 14.84375 50.78125 12.890625 44.53125 
Q 18.75 47.265625 23.828125 47.0625 
Q 28.90625 46.875 33.59375 44.71875 
Q 38.28125 42.578125 40.421875 38.859375 
Q 42.578125 35.15625 43.546875 31.4375 
Q 44.53125 27.734375 44.328125 23.4375 
Q 44.140625 19.140625 42.578125 14.640625 
Q 41.015625 10.15625 37.890625 7.21875 
Q 34.765625 4.296875 30.265625 2.53125 
Q 25.78125 0.78125 19.921875 1.171875 
Q 14.0625 1.5625 8.78125 5.46875 
Q 3.515625 9.375 1.5625 18.75 
z
" id="SimHei-53"/>
      </defs>
      <g transform="translate(93.163713 401.595)scale(0.1 -0.1)">
       <use xlink:href="#SimHei-49"/>
       <use x="50" xlink:href="#SimHei-57"/>
       <use x="100" xlink:href="#SimHei-57"/>
       <use x="150" xlink:href="#SimHei-53"/>
       <use x="200" xlink:href="#SimHei-45"/>
       <use x="250" xlink:href="#SimHei-48"/>
       <use x="300" xlink:href="#SimHei-50"/>
      </g>
     </g>
    </g>
    <g id="xtick_3">
     <g id="line2d_3">
      <g>
       <use style="stroke:#000000;stroke-width:0.8;" x="181.710313" xlink:href="#mf1a09b9154" y="387.72"/>
      </g>
     </g>
     <g id="text_3">
      <!-- 1999-04 -->
      <defs>
       <path d="M 31.25 17.1875 
L 1.171875 17.1875 
L 1.171875 23.828125 
L 32.8125 69.53125 
L 38.671875 69.53125 
L 38.671875 23.828125 
L 48.046875 23.828125 
L 48.046875 17.1875 
L 38.671875 17.1875 
L 38.671875 2.34375 
L 31.25 2.34375 
z
M 31.25 23.828125 
L 31.25 54.6875 
L 9.375 23.828125 
z
" id="SimHei-52"/>
      </defs>
      <g transform="translate(164.210313 401.595)scale(0.1 -0.1)">
       <use xlink:href="#SimHei-49"/>
       <use x="50" xlink:href="#SimHei-57"/>
       <use x="100" xlink:href="#SimHei-57"/>
       <use x="150" xlink:href="#SimHei-57"/>
       <use x="200" xlink:href="#SimHei-45"/>
       <use x="250" xlink:href="#SimHei-48"/>
       <use x="300" xlink:href="#SimHei-52"/>
      </g>
     </g>
    </g>
    <g id="xtick_4">
     <g id="line2d_4">
      <g>
       <use style="stroke:#000000;stroke-width:0.8;" x="252.756914" xlink:href="#mf1a09b9154" y="387.72"/>
      </g>
     </g>
     <g id="text_4">
      <!-- 2003-06 -->
      <defs>
       <path d="M 3.90625 19.140625 
L 10.9375 20.3125 
Q 12.5 15.234375 16.015625 11.90625 
Q 19.53125 8.59375 24.796875 8.78125 
Q 30.078125 8.984375 33.203125 13.078125 
Q 36.328125 17.1875 35.9375 22.453125 
Q 35.546875 27.734375 31.828125 30.65625 
Q 28.125 33.59375 19.921875 34.765625 
L 19.921875 39.84375 
Q 28.125 40.625 31.828125 44.140625 
Q 35.546875 47.65625 35.15625 53.3125 
Q 34.765625 58.984375 30.078125 61.515625 
Q 25.390625 64.0625 20.109375 62.109375 
Q 14.84375 60.15625 11.71875 51.171875 
L 4.6875 52.34375 
Q 7.03125 59.375 11.125 64.0625 
Q 15.234375 68.75 22.265625 69.53125 
Q 29.296875 70.3125 34.5625 67.765625 
Q 39.84375 65.234375 41.984375 59.953125 
Q 44.140625 54.6875 42.578125 48.4375 
Q 41.015625 42.1875 33.59375 37.5 
Q 39.0625 35.15625 41.984375 30.46875 
Q 44.921875 25.78125 43.9375 18.15625 
Q 42.96875 10.546875 37.109375 5.859375 
Q 31.25 1.171875 23.828125 1.359375 
Q 16.40625 1.5625 10.9375 6.046875 
Q 5.46875 10.546875 3.90625 19.140625 
z
" id="SimHei-51"/>
       <path d="M 3.515625 19.53125 
Q 4.296875 30.859375 6.046875 34.765625 
Q 7.8125 38.671875 11.328125 44.53125 
L 27.34375 69.53125 
L 36.328125 69.53125 
L 19.921875 43.75 
Q 30.46875 46.484375 36.71875 42.96875 
Q 42.96875 39.453125 45.109375 34.953125 
Q 47.265625 30.46875 47.453125 25.1875 
Q 47.65625 19.921875 45.890625 14.84375 
Q 44.140625 9.765625 39.640625 5.65625 
Q 35.15625 1.5625 27.140625 1.171875 
Q 19.140625 0.78125 13.46875 4.09375 
Q 7.8125 7.421875 5.65625 13.46875 
Q 3.515625 19.53125 4.296875 30.859375 
z
M 12.5 16.015625 
Q 19.53125 8.59375 25.390625 8.203125 
Q 31.25 7.8125 35.15625 12.109375 
Q 39.0625 16.40625 39.0625 24.609375 
Q 39.0625 32.8125 34.171875 35.9375 
Q 29.296875 39.0625 23.234375 38.28125 
Q 17.1875 37.5 14.453125 32.421875 
Q 11.71875 27.34375 12.109375 21.671875 
Q 12.5 16.015625 19.53125 8.59375 
z
" id="SimHei-54"/>
      </defs>
      <g transform="translate(235.256914 401.595)scale(0.1 -0.1)">
       <use xlink:href="#SimHei-50"/>
       <use x="50" xlink:href="#SimHei-48"/>
       <use x="100" xlink:href="#SimHei-48"/>
       <use x="150" xlink:href="#SimHei-51"/>
       <use x="200" xlink:href="#SimHei-45"/>
       <use x="250" xlink:href="#SimHei-48"/>
       <use x="300" xlink:href="#SimHei-54"/>
      </g>
     </g>
    </g>
    <g id="xtick_5">
     <g id="line2d_5">
      <g>
       <use style="stroke:#000000;stroke-width:0.8;" x="323.803514" xlink:href="#mf1a09b9154" y="387.72"/>
      </g>
     </g>
     <g id="text_5">
      <!-- 2007-08 -->
      <defs>
       <path d="M 13.28125 2.34375 
Q 20.3125 32.03125 37.890625 61.328125 
L 4.296875 61.328125 
L 4.296875 68.359375 
L 46.09375 68.359375 
L 46.09375 61.71875 
Q 27.734375 32.03125 21.875 2.34375 
L 13.28125 2.34375 
z
" id="SimHei-55"/>
       <path d="M 2.734375 16.796875 
Q 2.734375 26.171875 5.078125 30.65625 
Q 7.421875 35.15625 12.890625 37.890625 
Q 8.203125 40.625 6.640625 43.9375 
Q 5.078125 47.265625 4.875 51.5625 
Q 4.6875 55.859375 6.046875 58.984375 
Q 7.421875 62.109375 10.15625 64.84375 
Q 12.890625 67.578125 16.203125 68.546875 
Q 19.53125 69.53125 23.4375 69.53125 
Q 27.34375 69.53125 30.46875 68.75 
Q 33.59375 67.96875 37.109375 65.421875 
Q 40.625 62.890625 42.1875 58.203125 
Q 43.75 53.515625 41.984375 47.265625 
Q 40.234375 41.015625 32.8125 37.5 
Q 39.453125 35.546875 42.1875 31.4375 
Q 44.921875 27.34375 44.921875 21.484375 
Q 44.921875 15.625 43.15625 12.109375 
Q 41.40625 8.59375 39.25 6.25 
Q 37.109375 3.90625 33.390625 2.53125 
Q 29.6875 1.171875 24.015625 1.171875 
Q 18.359375 1.171875 14.25 2.53125 
Q 10.15625 3.90625 7.421875 6.640625 
Q 4.6875 9.375 3.703125 13.078125 
Q 2.734375 16.796875 2.734375 26.171875 
z
M 10.9375 26.5625 
Q 10.546875 17.1875 12.296875 13.671875 
Q 14.0625 10.15625 18.75 9.171875 
Q 23.4375 8.203125 28.515625 9.375 
Q 33.59375 10.546875 35.546875 14.84375 
Q 37.5 19.140625 36.90625 23.4375 
Q 36.328125 27.734375 32.03125 30.65625 
Q 27.734375 33.59375 22.65625 33.203125 
Q 17.578125 32.8125 14.25 29.6875 
Q 10.9375 26.5625 10.546875 17.1875 
z
M 12.109375 56.25 
Q 12.109375 48.4375 14.84375 44.921875 
Q 17.578125 41.40625 23.4375 41.40625 
Q 29.296875 41.40625 32.21875 44.921875 
Q 35.15625 48.4375 34.953125 53.3125 
Q 34.765625 58.203125 31.4375 60.546875 
Q 28.125 62.890625 22.453125 62.5 
Q 16.796875 62.109375 14.453125 59.171875 
Q 12.109375 56.25 12.109375 48.4375 
z
" id="SimHei-56"/>
      </defs>
      <g transform="translate(306.303514 401.595)scale(0.1 -0.1)">
       <use xlink:href="#SimHei-50"/>
       <use x="50" xlink:href="#SimHei-48"/>
       <use x="100" xlink:href="#SimHei-48"/>
       <use x="150" xlink:href="#SimHei-55"/>
       <use x="200" xlink:href="#SimHei-45"/>
       <use x="250" xlink:href="#SimHei-48"/>
       <use x="300" xlink:href="#SimHei-56"/>
      </g>
     </g>
    </g>
    <g id="xtick_6">
     <g id="line2d_6">
      <g>
       <use style="stroke:#000000;stroke-width:0.8;" x="394.850115" xlink:href="#mf1a09b9154" y="387.72"/>
      </g>
     </g>
     <g id="text_6">
      <!-- 2011-10 -->
      <g transform="translate(377.350115 401.595)scale(0.1 -0.1)">
       <use xlink:href="#SimHei-50"/>
       <use x="50" xlink:href="#SimHei-48"/>
       <use x="100" xlink:href="#SimHei-49"/>
       <use x="150" xlink:href="#SimHei-49"/>
       <use x="200" xlink:href="#SimHei-45"/>
       <use x="250" xlink:href="#SimHei-49"/>
       <use x="300" xlink:href="#SimHei-48"/>
      </g>
     </g>
    </g>
    <g id="xtick_7">
     <g id="line2d_7">
      <g>
       <use style="stroke:#000000;stroke-width:0.8;" x="465.896715" xlink:href="#mf1a09b9154" y="387.72"/>
      </g>
     </g>
     <g id="text_7">
      <!-- 2015-12 -->
      <g transform="translate(448.396715 401.595)scale(0.1 -0.1)">
       <use xlink:href="#SimHei-50"/>
       <use x="50" xlink:href="#SimHei-48"/>
       <use x="100" xlink:href="#SimHei-49"/>
       <use x="150" xlink:href="#SimHei-53"/>
       <use x="200" xlink:href="#SimHei-45"/>
       <use x="250" xlink:href="#SimHei-49"/>
       <use x="300" xlink:href="#SimHei-50"/>
      </g>
     </g>
    </g>
    <g id="xtick_8">
     <g id="line2d_8">
      <g>
       <use style="stroke:#000000;stroke-width:0.8;" x="536.943316" xlink:href="#mf1a09b9154" y="387.72"/>
      </g>
     </g>
     <g id="text_8">
      <!-- 2020-02 -->
      <g transform="translate(519.443316 401.595)scale(0.1 -0.1)">
       <use xlink:href="#SimHei-50"/>
       <use x="50" xlink:href="#SimHei-48"/>
       <use x="100" xlink:href="#SimHei-50"/>
       <use x="150" xlink:href="#SimHei-48"/>
       <use x="200" xlink:href="#SimHei-45"/>
       <use x="250" xlink:href="#SimHei-48"/>
       <use x="300" xlink:href="#SimHei-50"/>
      </g>
     </g>
    </g>
    <g id="text_9">
     <!-- 交易月份 -->
     <defs>
      <path d="M 36.328125 40.625 
Q 43.359375 24.609375 50 17.96875 
Q 60.546875 28.515625 66.015625 42.578125 
Q 69.140625 40.234375 73.828125 37.5 
Q 64.453125 22.65625 55.46875 12.890625 
Q 68.75 2.734375 93.75 0.390625 
Q 89.84375 -5.078125 89.0625 -8.59375 
Q 64.0625 -3.90625 49.21875 8.203125 
Q 32.421875 -4.296875 10.15625 -9.375 
Q 8.984375 -4.6875 5.859375 -0.78125 
Q 29.6875 1.953125 43.359375 13.28125 
Q 34.375 23.828125 28.90625 36.71875 
Q 33.59375 38.671875 36.328125 40.625 
z
M 19.53125 58.203125 
Q 13.671875 58.203125 8.203125 57.8125 
L 8.203125 65.625 
L 19.140625 64.84375 
L 80.078125 64.84375 
Q 86.328125 65.234375 92.96875 65.625 
L 92.96875 57.421875 
Q 86.328125 57.8125 80.078125 58.203125 
z
M 39.453125 51.5625 
Q 33.984375 46.484375 16.015625 31.25 
Q 12.890625 35.15625 8.59375 37.5 
Q 16.015625 41.40625 22.0625 47.265625 
Q 28.125 53.125 31.25 57.421875 
Q 35.15625 54.6875 39.453125 51.5625 
z
M 67.578125 57.421875 
Q 69.53125 55.859375 76.5625 50.578125 
Q 83.59375 45.3125 90.234375 40.625 
Q 85.9375 37.5 82.8125 33.984375 
Q 79.296875 38.671875 60.9375 51.5625 
Q 64.0625 54.6875 67.578125 57.421875 
z
M 50.78125 82.8125 
Q 54.6875 73.828125 56.640625 68.359375 
Q 51.171875 66.796875 47.265625 65.625 
Q 44.921875 72.265625 41.40625 80.078125 
Q 46.09375 81.640625 50.78125 82.8125 
z
" id="SimHei-20132"/>
      <path d="M 81.25 78.125 
Q 80.859375 71.09375 80.859375 65.625 
L 80.859375 56.25 
Q 80.859375 51.953125 81.25 44.53125 
L 40.625 44.53125 
Q 38.671875 41.015625 34.375 36.328125 
L 88.28125 36.328125 
L 87.109375 23.828125 
L 84.375 0.78125 
Q 83.203125 -5.078125 77.140625 -6.828125 
Q 71.09375 -8.59375 65.234375 -8.984375 
Q 63.28125 -3.125 60.9375 -0.390625 
Q 65.234375 -0.78125 70.5 -0.1875 
Q 75.78125 0.390625 76.953125 5.078125 
L 80.078125 30.46875 
L 69.921875 30.46875 
Q 60.9375 10.9375 49.609375 2.734375 
Q 38.28125 -5.46875 23.828125 -9.375 
Q 23.046875 -6.640625 18.359375 -3.515625 
Q 25.390625 -2.34375 33.78125 1.359375 
Q 42.1875 5.078125 49.40625 12.296875 
Q 56.640625 19.53125 61.71875 30.46875 
L 49.609375 30.46875 
Q 40.234375 13.671875 16.796875 4.296875 
Q 14.84375 7.8125 10.546875 9.375 
Q 17.578125 11.328125 26.953125 16.59375 
Q 36.328125 21.875 41.796875 30.46875 
L 28.90625 30.46875 
Q 17.96875 22.265625 11.328125 19.140625 
Q 10.15625 22.265625 5.859375 25 
Q 12.109375 27.34375 19.921875 32.8125 
Q 27.734375 38.28125 31.640625 44.53125 
L 19.140625 44.53125 
Q 19.53125 51.171875 19.53125 57.03125 
L 19.53125 65.625 
Q 19.53125 70.703125 19.140625 78.125 
L 81.25 78.125 
z
M 73.4375 50.390625 
L 73.4375 58.203125 
L 26.953125 58.203125 
L 26.953125 50.390625 
z
M 73.4375 64.453125 
L 73.4375 71.875 
L 26.953125 71.875 
L 26.953125 64.453125 
z
" id="SimHei-26131"/>
      <path d="M 82.03125 75.390625 
Q 81.25 66.015625 81.25 58.59375 
L 81.25 3.125 
Q 81.25 -4.296875 77.34375 -5.859375 
Q 73.4375 -7.421875 62.109375 -8.203125 
Q 61.328125 -3.515625 58.59375 0.78125 
Q 67.1875 0.390625 70.5 0.78125 
Q 73.828125 1.171875 73.828125 6.25 
L 73.828125 25 
L 28.90625 25 
Q 26.953125 12.109375 22.65625 3.515625 
Q 18.359375 -5.078125 14.0625 -8.984375 
Q 10.9375 -6.25 6.25 -5.078125 
Q 12.5 0.390625 16.203125 8 
Q 19.921875 15.625 20.890625 23.046875 
Q 21.875 30.46875 21.875 39.453125 
L 21.875 56.640625 
Q 21.875 65.234375 21.484375 75.390625 
L 82.03125 75.390625 
z
M 73.828125 53.125 
L 73.828125 69.53125 
L 29.296875 69.53125 
L 29.296875 53.125 
z
M 73.828125 31.25 
L 73.828125 47.265625 
L 29.296875 47.265625 
L 29.296875 31.25 
z
" id="SimHei-26376"/>
      <path d="M 74.21875 79.6875 
Q 76.171875 68.359375 82.03125 57.03125 
Q 87.890625 45.703125 96.875 38.28125 
Q 94.140625 37.109375 90.234375 32.421875 
Q 87.5 35.546875 83.59375 40.234375 
Q 82.8125 35.546875 82.421875 20.5 
Q 82.03125 5.46875 81.046875 0.390625 
Q 80.078125 -4.6875 75.78125 -6.25 
Q 71.484375 -7.8125 63.671875 -8.59375 
Q 62.5 -3.90625 60.546875 0 
Q 68.75 -0.390625 71.484375 0.390625 
Q 74.21875 1.171875 74.609375 9.171875 
Q 75 17.1875 75.390625 35.15625 
L 57.8125 35.15625 
Q 57.421875 20.3125 53.515625 10.15625 
Q 49.609375 0 37.109375 -9.765625 
Q 33.984375 -5.46875 31.25 -3.515625 
Q 42.96875 3.515625 46.671875 12.5 
Q 50.390625 21.484375 50.390625 35.15625 
Q 46.875 35.15625 41.796875 34.765625 
L 41.796875 40.234375 
Q 38.671875 35.9375 33.59375 30.46875 
Q 31.25 33.59375 27.34375 35.9375 
Q 44.921875 51.171875 50.390625 76.171875 
Q 53.90625 74.609375 58.59375 73.046875 
Q 56.640625 68.75 53.515625 60.734375 
Q 50.390625 52.734375 43.359375 42.1875 
Q 47.65625 41.796875 53.125 41.796875 
L 82.8125 41.796875 
Q 71.484375 56.640625 66.796875 77.734375 
Q 71.484375 78.515625 74.21875 79.6875 
z
M 3.515625 39.453125 
Q 8.984375 44.921875 16.015625 57.609375 
Q 23.046875 70.3125 25.78125 81.640625 
Q 30.859375 79.296875 34.375 77.734375 
Q 32.03125 74.21875 25 58.984375 
L 25 9.765625 
Q 25 1.171875 25.390625 -8.984375 
L 17.1875 -8.984375 
Q 17.578125 0.78125 17.578125 9.765625 
L 17.578125 45.703125 
Q 12.109375 37.5 8.984375 33.984375 
Q 6.640625 36.71875 3.515625 39.453125 
z
" id="SimHei-20221"/>
     </defs>
     <g transform="translate(283.2 414.852812)scale(0.1 -0.1)">
      <use xlink:href="#SimHei-20132"/>
      <use x="100" xlink:href="#SimHei-26131"/>
      <use x="200" xlink:href="#SimHei-26376"/>
      <use x="300" xlink:href="#SimHei-20221"/>
     </g>
    </g>
   </g>
   <g id="matplotlib.axis_2">
    <g id="ytick_1">
     <g id="line2d_9">
      <defs>
       <path d="M 0 0 
L -3.5 0 
" id="mad69e5a807" style="stroke:#000000;stroke-width:0.8;"/>
      </defs>
      <g>
       <use style="stroke:#000000;stroke-width:0.8;" x="24.2" xlink:href="#mad69e5a807" y="378.882167"/>
      </g>
     </g>
     <g id="text_10">
      <!-- 0 -->
      <g transform="translate(12.2 382.319667)scale(0.1 -0.1)">
       <use xlink:href="#SimHei-48"/>
      </g>
     </g>
    </g>
    <g id="ytick_2">
     <g id="line2d_10">
      <g>
       <use style="stroke:#000000;stroke-width:0.8;" x="24.2" xlink:href="#mad69e5a807" y="296.791666"/>
      </g>
     </g>
     <g id="text_11">
      <!-- 10 -->
      <g transform="translate(7.2 300.229166)scale(0.1 -0.1)">
       <use xlink:href="#SimHei-49"/>
       <use x="50" xlink:href="#SimHei-48"/>
      </g>
     </g>
    </g>
    <g id="ytick_3">
     <g id="line2d_11">
      <g>
       <use style="stroke:#000000;stroke-width:0.8;" x="24.2" xlink:href="#mad69e5a807" y="214.701164"/>
      </g>
     </g>
     <g id="text_12">
      <!-- 20 -->
      <g transform="translate(7.2 218.138664)scale(0.1 -0.1)">
       <use xlink:href="#SimHei-50"/>
       <use x="50" xlink:href="#SimHei-48"/>
      </g>
     </g>
    </g>
    <g id="ytick_4">
     <g id="line2d_12">
      <g>
       <use style="stroke:#000000;stroke-width:0.8;" x="24.2" xlink:href="#mad69e5a807" y="132.610662"/>
      </g>
     </g>
     <g id="text_13">
      <!-- 30 -->
      <g transform="translate(7.2 136.048162)scale(0.1 -0.1)">
       <use xlink:href="#SimHei-51"/>
       <use x="50" xlink:href="#SimHei-48"/>
      </g>
     </g>
    </g>
    <g id="ytick_5">
     <g id="line2d_13">
      <g>
       <use style="stroke:#000000;stroke-width:0.8;" x="24.2" xlink:href="#mad69e5a807" y="50.52016"/>
      </g>
     </g>
     <g id="text_14">
      <!-- 40 -->
      <g transform="translate(7.2 53.95766)scale(0.1 -0.1)">
       <use xlink:href="#SimHei-52"/>
       <use x="50" xlink:href="#SimHei-48"/>
      </g>
     </g>
    </g>
   </g>
   <g id="line2d_14">
    <path clip-path="url(#p92d6bb0f99)" d="M 52.4055 370.423636 
L 53.826432 370.126158 
M 56.668296 369.709241 
L 58.089228 369.239844 
L 59.51016 363.251315 
L 60.931092 362.484559 
L 62.352024 365.083892 
L 63.772956 362.552515 
L 65.193888 360.811954 
L 66.61482 361.496761 
L 68.035752 363.919521 
L 69.456684 365.522874 
L 70.877617 366.895501 
L 72.298549 363.679203 
L 73.719481 363.825577 
L 75.140413 360.476359 
L 76.561345 359.326714 
L 77.982277 363.185513 
L 79.403209 357.207568 
L 80.824141 359.694555 
L 82.245073 357.201969 
L 83.666005 357.638976 
L 85.086937 357.491421 
L 86.507869 356.86294 
L 87.928801 355.937912 
L 89.349733 353.583533 
L 90.770665 353.724902 
L 92.191597 351.705679 
L 93.612529 351.946925 
L 95.033461 348.86486 
L 96.454393 348.526264 
L 99.296257 349.484273 
L 100.717189 350.968338 
L 102.138121 344.74975 
L 103.559053 341.99366 
L 104.979985 340.856904 
L 106.400917 341.335566 
L 107.821849 340.879525 
L 109.242781 341.660289 
L 110.663713 341.861697 
L 112.084645 340.65905 
L 113.505577 340.921375 
L 114.926509 337.370902 
L 116.347441 337.320549 
L 117.768373 337.393531 
L 119.189305 339.048305 
L 120.610237 339.642587 
L 123.452101 338.595504 
L 126.293965 338.961118 
L 127.714897 339.717223 
L 129.135829 339.764965 
L 130.556761 337.278441 
L 133.398625 346.700513 
L 134.819557 343.74038 
L 136.240489 345.789638 
L 137.661421 345.417943 
L 139.082353 340.934004 
L 140.503285 338.81513 
L 141.924217 342.262458 
L 143.345149 341.113771 
L 144.766081 339.265801 
L 146.187013 337.973436 
L 147.607945 340.426406 
L 149.028877 342.332465 
L 150.449809 341.993284 
L 151.870741 340.30868 
L 153.291673 339.722324 
L 154.712605 338.931413 
L 156.133537 340.692282 
L 157.554469 339.536885 
L 158.975401 337.022053 
L 160.396333 335.502782 
L 161.817265 334.624523 
L 163.238197 332.469751 
L 164.659129 328.635157 
L 166.080061 324.37215 
L 167.500993 323.300157 
L 168.921925 322.885181 
L 170.342857 321.661591 
L 171.763789 317.280612 
L 173.184721 313.954744 
L 174.605653 315.066561 
L 176.026585 316.86246 
L 177.447517 315.691466 
L 178.868449 315.312954 
L 180.289381 311.945247 
L 181.710313 312.947025 
L 183.131245 315.651949 
L 184.552177 319.541935 
L 185.973109 317.770688 
L 187.394041 314.950271 
L 188.814973 314.334479 
L 190.235905 312.590336 
L 191.656837 310.492664 
L 193.077769 311.880013 
L 194.498701 312.054085 
L 195.919633 309.491763 
L 197.340565 304.225239 
L 198.761497 305.146729 
L 200.182429 302.875309 
L 201.603361 304.517133 
L 203.024293 302.984173 
L 204.445225 299.565272 
L 205.866157 297.127467 
L 207.287089 294.324262 
L 208.708021 293.218244 
L 210.128953 291.638087 
L 212.970817 293.599738 
L 214.391749 291.159893 
L 215.812681 288.381816 
L 217.233613 282.110504 
L 218.654545 281.840995 
L 220.075477 282.62072 
L 221.496409 280.984372 
L 222.917341 283.350562 
L 224.338273 285.365514 
L 225.759206 283.007585 
L 227.180138 284.547907 
L 228.60107 287.629712 
L 230.022002 286.681873 
L 231.442934 284.169876 
L 232.863866 282.054004 
L 234.284798 282.159062 
L 235.70573 287.438499 
L 237.126662 286.705213 
L 238.547594 286.198608 
L 239.968526 286.608269 
L 241.389458 287.834128 
L 242.81039 290.715981 
L 245.652254 289.404438 
L 247.073186 288.366586 
L 248.494118 290.33177 
L 249.91505 294.936125 
L 251.335982 295.798083 
L 252.756914 296.268422 
L 254.177846 299.509276 
L 255.598778 298.682449 
L 257.01971 299.558951 
L 258.440642 304.542195 
L 259.861574 305.06198 
L 261.282506 310.768428 
L 262.703438 308.934261 
L 264.12437 306.256585 
L 265.545302 305.271782 
L 266.966234 304.846093 
L 268.387166 303.58674 
L 269.808098 304.920448 
L 271.22903 308.311001 
L 272.649962 309.215723 
L 274.070894 309.881038 
L 275.491826 311.994749 
L 276.912758 308.799872 
L 278.33369 310.462925 
L 279.754622 310.57308 
L 281.175554 310.298204 
L 282.596486 312.10402 
L 284.017418 316.737288 
L 285.43835 314.034669 
L 286.859282 314.574525 
L 288.280214 320.156364 
L 289.701146 314.035902 
L 291.122078 312.057313 
L 292.54301 312.421842 
L 293.963942 310.738601 
L 295.384874 314.933042 
L 299.64767 316.899519 
L 301.068602 320.251541 
L 302.489534 313.270861 
L 305.331398 306.463604 
L 306.75233 306.336944 
L 308.173262 304.285873 
L 309.594194 307.991071 
L 311.015126 317.35855 
L 312.436058 323.37759 
L 313.85699 319.645184 
L 315.277922 313.613082 
L 316.698854 306.442816 
L 318.119786 303.16298 
L 319.540718 305.213077 
L 320.96165 313.571646 
L 322.382582 308.17151 
L 323.803514 310.518397 
L 325.224446 311.707106 
L 326.645378 320.335541 
L 328.06631 314.995152 
L 329.487242 310.874248 
L 330.908174 306.017191 
L 332.329106 299.842175 
L 333.750038 299.466261 
L 335.17097 307.049051 
L 336.591902 303.815267 
L 338.012834 306.537944 
L 339.433766 300.180478 
L 340.854698 307.130782 
L 342.27563 309.331397 
L 343.696562 308.577606 
L 345.117494 301.87737 
L 346.538426 296.085377 
L 347.959358 292.706606 
L 349.38029 288.780964 
L 350.801222 281.936516 
L 353.643086 275.605169 
L 355.064018 285.081763 
L 356.48495 288.074559 
L 357.905882 282.466099 
L 359.326814 284.905137 
L 360.747746 281.853514 
L 362.168678 273.824393 
L 363.58961 272.507179 
L 366.431474 257.42493 
L 367.852406 254.775219 
L 369.273338 253.689407 
L 370.69427 253.302937 
L 372.115202 256.313699 
L 373.536134 250.873008 
L 374.957066 239.438077 
L 376.377998 239.066877 
L 377.79893 245.094734 
L 379.219862 237.679699 
L 380.640794 238.688873 
L 382.061727 242.542927 
L 383.482659 233.695465 
L 384.903591 231.943642 
L 386.324523 235.424028 
L 387.745455 237.176799 
L 389.166387 233.969582 
L 390.587319 229.945794 
L 392.008251 227.426088 
L 393.429183 231.294882 
L 394.850115 232.954797 
L 396.271047 231.516391 
L 397.691979 246.512479 
L 399.112911 251.368329 
L 400.533843 243.473692 
L 401.954775 243.175252 
L 403.375707 240.291073 
L 404.796639 238.425221 
L 406.217571 240.731103 
L 407.638503 247.416647 
L 409.059435 237.691485 
L 410.480367 240.372414 
L 411.901299 237.976611 
L 413.322231 246.75235 
L 414.743163 245.494474 
L 416.164095 241.668515 
L 417.585027 235.911579 
L 419.005959 232.310435 
L 420.426891 234.286369 
L 421.847823 222.67041 
L 423.268755 228.519759 
L 424.689687 220.716251 
L 426.110619 211.31993 
L 427.531551 210.340026 
L 428.952483 211.081106 
L 430.373415 204.229285 
L 431.794347 203.305372 
L 433.215279 193.311365 
L 434.636211 186.092846 
L 436.057143 186.723846 
L 437.478075 189.237661 
L 438.899007 186.662099 
L 440.319939 181.370665 
L 441.740871 179.740207 
L 443.161803 167.3484 
L 444.582735 145.190237 
L 446.003667 144.273698 
L 447.424599 154.430837 
L 448.845531 204.929693 
L 450.266463 196.16962 
L 451.687395 189.608047 
L 453.108327 170.103349 
L 454.529259 161.96703 
L 455.950191 115.586886 
L 457.371123 125.460722 
L 458.792055 140.383951 
L 460.212987 137.552977 
L 461.633919 136.779517 
L 463.054851 111.042068 
L 464.475783 81.076118 
L 465.896715 59.575117 
L 467.317647 79.878894 
L 468.738579 78.42514 
L 470.159511 59.803715 
L 471.580443 47.832849 
L 473.001375 60.846066 
L 474.422307 48.237207 
L 475.843239 54.650397 
L 477.264171 47.112332 
L 478.685103 35.66196 
L 480.106035 29.632267 
L 481.526967 33.385307 
L 482.947899 24.496364 
L 484.368831 39.217904 
L 485.789763 33.913368 
L 487.210695 41.775896 
L 488.631627 58.75931 
L 490.052559 81.484832 
L 491.473491 83.835163 
L 492.894423 91.713213 
L 494.315355 91.782421 
L 495.736287 92.408011 
L 497.157219 109.143258 
L 498.578151 122.991924 
L 499.999083 130.910959 
L 501.420015 149.93655 
L 502.840947 150.798988 
L 504.261879 137.238075 
L 505.682811 140.341268 
L 507.103743 145.90118 
L 508.524675 154.754457 
L 509.945607 156.667163 
L 511.366539 161.79033 
L 512.787471 171.002188 
L 514.208403 172.488322 
L 515.629335 158.230429 
L 517.050267 158.075972 
L 518.471199 173.778605 
L 519.892131 158.717235 
L 521.313063 145.25525 
L 522.733995 153.959488 
L 524.154927 150.37692 
L 525.575859 161.078735 
L 526.996791 167.024768 
L 528.417723 168.466458 
L 529.838655 167.561039 
L 531.259587 172.87175 
L 532.680519 174.732436 
L 534.101451 172.16015 
L 535.522383 167.643067 
L 536.943316 164.275493 
L 538.364248 158.533906 
L 539.78518 166.270334 
L 541.206112 160.380136 
L 542.627044 160.319829 
L 544.047976 158.84497 
L 545.468908 158.748814 
L 546.88984 166.190862 
L 548.310772 171.216545 
L 549.731704 173.244608 
L 551.152636 180.956222 
L 552.573568 195.722883 
L 553.9945 191.33402 
L 555.415432 179.55881 
L 556.836364 177.256824 
L 556.836364 177.256824 
" style="fill:none;stroke:#1f77b4;stroke-linecap:square;stroke-width:1.5;"/>
   </g>
   <g id="patch_3">
    <path d="M 24.2 387.72 
L 24.2 7.2 
" style="fill:none;stroke:#000000;stroke-linecap:square;stroke-linejoin:miter;stroke-width:0.8;"/>
   </g>
   <g id="patch_4">
    <path d="M 582.2 387.72 
L 582.2 7.2 
" style="fill:none;stroke:#000000;stroke-linecap:square;stroke-linejoin:miter;stroke-width:0.8;"/>
   </g>
   <g id="patch_5">
    <path d="M 24.2 387.72 
L 582.2 387.72 
" style="fill:none;stroke:#000000;stroke-linecap:square;stroke-linejoin:miter;stroke-width:0.8;"/>
   </g>
   <g id="patch_6">
    <path d="M 24.2 7.2 
L 582.2 7.2 
" style="fill:none;stroke:#000000;stroke-linecap:square;stroke-linejoin:miter;stroke-width:0.8;"/>
   </g>
  </g>
 </g>
 <defs>
  <clipPath id="p92d6bb0f99">
   <rect height="380.52" width="558" x="24.2" y="7.2"/>
  </clipPath>
 </defs>
</svg>
