<?xml version="1.0" encoding="utf-8" standalone="no"?>
<!DOCTYPE svg PUBLIC "-//W3C//DTD SVG 1.1//EN"
  "http://www.w3.org/Graphics/SVG/1.1/DTD/svg11.dtd">
<!-- Created with matplotlib (https://matplotlib.org/) -->
<svg height="423.302812pt" version="1.1" viewBox="0 0 584.4 423.302812" width="584.4pt" xmlns="http://www.w3.org/2000/svg" xmlns:xlink="http://www.w3.org/1999/xlink">
 <defs>
  <style type="text/css">
*{stroke-linecap:butt;stroke-linejoin:round;}
  </style>
 </defs>
 <g id="figure_1">
  <g id="patch_1">
   <path d="M 0 423.302812 
L 584.4 423.302812 
L 584.4 0 
L 0 0 
z
" style="fill:none;"/>
  </g>
  <g id="axes_1">
   <g id="patch_2">
    <path d="M 19.2 387.72 
L 577.2 387.72 
L 577.2 7.2 
L 19.2 7.2 
z
" style="fill:#ffffff;"/>
   </g>
   <g id="matplotlib.axis_1">
    <g id="xtick_1">
     <g id="line2d_1">
      <defs>
       <path d="M 0 0 
L 0 3.5 
" id="me367e42c67" style="stroke:#000000;stroke-width:0.8;"/>
      </defs>
      <g>
       <use style="stroke:#000000;stroke-width:0.8;" x="44.563636" xlink:href="#me367e42c67" y="387.72"/>
      </g>
     </g>
     <g id="text_1">
      <!-- 1990-51 -->
      <defs>
       <path d="M 21.875 56.25 
Q 16.796875 51.171875 8.984375 46.484375 
L 8.984375 53.90625 
Q 18.75 60.546875 25 69.53125 
L 29.6875 69.53125 
L 29.6875 2.34375 
L 21.875 2.34375 
z
" id="SimHei-49"/>
       <path d="M 12.5 1.171875 
Q 21.09375 15.625 26.5625 27.34375 
Q 16.796875 25.78125 10.34375 29.875 
Q 3.90625 33.984375 2.53125 41.015625 
Q 1.171875 48.046875 2.734375 53.703125 
Q 4.296875 59.375 7.609375 63.078125 
Q 10.9375 66.796875 15.625 68.359375 
Q 20.3125 69.921875 24.015625 69.921875 
Q 27.734375 69.921875 31.640625 68.359375 
Q 35.546875 66.796875 38.671875 63.671875 
Q 41.796875 60.546875 42.96875 57.21875 
Q 44.140625 53.90625 44.140625 48.625 
Q 44.140625 43.359375 40.234375 35.15625 
Q 36.328125 26.953125 21.09375 1.171875 
z
M 9.765625 50 
Q 10.9375 39.84375 14.640625 36.515625 
Q 18.359375 33.203125 22.65625 33.59375 
Q 26.953125 33.984375 29.484375 35.9375 
Q 32.03125 37.890625 34.375 42.578125 
Q 35.9375 48.4375 35.15625 52.53125 
Q 34.375 56.640625 31.046875 59.375 
Q 27.734375 62.109375 23.828125 62.109375 
Q 21.484375 62.5 17.765625 60.9375 
Q 14.0625 59.375 11.90625 54.6875 
Q 9.765625 50 10.9375 39.84375 
z
" id="SimHei-57"/>
       <path d="M 3.125 29.296875 
Q 3.90625 50 6.4375 56.046875 
Q 8.984375 62.109375 13.671875 66.015625 
Q 18.359375 69.921875 25.1875 69.921875 
Q 32.03125 69.921875 37.109375 64.25 
Q 42.1875 58.59375 43.75 50 
Q 45.3125 41.40625 44.71875 30.265625 
Q 44.140625 19.140625 40.8125 12.109375 
Q 37.5 5.078125 30.859375 2.34375 
Q 24.21875 -0.390625 17.578125 2.921875 
Q 10.9375 6.25 8.203125 11.71875 
Q 5.46875 17.1875 4.296875 23.234375 
Q 3.125 29.296875 3.90625 50 
z
M 12.890625 52.734375 
Q 10.546875 31.25 12.5 22.84375 
Q 14.453125 14.453125 18.9375 10.9375 
Q 23.4375 7.421875 28.125 9.5625 
Q 32.8125 11.71875 34.953125 18.15625 
Q 37.109375 24.609375 37.109375 32.21875 
Q 37.109375 39.84375 36.515625 46.09375 
Q 35.9375 52.34375 33 57.421875 
Q 30.078125 62.5 25.1875 62.6875 
Q 20.3125 62.890625 16.59375 57.8125 
Q 12.890625 52.734375 10.546875 31.25 
z
" id="SimHei-48"/>
       <path d="M 46.484375 33.203125 
L 1.953125 33.203125 
L 1.953125 39.453125 
L 46.484375 39.453125 
z
" id="SimHei-45"/>
       <path d="M 8.59375 20.703125 
Q 11.328125 10.15625 17.96875 8.984375 
Q 24.609375 7.8125 28.703125 10.34375 
Q 32.8125 12.890625 34.5625 16.984375 
Q 36.328125 21.09375 36.125 26.171875 
Q 35.9375 31.25 33.390625 34.765625 
Q 30.859375 38.28125 26.953125 39.453125 
Q 23.046875 40.625 18.15625 39.453125 
Q 13.28125 38.28125 10.15625 33.984375 
L 3.515625 34.765625 
Q 4.296875 37.109375 10.9375 68.359375 
L 41.796875 68.359375 
L 41.796875 61.328125 
L 16.796875 61.328125 
Q 14.84375 50.78125 12.890625 44.53125 
Q 18.75 47.265625 23.828125 47.0625 
Q 28.90625 46.875 33.59375 44.71875 
Q 38.28125 42.578125 40.421875 38.859375 
Q 42.578125 35.15625 43.546875 31.4375 
Q 44.53125 27.734375 44.328125 23.4375 
Q 44.140625 19.140625 42.578125 14.640625 
Q 41.015625 10.15625 37.890625 7.21875 
Q 34.765625 4.296875 30.265625 2.53125 
Q 25.78125 0.78125 19.921875 1.171875 
Q 14.0625 1.5625 8.78125 5.46875 
Q 3.515625 9.375 1.5625 18.75 
z
" id="SimHei-53"/>
      </defs>
      <g transform="translate(27.063636 401.595)scale(0.1 -0.1)">
       <use xlink:href="#SimHei-49"/>
       <use x="50" xlink:href="#SimHei-57"/>
       <use x="100" xlink:href="#SimHei-57"/>
       <use x="150" xlink:href="#SimHei-48"/>
       <use x="200" xlink:href="#SimHei-45"/>
       <use x="250" xlink:href="#SimHei-53"/>
       <use x="300" xlink:href="#SimHei-49"/>
      </g>
     </g>
    </g>
    <g id="xtick_2">
     <g id="line2d_2">
      <g>
       <use style="stroke:#000000;stroke-width:0.8;" x="110.357764" xlink:href="#me367e42c67" y="387.72"/>
      </g>
     </g>
     <g id="text_2">
      <!-- 1994-43 -->
      <defs>
       <path d="M 31.25 17.1875 
L 1.171875 17.1875 
L 1.171875 23.828125 
L 32.8125 69.53125 
L 38.671875 69.53125 
L 38.671875 23.828125 
L 48.046875 23.828125 
L 48.046875 17.1875 
L 38.671875 17.1875 
L 38.671875 2.34375 
L 31.25 2.34375 
z
M 31.25 23.828125 
L 31.25 54.6875 
L 9.375 23.828125 
z
" id="SimHei-52"/>
       <path d="M 3.90625 19.140625 
L 10.9375 20.3125 
Q 12.5 15.234375 16.015625 11.90625 
Q 19.53125 8.59375 24.796875 8.78125 
Q 30.078125 8.984375 33.203125 13.078125 
Q 36.328125 17.1875 35.9375 22.453125 
Q 35.546875 27.734375 31.828125 30.65625 
Q 28.125 33.59375 19.921875 34.765625 
L 19.921875 39.84375 
Q 28.125 40.625 31.828125 44.140625 
Q 35.546875 47.65625 35.15625 53.3125 
Q 34.765625 58.984375 30.078125 61.515625 
Q 25.390625 64.0625 20.109375 62.109375 
Q 14.84375 60.15625 11.71875 51.171875 
L 4.6875 52.34375 
Q 7.03125 59.375 11.125 64.0625 
Q 15.234375 68.75 22.265625 69.53125 
Q 29.296875 70.3125 34.5625 67.765625 
Q 39.84375 65.234375 41.984375 59.953125 
Q 44.140625 54.6875 42.578125 48.4375 
Q 41.015625 42.1875 33.59375 37.5 
Q 39.0625 35.15625 41.984375 30.46875 
Q 44.921875 25.78125 43.9375 18.15625 
Q 42.96875 10.546875 37.109375 5.859375 
Q 31.25 1.171875 23.828125 1.359375 
Q 16.40625 1.5625 10.9375 6.046875 
Q 5.46875 10.546875 3.90625 19.140625 
z
" id="SimHei-51"/>
      </defs>
      <g transform="translate(92.857764 401.595)scale(0.1 -0.1)">
       <use xlink:href="#SimHei-49"/>
       <use x="50" xlink:href="#SimHei-57"/>
       <use x="100" xlink:href="#SimHei-57"/>
       <use x="150" xlink:href="#SimHei-52"/>
       <use x="200" xlink:href="#SimHei-45"/>
       <use x="250" xlink:href="#SimHei-52"/>
       <use x="300" xlink:href="#SimHei-51"/>
      </g>
     </g>
    </g>
    <g id="xtick_3">
     <g id="line2d_3">
      <g>
       <use style="stroke:#000000;stroke-width:0.8;" x="176.151892" xlink:href="#me367e42c67" y="387.72"/>
      </g>
     </g>
     <g id="text_3">
      <!-- 1998-42 -->
      <defs>
       <path d="M 2.734375 16.796875 
Q 2.734375 26.171875 5.078125 30.65625 
Q 7.421875 35.15625 12.890625 37.890625 
Q 8.203125 40.625 6.640625 43.9375 
Q 5.078125 47.265625 4.875 51.5625 
Q 4.6875 55.859375 6.046875 58.984375 
Q 7.421875 62.109375 10.15625 64.84375 
Q 12.890625 67.578125 16.203125 68.546875 
Q 19.53125 69.53125 23.4375 69.53125 
Q 27.34375 69.53125 30.46875 68.75 
Q 33.59375 67.96875 37.109375 65.421875 
Q 40.625 62.890625 42.1875 58.203125 
Q 43.75 53.515625 41.984375 47.265625 
Q 40.234375 41.015625 32.8125 37.5 
Q 39.453125 35.546875 42.1875 31.4375 
Q 44.921875 27.34375 44.921875 21.484375 
Q 44.921875 15.625 43.15625 12.109375 
Q 41.40625 8.59375 39.25 6.25 
Q 37.109375 3.90625 33.390625 2.53125 
Q 29.6875 1.171875 24.015625 1.171875 
Q 18.359375 1.171875 14.25 2.53125 
Q 10.15625 3.90625 7.421875 6.640625 
Q 4.6875 9.375 3.703125 13.078125 
Q 2.734375 16.796875 2.734375 26.171875 
z
M 10.9375 26.5625 
Q 10.546875 17.1875 12.296875 13.671875 
Q 14.0625 10.15625 18.75 9.171875 
Q 23.4375 8.203125 28.515625 9.375 
Q 33.59375 10.546875 35.546875 14.84375 
Q 37.5 19.140625 36.90625 23.4375 
Q 36.328125 27.734375 32.03125 30.65625 
Q 27.734375 33.59375 22.65625 33.203125 
Q 17.578125 32.8125 14.25 29.6875 
Q 10.9375 26.5625 10.546875 17.1875 
z
M 12.109375 56.25 
Q 12.109375 48.4375 14.84375 44.921875 
Q 17.578125 41.40625 23.4375 41.40625 
Q 29.296875 41.40625 32.21875 44.921875 
Q 35.15625 48.4375 34.953125 53.3125 
Q 34.765625 58.203125 31.4375 60.546875 
Q 28.125 62.890625 22.453125 62.5 
Q 16.796875 62.109375 14.453125 59.171875 
Q 12.109375 56.25 12.109375 48.4375 
z
" id="SimHei-56"/>
       <path d="M 4.6875 3.90625 
Q 5.078125 9.765625 10.15625 14.453125 
Q 15.234375 19.140625 23.046875 29.09375 
Q 30.859375 39.0625 33.203125 44.53125 
Q 35.546875 50 34.953125 53.90625 
Q 34.375 57.8125 31.25 60.34375 
Q 28.125 62.890625 24.015625 62.5 
Q 19.921875 62.109375 16.203125 59.375 
Q 12.5 56.640625 10.546875 51.171875 
L 3.125 52.34375 
Q 6.25 61.328125 11.125 65.421875 
Q 16.015625 69.53125 22.65625 69.921875 
Q 26.5625 70.3125 29.6875 69.71875 
Q 32.8125 69.140625 36.125 66.984375 
Q 39.453125 64.84375 41.59375 60.546875 
Q 43.75 56.25 43.15625 50.1875 
Q 42.578125 44.140625 37.109375 35.734375 
Q 31.640625 27.34375 16.015625 9.375 
L 44.140625 9.375 
L 44.140625 2.34375 
L 4.6875 2.34375 
z
" id="SimHei-50"/>
      </defs>
      <g transform="translate(158.651892 401.595)scale(0.1 -0.1)">
       <use xlink:href="#SimHei-49"/>
       <use x="50" xlink:href="#SimHei-57"/>
       <use x="100" xlink:href="#SimHei-57"/>
       <use x="150" xlink:href="#SimHei-56"/>
       <use x="200" xlink:href="#SimHei-45"/>
       <use x="250" xlink:href="#SimHei-52"/>
       <use x="300" xlink:href="#SimHei-50"/>
      </g>
     </g>
    </g>
    <g id="xtick_4">
     <g id="line2d_4">
      <g>
       <use style="stroke:#000000;stroke-width:0.8;" x="241.946021" xlink:href="#me367e42c67" y="387.72"/>
      </g>
     </g>
     <g id="text_4">
      <!-- 2002-45 -->
      <g transform="translate(224.446021 401.595)scale(0.1 -0.1)">
       <use xlink:href="#SimHei-50"/>
       <use x="50" xlink:href="#SimHei-48"/>
       <use x="100" xlink:href="#SimHei-48"/>
       <use x="150" xlink:href="#SimHei-50"/>
       <use x="200" xlink:href="#SimHei-45"/>
       <use x="250" xlink:href="#SimHei-52"/>
       <use x="300" xlink:href="#SimHei-53"/>
      </g>
     </g>
    </g>
    <g id="xtick_5">
     <g id="line2d_5">
      <g>
       <use style="stroke:#000000;stroke-width:0.8;" x="307.740149" xlink:href="#me367e42c67" y="387.72"/>
      </g>
     </g>
     <g id="text_5">
      <!-- 2006-46 -->
      <defs>
       <path d="M 3.515625 19.53125 
Q 4.296875 30.859375 6.046875 34.765625 
Q 7.8125 38.671875 11.328125 44.53125 
L 27.34375 69.53125 
L 36.328125 69.53125 
L 19.921875 43.75 
Q 30.46875 46.484375 36.71875 42.96875 
Q 42.96875 39.453125 45.109375 34.953125 
Q 47.265625 30.46875 47.453125 25.1875 
Q 47.65625 19.921875 45.890625 14.84375 
Q 44.140625 9.765625 39.640625 5.65625 
Q 35.15625 1.5625 27.140625 1.171875 
Q 19.140625 0.78125 13.46875 4.09375 
Q 7.8125 7.421875 5.65625 13.46875 
Q 3.515625 19.53125 4.296875 30.859375 
z
M 12.5 16.015625 
Q 19.53125 8.59375 25.390625 8.203125 
Q 31.25 7.8125 35.15625 12.109375 
Q 39.0625 16.40625 39.0625 24.609375 
Q 39.0625 32.8125 34.171875 35.9375 
Q 29.296875 39.0625 23.234375 38.28125 
Q 17.1875 37.5 14.453125 32.421875 
Q 11.71875 27.34375 12.109375 21.671875 
Q 12.5 16.015625 19.53125 8.59375 
z
" id="SimHei-54"/>
      </defs>
      <g transform="translate(290.240149 401.595)scale(0.1 -0.1)">
       <use xlink:href="#SimHei-50"/>
       <use x="50" xlink:href="#SimHei-48"/>
       <use x="100" xlink:href="#SimHei-48"/>
       <use x="150" xlink:href="#SimHei-54"/>
       <use x="200" xlink:href="#SimHei-45"/>
       <use x="250" xlink:href="#SimHei-52"/>
       <use x="300" xlink:href="#SimHei-54"/>
      </g>
     </g>
    </g>
    <g id="xtick_6">
     <g id="line2d_6">
      <g>
       <use style="stroke:#000000;stroke-width:0.8;" x="373.534277" xlink:href="#me367e42c67" y="387.72"/>
      </g>
     </g>
     <g id="text_6">
      <!-- 2010-42 -->
      <g transform="translate(356.034277 401.595)scale(0.1 -0.1)">
       <use xlink:href="#SimHei-50"/>
       <use x="50" xlink:href="#SimHei-48"/>
       <use x="100" xlink:href="#SimHei-49"/>
       <use x="150" xlink:href="#SimHei-48"/>
       <use x="200" xlink:href="#SimHei-45"/>
       <use x="250" xlink:href="#SimHei-52"/>
       <use x="300" xlink:href="#SimHei-50"/>
      </g>
     </g>
    </g>
    <g id="xtick_7">
     <g id="line2d_7">
      <g>
       <use style="stroke:#000000;stroke-width:0.8;" x="439.328405" xlink:href="#me367e42c67" y="387.72"/>
      </g>
     </g>
     <g id="text_7">
      <!-- 2014-38 -->
      <g transform="translate(421.828405 401.595)scale(0.1 -0.1)">
       <use xlink:href="#SimHei-50"/>
       <use x="50" xlink:href="#SimHei-48"/>
       <use x="100" xlink:href="#SimHei-49"/>
       <use x="150" xlink:href="#SimHei-52"/>
       <use x="200" xlink:href="#SimHei-45"/>
       <use x="250" xlink:href="#SimHei-51"/>
       <use x="300" xlink:href="#SimHei-56"/>
      </g>
     </g>
    </g>
    <g id="xtick_8">
     <g id="line2d_8">
      <g>
       <use style="stroke:#000000;stroke-width:0.8;" x="505.122533" xlink:href="#me367e42c67" y="387.72"/>
      </g>
     </g>
     <g id="text_8">
      <!-- 2018-32 -->
      <g transform="translate(487.622533 401.595)scale(0.1 -0.1)">
       <use xlink:href="#SimHei-50"/>
       <use x="50" xlink:href="#SimHei-48"/>
       <use x="100" xlink:href="#SimHei-49"/>
       <use x="150" xlink:href="#SimHei-56"/>
       <use x="200" xlink:href="#SimHei-45"/>
       <use x="250" xlink:href="#SimHei-51"/>
       <use x="300" xlink:href="#SimHei-50"/>
      </g>
     </g>
    </g>
    <g id="xtick_9">
     <g id="line2d_9">
      <g>
       <use style="stroke:#000000;stroke-width:0.8;" x="570.916661" xlink:href="#me367e42c67" y="387.72"/>
      </g>
     </g>
    </g>
    <g id="text_9">
     <!-- 交易周份 -->
     <defs>
      <path d="M 36.328125 40.625 
Q 43.359375 24.609375 50 17.96875 
Q 60.546875 28.515625 66.015625 42.578125 
Q 69.140625 40.234375 73.828125 37.5 
Q 64.453125 22.65625 55.46875 12.890625 
Q 68.75 2.734375 93.75 0.390625 
Q 89.84375 -5.078125 89.0625 -8.59375 
Q 64.0625 -3.90625 49.21875 8.203125 
Q 32.421875 -4.296875 10.15625 -9.375 
Q 8.984375 -4.6875 5.859375 -0.78125 
Q 29.6875 1.953125 43.359375 13.28125 
Q 34.375 23.828125 28.90625 36.71875 
Q 33.59375 38.671875 36.328125 40.625 
z
M 19.53125 58.203125 
Q 13.671875 58.203125 8.203125 57.8125 
L 8.203125 65.625 
L 19.140625 64.84375 
L 80.078125 64.84375 
Q 86.328125 65.234375 92.96875 65.625 
L 92.96875 57.421875 
Q 86.328125 57.8125 80.078125 58.203125 
z
M 39.453125 51.5625 
Q 33.984375 46.484375 16.015625 31.25 
Q 12.890625 35.15625 8.59375 37.5 
Q 16.015625 41.40625 22.0625 47.265625 
Q 28.125 53.125 31.25 57.421875 
Q 35.15625 54.6875 39.453125 51.5625 
z
M 67.578125 57.421875 
Q 69.53125 55.859375 76.5625 50.578125 
Q 83.59375 45.3125 90.234375 40.625 
Q 85.9375 37.5 82.8125 33.984375 
Q 79.296875 38.671875 60.9375 51.5625 
Q 64.0625 54.6875 67.578125 57.421875 
z
M 50.78125 82.8125 
Q 54.6875 73.828125 56.640625 68.359375 
Q 51.171875 66.796875 47.265625 65.625 
Q 44.921875 72.265625 41.40625 80.078125 
Q 46.09375 81.640625 50.78125 82.8125 
z
" id="SimHei-20132"/>
      <path d="M 81.25 78.125 
Q 80.859375 71.09375 80.859375 65.625 
L 80.859375 56.25 
Q 80.859375 51.953125 81.25 44.53125 
L 40.625 44.53125 
Q 38.671875 41.015625 34.375 36.328125 
L 88.28125 36.328125 
L 87.109375 23.828125 
L 84.375 0.78125 
Q 83.203125 -5.078125 77.140625 -6.828125 
Q 71.09375 -8.59375 65.234375 -8.984375 
Q 63.28125 -3.125 60.9375 -0.390625 
Q 65.234375 -0.78125 70.5 -0.1875 
Q 75.78125 0.390625 76.953125 5.078125 
L 80.078125 30.46875 
L 69.921875 30.46875 
Q 60.9375 10.9375 49.609375 2.734375 
Q 38.28125 -5.46875 23.828125 -9.375 
Q 23.046875 -6.640625 18.359375 -3.515625 
Q 25.390625 -2.34375 33.78125 1.359375 
Q 42.1875 5.078125 49.40625 12.296875 
Q 56.640625 19.53125 61.71875 30.46875 
L 49.609375 30.46875 
Q 40.234375 13.671875 16.796875 4.296875 
Q 14.84375 7.8125 10.546875 9.375 
Q 17.578125 11.328125 26.953125 16.59375 
Q 36.328125 21.875 41.796875 30.46875 
L 28.90625 30.46875 
Q 17.96875 22.265625 11.328125 19.140625 
Q 10.15625 22.265625 5.859375 25 
Q 12.109375 27.34375 19.921875 32.8125 
Q 27.734375 38.28125 31.640625 44.53125 
L 19.140625 44.53125 
Q 19.53125 51.171875 19.53125 57.03125 
L 19.53125 65.625 
Q 19.53125 70.703125 19.140625 78.125 
L 81.25 78.125 
z
M 73.4375 50.390625 
L 73.4375 58.203125 
L 26.953125 58.203125 
L 26.953125 50.390625 
z
M 73.4375 64.453125 
L 73.4375 71.875 
L 26.953125 71.875 
L 26.953125 64.453125 
z
" id="SimHei-26131"/>
      <path d="M 87.5 76.953125 
Q 87.109375 68.75 87.109375 59.375 
L 87.109375 0.78125 
Q 86.71875 -5.859375 83.203125 -7.21875 
Q 79.6875 -8.59375 67.578125 -9.375 
Q 67.1875 -6.25 64.453125 -1.171875 
Q 75 -1.5625 77.53125 -0.578125 
Q 80.078125 0.390625 79.6875 3.515625 
L 79.6875 70.703125 
L 23.4375 70.703125 
Q 23.4375 40.234375 22.65625 29.484375 
Q 21.875 18.75 19.328125 8.59375 
Q 16.796875 -1.5625 12.109375 -9.765625 
Q 9.765625 -7.03125 4.296875 -3.515625 
Q 10.15625 3.515625 12.890625 15.625 
Q 15.625 27.734375 16.015625 40.421875 
Q 16.40625 53.125 15.625 76.953125 
L 87.5 76.953125 
z
M 32.03125 5.078125 
Q 32.421875 9.765625 32.421875 14.84375 
L 32.421875 21.875 
Q 32.421875 25.390625 32.03125 30.078125 
L 68.75 30.078125 
Q 68.359375 26.953125 68.359375 22.65625 
L 68.359375 13.671875 
Q 68.359375 9.375 68.75 5.078125 
z
M 46.875 59.375 
Q 46.875 64.84375 46.484375 68.359375 
L 54.296875 68.359375 
Q 53.90625 63.671875 53.90625 59.375 
Q 64.0625 59.375 69.921875 59.765625 
L 69.921875 52.34375 
Q 64.453125 52.734375 53.90625 52.734375 
L 53.90625 43.75 
Q 65.625 43.75 75.390625 44.140625 
L 75.390625 36.71875 
Q 65.234375 37.109375 58.203125 37.109375 
L 42.96875 37.109375 
Q 36.328125 37.109375 26.953125 36.71875 
L 26.953125 44.140625 
Q 36.328125 43.75 46.875 43.75 
L 46.875 52.734375 
Q 39.0625 52.734375 30.859375 52.34375 
L 30.859375 59.765625 
Q 38.671875 59.375 46.875 59.375 
z
M 60.9375 11.328125 
L 60.9375 23.828125 
L 39.84375 23.828125 
L 39.84375 11.328125 
z
" id="SimHei-21608"/>
      <path d="M 74.21875 79.6875 
Q 76.171875 68.359375 82.03125 57.03125 
Q 87.890625 45.703125 96.875 38.28125 
Q 94.140625 37.109375 90.234375 32.421875 
Q 87.5 35.546875 83.59375 40.234375 
Q 82.8125 35.546875 82.421875 20.5 
Q 82.03125 5.46875 81.046875 0.390625 
Q 80.078125 -4.6875 75.78125 -6.25 
Q 71.484375 -7.8125 63.671875 -8.59375 
Q 62.5 -3.90625 60.546875 0 
Q 68.75 -0.390625 71.484375 0.390625 
Q 74.21875 1.171875 74.609375 9.171875 
Q 75 17.1875 75.390625 35.15625 
L 57.8125 35.15625 
Q 57.421875 20.3125 53.515625 10.15625 
Q 49.609375 0 37.109375 -9.765625 
Q 33.984375 -5.46875 31.25 -3.515625 
Q 42.96875 3.515625 46.671875 12.5 
Q 50.390625 21.484375 50.390625 35.15625 
Q 46.875 35.15625 41.796875 34.765625 
L 41.796875 40.234375 
Q 38.671875 35.9375 33.59375 30.46875 
Q 31.25 33.59375 27.34375 35.9375 
Q 44.921875 51.171875 50.390625 76.171875 
Q 53.90625 74.609375 58.59375 73.046875 
Q 56.640625 68.75 53.515625 60.734375 
Q 50.390625 52.734375 43.359375 42.1875 
Q 47.65625 41.796875 53.125 41.796875 
L 82.8125 41.796875 
Q 71.484375 56.640625 66.796875 77.734375 
Q 71.484375 78.515625 74.21875 79.6875 
z
M 3.515625 39.453125 
Q 8.984375 44.921875 16.015625 57.609375 
Q 23.046875 70.3125 25.78125 81.640625 
Q 30.859375 79.296875 34.375 77.734375 
Q 32.03125 74.21875 25 58.984375 
L 25 9.765625 
Q 25 1.171875 25.390625 -8.984375 
L 17.1875 -8.984375 
Q 17.578125 0.78125 17.578125 9.765625 
L 17.578125 45.703125 
Q 12.109375 37.5 8.984375 33.984375 
Q 6.640625 36.71875 3.515625 39.453125 
z
" id="SimHei-20221"/>
     </defs>
     <g transform="translate(278.2 414.852812)scale(0.1 -0.1)">
      <use xlink:href="#SimHei-20132"/>
      <use x="100" xlink:href="#SimHei-26131"/>
      <use x="200" xlink:href="#SimHei-21608"/>
      <use x="300" xlink:href="#SimHei-20221"/>
     </g>
    </g>
   </g>
   <g id="matplotlib.axis_2">
    <g id="ytick_1">
     <g id="line2d_10">
      <defs>
       <path d="M 0 0 
L -3.5 0 
" id="mf321873ca7" style="stroke:#000000;stroke-width:0.8;"/>
      </defs>
      <g>
       <use style="stroke:#000000;stroke-width:0.8;" x="19.2" xlink:href="#mf321873ca7" y="309.823362"/>
      </g>
     </g>
     <g id="text_10">
      <!-- 2 -->
      <g transform="translate(7.2 313.260862)scale(0.1 -0.1)">
       <use xlink:href="#SimHei-50"/>
      </g>
     </g>
    </g>
    <g id="ytick_2">
     <g id="line2d_11">
      <g>
       <use style="stroke:#000000;stroke-width:0.8;" x="19.2" xlink:href="#mf321873ca7" y="230.79221"/>
      </g>
     </g>
     <g id="text_11">
      <!-- 4 -->
      <g transform="translate(7.2 234.22971)scale(0.1 -0.1)">
       <use xlink:href="#SimHei-52"/>
      </g>
     </g>
    </g>
    <g id="ytick_3">
     <g id="line2d_12">
      <g>
       <use style="stroke:#000000;stroke-width:0.8;" x="19.2" xlink:href="#mf321873ca7" y="151.761058"/>
      </g>
     </g>
     <g id="text_12">
      <!-- 6 -->
      <g transform="translate(7.2 155.198558)scale(0.1 -0.1)">
       <use xlink:href="#SimHei-54"/>
      </g>
     </g>
    </g>
    <g id="ytick_4">
     <g id="line2d_13">
      <g>
       <use style="stroke:#000000;stroke-width:0.8;" x="19.2" xlink:href="#mf321873ca7" y="72.729905"/>
      </g>
     </g>
     <g id="text_13">
      <!-- 8 -->
      <g transform="translate(7.2 76.167405)scale(0.1 -0.1)">
       <use xlink:href="#SimHei-56"/>
      </g>
     </g>
    </g>
   </g>
   <g id="line2d_14">
    <path clip-path="url(#p82d91f6c16)" d="M 44.563636 349.371776 
L 44.892607 352.602688 
L 45.221578 348.427601 
L 45.550548 348.703757 
L 45.879519 349.13863 
L 46.20849 349.807088 
L 46.53746 353.353805 
L 46.866431 352.460288 
L 47.195401 352.672502 
L 47.524372 352.485478 
L 47.853343 353.206712 
L 48.182313 350.88358 
L 48.511284 355.129908 
L 48.840255 355.832425 
L 49.169225 353.647386 
L 49.498196 353.676644 
L 50.485108 356.592687 
L 50.814079 344.740433 
L 51.47202 347.400875 
L 51.80099 347.841237 
L 52.129961 348.892121 
L 52.787902 351.612451 
L 53.116873 352.752914 
L 53.445844 353.172523 
L 53.774814 355.192945 
L 54.103785 359.58992 
L 54.432756 359.139918 
L 54.761726 360.198441 
L 55.090697 359.44258 
L 55.419667 359.490316 
L 55.748638 368.082956 
L 56.077609 368.905987 
L 56.406579 369.317386 
L 56.73555 370.423636 
L 57.064521 369.8269 
L 57.393491 370.181251 
L 57.722462 370.248904 
L 58.051433 369.088342 
L 58.380403 357.300252 
L 58.709374 357.950995 
L 59.038345 357.908441 
L 59.696286 344.75714 
L 60.025256 338.743272 
L 60.354227 342.432612 
L 60.683198 348.635646 
L 61.012168 347.735668 
L 61.341139 348.378068 
L 61.67011 348.362809 
L 61.99908 344.824765 
L 62.328051 346.261147 
L 62.657022 345.137662 
L 62.985992 346.039235 
L 63.314963 345.466495 
L 63.643933 343.801393 
L 63.972904 343.333876 
L 64.301875 343.498798 
L 64.630845 342.393161 
L 64.959816 341.864571 
L 65.617757 341.21606 
L 65.946728 340.007139 
L 66.604669 335.580428 
L 67.262611 323.703839 
L 67.591581 322.115661 
L 67.920552 315.550093 
L 68.249522 311.41741 
L 68.578493 301.321393 
L 68.907464 269.688936 
L 69.236434 270.001507 
L 69.894376 289.483738 
L 70.223346 292.72551 
L 70.552317 291.343464 
L 70.881288 283.505818 
L 71.210258 284.730286 
L 71.539229 281.879677 
L 71.8682 280.662624 
L 72.19717 290.900065 
L 72.526141 292.626317 
L 72.855111 301.250576 
L 73.184082 299.290263 
L 73.513053 303.018196 
L 73.842023 310.196086 
L 74.170994 307.885338 
L 74.499965 310.283888 
L 74.828935 310.64712 
L 75.157906 310.383013 
L 75.486877 312.707575 
L 75.815847 312.145839 
L 76.144818 321.628795 
L 76.473788 326.107574 
L 77.13173 339.782725 
L 77.4607 343.101107 
L 78.118642 310.546871 
L 78.447612 309.890888 
L 78.776583 310.492827 
L 79.105554 307.093732 
L 79.434524 297.333376 
L 79.763495 291.258477 
L 80.092466 283.121212 
L 80.421436 279.274952 
L 81.079377 246.357722 
L 81.408348 243.311568 
L 81.737319 232.923149 
L 82.066289 245.02701 
L 82.39526 264.3895 
L 82.724231 251.647145 
L 83.711143 275.2713 
L 84.040113 266.028238 
L 84.698054 264.085643 
L 85.027025 260.669845 
L 85.355996 272.286325 
L 85.684966 272.941788 
L 86.013937 278.613977 
L 86.342908 288.859181 
L 86.671878 286.252803 
L 87.000849 287.682558 
L 87.32982 284.640823 
L 87.65879 287.76046 
L 87.987761 284.114503 
L 88.645702 303.758088 
L 88.974673 308.887786 
L 89.303643 300.193883 
L 89.632614 300.307458 
L 89.961585 285.722075 
L 90.290555 296.270564 
L 90.619526 299.722186 
L 90.948497 297.964586 
L 91.606438 304.527875 
L 91.935409 303.792632 
L 92.264379 301.775049 
L 92.59335 302.321995 
L 92.92232 303.817363 
L 93.251291 307.752968 
L 93.580262 308.100163 
L 93.909232 308.930399 
L 94.238203 303.278245 
L 94.567174 300.735004 
L 94.896144 301.200363 
L 95.225115 302.101536 
L 95.554086 300.824619 
L 96.212027 310.454953 
L 96.540998 311.652976 
L 96.869968 310.439445 
L 97.527909 316.177556 
L 97.85688 318.08758 
L 98.185851 315.206021 
L 98.514821 320.308462 
L 98.843792 318.956802 
L 99.172763 323.869284 
L 99.501733 325.57716 
L 99.830704 322.241242 
L 100.488645 329.278306 
L 100.817616 331.499367 
L 101.146586 336.04654 
L 101.475557 342.55676 
L 101.804528 338.819651 
L 102.133498 338.733642 
L 102.462469 337.494704 
L 102.79144 338.330893 
L 103.778352 346.57162 
L 104.107322 345.441864 
L 104.765264 351.691985 
L 105.094234 352.705816 
L 105.423205 354.957193 
L 105.752175 358.763219 
L 106.081146 360.787791 
L 106.410117 332.504421 
L 106.739087 332.632955 
L 107.068058 331.524322 
L 107.397029 334.06296 
L 108.05497 314.398722 
L 108.383941 313.228351 
L 109.699823 337.863654 
L 110.028794 335.889339 
L 110.686735 338.636712 
L 111.015706 335.035142 
L 111.344676 337.041582 
L 111.673647 337.885148 
L 112.002618 338.256256 
L 112.331588 341.30637 
L 112.660559 338.181553 
L 113.3185 340.95805 
L 113.647471 340.971509 
L 113.976441 344.384657 
L 114.305412 346.620646 
L 114.634383 346.843683 
L 114.963353 348.535921 
L 115.292324 349.15203 
L 115.950265 346.470474 
L 116.279236 345.80424 
L 116.608207 345.644136 
L 116.937177 344.74886 
L 117.595119 341.404901 
L 117.924089 343.600917 
L 118.25306 343.975662 
L 118.58203 347.847854 
L 118.911001 348.597497 
L 119.239972 348.125725 
L 119.568942 330.135045 
L 119.897913 339.370502 
L 120.555854 341.211778 
L 120.884825 344.6078 
L 121.213796 344.177766 
L 121.542766 345.262562 
L 121.871737 343.182398 
L 122.200707 343.880314 
L 122.529678 340.87968 
L 122.858649 341.133035 
L 123.187619 340.192015 
L 123.845561 335.284487 
L 124.174531 338.620882 
L 124.503502 338.584764 
L 125.161443 336.992012 
L 125.490414 338.718048 
L 126.148355 339.345885 
L 126.477326 340.498495 
L 126.806296 338.577842 
L 127.135267 338.793077 
L 127.464238 338.707021 
L 127.793208 340.125242 
L 128.122179 342.185565 
L 128.45115 343.225396 
L 128.78012 345.245899 
L 129.109091 345.04011 
L 129.438062 347.199327 
L 129.767032 348.044136 
L 130.096003 350.504227 
L 130.424973 351.972314 
L 130.753944 351.281916 
L 131.082915 352.870523 
L 131.411885 352.628747 
L 131.740856 352.131765 
L 132.069827 352.803094 
L 132.398797 350.902499 
L 132.727768 349.698699 
L 133.056739 350.375351 
L 133.385709 349.808976 
L 133.71468 350.757041 
L 134.043651 349.281945 
L 134.372621 348.739048 
L 134.701592 346.223047 
L 135.030562 338.987676 
L 135.359533 341.776978 
L 135.688504 341.067755 
L 136.017474 336.142613 
L 136.346445 341.252241 
L 136.675416 340.154294 
L 137.333357 331.064611 
L 137.662328 329.616107 
L 137.991298 329.671495 
L 138.320269 329.194184 
L 138.649239 326.266949 
L 138.97821 321.193288 
L 139.307181 321.527197 
L 139.636151 322.128766 
L 139.965122 319.188496 
L 140.294093 320.786286 
L 140.623063 325.254285 
L 140.952034 322.496579 
L 141.281005 323.003553 
L 141.609975 325.416333 
L 141.938946 323.80754 
L 142.267917 319.295882 
L 142.596887 319.062165 
L 142.925858 313.802614 
L 143.254828 310.548363 
L 143.583799 305.665192 
L 143.91277 308.962817 
L 144.24174 310.212323 
L 144.570711 303.65671 
L 144.899682 302.433269 
L 145.228652 299.031729 
L 145.557623 287.502076 
L 145.886594 293.952145 
L 146.215564 317.453768 
L 146.544535 315.071839 
L 146.873505 316.004452 
L 147.531447 314.560785 
L 147.860417 311.116527 
L 148.518359 309.025804 
L 150.492183 288.898113 
L 150.821153 289.461867 
L 151.808065 281.400664 
L 152.137036 274.37748 
L 152.466006 286.356357 
L 152.794977 292.981838 
L 153.123948 290.550507 
L 153.452918 291.203246 
L 153.781889 294.097629 
L 154.11086 290.178485 
L 154.43983 291.524426 
L 154.768801 299.373124 
L 155.097771 300.951576 
L 155.426742 296.524784 
L 155.755713 299.261437 
L 156.084683 298.064473 
L 156.413654 297.940999 
L 156.742625 303.817649 
L 157.071595 301.831187 
L 157.729537 296.380909 
L 158.387478 301.782983 
L 158.716449 308.020787 
L 159.045419 309.123359 
L 159.37439 305.90541 
L 159.70336 301.313347 
L 160.032331 298.560528 
L 160.361302 298.700845 
L 160.690272 296.947717 
L 161.019243 298.469142 
L 161.348214 302.405786 
L 161.677184 303.663961 
L 162.006155 303.966728 
L 162.335126 303.07999 
L 162.664096 303.470608 
L 162.993067 301.127161 
L 163.322037 301.000307 
L 163.651008 297.271247 
L 163.979979 299.245233 
L 164.308949 299.384486 
L 164.63792 297.913062 
L 164.966891 299.236624 
L 165.295861 301.168248 
L 165.953803 303.529489 
L 166.282773 303.150134 
L 166.611744 301.312118 
L 166.940715 296.720869 
L 167.269685 294.46857 
L 167.598656 295.559105 
L 167.927626 294.491246 
L 168.585568 291.074181 
L 169.243509 289.809632 
L 169.57248 287.784561 
L 169.90145 287.941623 
L 170.230421 290.015787 
L 170.559392 289.872866 
L 170.888362 290.917518 
L 171.217333 294.299968 
L 171.546304 292.932426 
L 171.875274 296.533053 
L 172.204245 295.29013 
L 172.533215 295.90176 
L 172.862186 299.112069 
L 173.191157 306.519142 
L 173.520127 305.657667 
L 173.849098 309.196611 
L 174.178069 307.008966 
L 174.507039 302.715103 
L 174.83601 303.881172 
L 175.164981 302.992096 
L 175.493951 301.492681 
L 175.822922 302.587936 
L 176.151892 301.253996 
L 176.480863 303.315849 
L 176.809834 302.848551 
L 177.138804 300.05654 
L 177.467775 298.417063 
L 177.796746 298.827378 
L 178.454687 303.455522 
L 178.783658 304.013775 
L 179.112628 308.13169 
L 179.441599 306.722027 
L 179.77057 308.737312 
L 180.09954 307.418343 
L 180.428511 309.742287 
L 180.757481 307.727852 
L 181.086452 309.63733 
L 181.415423 313.640729 
L 181.744393 313.154622 
L 182.073364 309.788778 
L 182.402335 307.854593 
L 182.731305 307.250091 
L 183.060276 308.191561 
L 183.718217 305.923745 
L 184.047188 308.787925 
L 184.376158 309.711653 
L 184.705129 311.178724 
L 185.0341 311.531139 
L 185.36307 316.057418 
L 186.021012 303.004215 
L 186.349982 302.191814 
L 186.678953 296.07178 
L 187.336894 279.621309 
L 187.665865 277.36903 
L 187.994836 279.418245 
L 188.323806 284.494008 
L 188.652777 281.089873 
L 188.981747 279.837755 
L 189.310718 276.608788 
L 189.639689 282.039349 
L 189.968659 278.44833 
L 190.29763 278.269582 
L 190.626601 281.186923 
L 190.955571 276.275235 
L 191.284542 277.106183 
L 191.613513 278.936732 
L 192.271454 284.231644 
L 192.600424 284.06226 
L 192.929395 287.769914 
L 193.258366 287.20192 
L 193.587336 289.781964 
L 193.916307 290.810437 
L 194.245278 289.671262 
L 194.574248 291.1968 
L 194.903219 292.015269 
L 195.23219 292.439522 
L 195.56116 293.151161 
L 195.890131 297.589978 
L 196.219102 296.894634 
L 196.548072 286.170365 
L 196.877043 293.089325 
L 197.534984 283.350863 
L 197.863955 273.368213 
L 198.192925 276.183885 
L 198.521896 269.241233 
L 199.179837 274.303369 
L 199.837779 264.096333 
L 200.49572 261.81065 
L 200.82469 262.240186 
L 201.153661 262.288426 
L 201.482632 270.690009 
L 201.811602 266.481108 
L 202.140573 259.919568 
L 202.469544 257.776798 
L 202.798514 259.006438 
L 203.456456 256.234213 
L 203.785426 256.549981 
L 204.114397 256.468085 
L 204.443368 253.208863 
L 204.772338 252.853607 
L 205.101309 251.545415 
L 205.430279 250.773875 
L 205.75925 248.617193 
L 206.088221 247.268251 
L 206.417191 247.746954 
L 206.746162 253.303911 
L 207.075133 255.388814 
L 207.404103 253.704611 
L 207.733074 259.837849 
L 208.062045 258.596837 
L 208.391015 257.995177 
L 208.719986 256.213004 
L 209.048956 255.069767 
L 209.377927 254.451815 
L 210.035868 247.341918 
L 210.364839 249.943061 
L 210.69381 248.051226 
L 211.02278 249.231299 
L 211.351751 251.099597 
L 211.680722 249.636778 
L 212.009692 249.411384 
L 212.338663 246.25732 
L 212.667634 248.022816 
L 212.996604 250.752275 
L 213.325575 258.124311 
L 213.983516 260.824574 
L 214.312487 257.416545 
L 214.641457 255.757929 
L 214.970428 255.143156 
L 215.299399 253.455852 
L 215.628369 249.716276 
L 215.95734 250.325841 
L 216.286311 248.162162 
L 216.615281 248.356458 
L 216.944252 250.798455 
L 217.273222 250.574942 
L 217.931164 245.941167 
L 218.260134 246.99601 
L 218.589105 245.489615 
L 218.918076 245.400872 
L 219.576017 245.940073 
L 219.904988 245.279951 
L 220.233958 248.206144 
L 220.562929 248.822325 
L 220.8919 247.615387 
L 221.549841 261.75653 
L 221.878811 261.550759 
L 222.536753 265.436887 
L 222.865723 268.939603 
L 223.194694 270.903929 
L 223.523665 270.948868 
L 223.852635 272.054941 
L 224.181606 275.25303 
L 224.510577 280.521981 
L 224.839547 288.146533 
L 225.168518 281.33676 
L 225.497489 280.410064 
L 225.826459 284.463826 
L 226.15543 283.668473 
L 226.4844 279.290736 
L 226.813371 276.812512 
L 227.142342 276.8552 
L 227.471312 281.713843 
L 227.800283 284.004617 
L 228.129254 284.463965 
L 228.458224 286.278377 
L 228.787195 291.651418 
L 229.116166 300.533934 
L 230.103077 294.038002 
L 230.432048 294.25883 
L 230.761019 284.546596 
L 231.089989 285.623992 
L 231.41896 282.66427 
L 231.747931 286.840626 
L 232.405872 283.411335 
L 232.734843 284.922231 
L 233.063813 284.540695 
L 233.392784 282.593052 
L 233.721755 284.221934 
L 234.050725 288.860192 
L 234.379696 289.59305 
L 234.708666 291.809459 
L 235.037637 290.870936 
L 235.366608 293.352763 
L 235.695578 288.036084 
L 236.024549 277.987411 
L 236.35352 278.689089 
L 236.68249 280.047318 
L 237.011461 279.103851 
L 237.340432 282.54223 
L 237.669402 282.258269 
L 237.998373 283.14611 
L 238.327343 283.075179 
L 238.656314 280.994394 
L 238.985285 282.108481 
L 239.314255 284.278521 
L 239.643226 284.940383 
L 240.301167 288.204294 
L 240.630138 292.162766 
L 240.959109 292.484653 
L 241.288079 292.516359 
L 241.61705 293.222421 
L 241.946021 292.966988 
L 242.603962 301.922944 
L 242.932932 299.082802 
L 243.261903 300.997543 
L 243.590874 301.465733 
L 243.919844 299.309764 
L 244.577786 305.958213 
L 244.906756 302.08936 
L 245.235727 296.651701 
L 245.564698 296.866441 
L 246.222639 294.707093 
L 246.551609 296.715164 
L 246.88058 294.810551 
L 247.538521 297.949836 
L 247.867492 297.70703 
L 248.196463 296.91669 
L 248.525433 295.383994 
L 249.183375 290.908035 
L 249.512345 297.796513 
L 250.828228 292.622116 
L 251.157198 295.252051 
L 251.486169 293.785207 
L 252.14411 298.262061 
L 252.473081 298.201274 
L 252.802052 296.689993 
L 253.131022 298.102783 
L 253.459993 300.038427 
L 253.788964 299.978831 
L 254.117934 300.274699 
L 254.446905 301.366799 
L 254.775875 301.920509 
L 255.104846 303.079252 
L 255.433817 302.507045 
L 256.091758 305.134774 
L 256.420729 306.334394 
L 256.749699 306.691623 
L 257.07867 304.418094 
L 257.407641 306.472348 
L 257.736611 306.169923 
L 258.065582 308.925717 
L 258.394553 310.230875 
L 258.723523 310.571237 
L 259.052494 309.187893 
L 259.381464 307.142771 
L 259.710435 304.309743 
L 260.039406 303.576655 
L 260.368376 305.907214 
L 260.697347 302.284822 
L 261.026318 302.573013 
L 261.355288 299.236421 
L 261.684259 297.832016 
L 262.01323 297.77094 
L 262.3422 292.79131 
L 262.671171 292.918978 
L 263.000141 288.921248 
L 263.329112 291.852191 
L 263.658083 292.369116 
L 263.987053 291.243035 
L 264.316024 288.346805 
L 264.644995 288.681395 
L 264.973965 286.811062 
L 265.631907 291.417619 
L 266.289848 297.899691 
L 266.618819 299.930621 
L 266.947789 299.870953 
L 267.27676 300.612097 
L 267.60573 300.905856 
L 267.934701 305.068379 
L 268.263672 307.609528 
L 268.592642 309.179913 
L 268.921613 307.293935 
L 269.250584 307.891693 
L 269.579554 306.541961 
L 269.908525 308.956106 
L 270.237496 310.260767 
L 270.566466 310.443812 
L 270.895437 311.724181 
L 271.224407 313.600684 
L 271.553378 314.829504 
L 271.882349 314.187633 
L 272.211319 316.302871 
L 272.54029 308.999025 
L 272.869261 307.508043 
L 273.198231 309.649814 
L 273.527202 307.77496 
L 273.856173 313.233965 
L 274.185143 313.561327 
L 274.514114 314.188444 
L 274.843085 315.407666 
L 275.172055 312.493956 
L 275.501026 310.762786 
L 276.487938 314.301144 
L 276.816908 316.0404 
L 277.145879 316.355612 
L 277.80382 318.989211 
L 278.132791 318.942331 
L 278.461762 319.664454 
L 278.790732 321.001829 
L 279.119703 318.649308 
L 279.448674 319.023432 
L 279.777644 315.764345 
L 280.106615 317.177105 
L 280.435585 316.8423 
L 280.764556 320.610627 
L 281.093527 321.929713 
L 281.422497 321.148634 
L 281.751468 319.545968 
L 282.080439 321.717335 
L 282.409409 324.760597 
L 282.73838 325.486717 
L 283.067351 328.485851 
L 283.396321 328.747187 
L 284.054262 333.208787 
L 284.383233 328.107687 
L 284.712204 329.828584 
L 285.041174 328.726511 
L 285.699116 334.228662 
L 286.028086 334.02813 
L 286.357057 333.004467 
L 286.686028 330.84469 
L 287.343969 325.792103 
L 287.67294 326.191225 
L 288.330881 323.893366 
L 288.659851 323.654894 
L 288.988822 321.915954 
L 289.317793 325.552659 
L 289.646763 325.510184 
L 289.975734 326.227812 
L 290.304705 325.997909 
L 290.633675 329.978555 
L 290.962646 328.938158 
L 291.291617 329.676867 
L 291.620587 328.157717 
L 291.949558 328.359777 
L 292.278528 329.650069 
L 293.26544 326.639501 
L 293.594411 325.540099 
L 293.923382 322.585152 
L 294.252352 321.480376 
L 294.581323 319.818188 
L 294.910294 319.28861 
L 295.239264 317.224521 
L 295.568235 318.322537 
L 295.897206 316.370846 
L 296.226176 316.902079 
L 296.555147 319.947754 
L 297.542059 315.156683 
L 297.871029 311.201247 
L 298.2 309.67373 
L 298.528971 306.770091 
L 298.857941 304.909155 
L 299.186912 293.77204 
L 299.515883 288.763951 
L 299.844853 290.598511 
L 300.173824 285.816293 
L 300.502794 293.475021 
L 301.160736 288.808676 
L 301.489706 284.139437 
L 301.818677 282.603162 
L 302.147648 286.781921 
L 302.476618 286.611358 
L 302.805589 287.360698 
L 303.13456 295.006126 
L 303.46353 292.690792 
L 303.792501 293.203249 
L 304.450442 289.796565 
L 304.779413 288.34497 
L 305.108383 286.068027 
L 305.437354 285.486872 
L 306.095295 281.278369 
L 306.424266 280.77771 
L 306.753237 282.112026 
L 307.082207 279.160169 
L 307.411178 278.978735 
L 308.39809 265.975421 
L 308.72706 267.492486 
L 309.056031 257.218705 
L 309.385002 253.710085 
L 309.713972 238.620668 
L 310.042943 239.574052 
L 310.371914 235.595131 
L 310.700884 222.008074 
L 311.029855 218.562027 
L 311.358826 231.0523 
L 311.687796 225.899426 
L 312.016767 208.356659 
L 312.345738 217.263506 
L 312.674708 210.287646 
L 313.003679 209.635162 
L 313.332649 200.384039 
L 313.66162 195.178673 
L 314.977503 152.479578 
L 315.306473 149.496763 
L 315.635444 138.338144 
L 315.964415 135.677911 
L 316.293385 122.866668 
L 316.622356 139.19779 
L 316.951326 141.79372 
L 317.280297 126.574281 
L 317.609268 130.350592 
L 317.938238 150.358279 
L 318.267209 153.076659 
L 318.59618 146.568718 
L 318.92515 136.973716 
L 319.583092 102.110026 
L 319.912062 93.349981 
L 320.241033 98.506535 
L 320.570004 68.746448 
L 320.898974 61.224549 
L 321.227945 59.750869 
L 321.556915 56.625043 
L 322.214857 43.583658 
L 322.543827 28.583021 
L 322.872798 37.789399 
L 323.201769 51.324363 
L 323.530739 37.335088 
L 323.85971 60.027073 
L 324.188681 59.880416 
L 324.517651 74.208554 
L 324.846622 80.046495 
L 325.175593 64.159558 
L 325.504563 70.183948 
L 325.833534 63.695816 
L 326.162504 53.17368 
L 326.491475 46.339218 
L 326.820446 35.940454 
L 327.149416 53.106194 
L 327.807358 109.754184 
L 328.136328 89.000284 
L 328.79427 101.251725 
L 329.12324 101.435791 
L 329.452211 104.206507 
L 329.781181 130.576299 
L 330.768093 162.955483 
L 331.097064 157.226683 
L 331.426035 186.79166 
L 331.755005 155.399174 
L 332.083976 146.910738 
L 332.412947 153.598064 
L 332.741917 151.396064 
L 333.070888 164.608252 
L 333.399859 167.891217 
L 333.728829 174.661533 
L 334.0578 206.070792 
L 334.38677 211.671285 
L 335.044712 218.562697 
L 335.373682 205.729506 
L 335.702653 212.072956 
L 336.031624 205.114834 
L 336.360594 210.193399 
L 337.018536 235.722913 
L 337.347506 238.883549 
L 337.676477 239.279472 
L 338.005447 251.939504 
L 338.334418 259.14671 
L 338.663389 260.137678 
L 338.992359 249.793993 
L 339.32133 270.1811 
L 339.979271 278.938935 
L 340.308242 286.364172 
L 340.637213 284.576126 
L 340.966183 268.366467 
L 341.295154 269.035658 
L 341.624125 274.712795 
L 341.953095 263.684536 
L 342.282066 267.362156 
L 342.611036 261.819796 
L 342.940007 272.913611 
L 343.268978 275.270573 
L 343.597948 269.060826 
L 344.25589 262.588571 
L 344.913831 239.224883 
L 345.242802 242.715593 
L 345.571772 256.354592 
L 345.900743 247.52069 
L 346.229713 251.948538 
L 346.558684 241.999443 
L 346.887655 235.43928 
L 347.216625 231.654373 
L 347.545596 229.50529 
L 347.874567 225.573985 
L 348.203537 230.036279 
L 348.532508 227.706257 
L 348.861479 217.768082 
L 349.190449 217.482197 
L 349.51942 220.280535 
L 349.848391 218.818831 
L 350.177361 209.862881 
L 350.506332 210.458744 
L 350.835302 200.884065 
L 351.164273 197.562439 
L 351.493244 187.678186 
L 351.822214 183.720847 
L 352.151185 178.044593 
L 352.480156 169.681552 
L 352.809126 165.370201 
L 353.138097 175.053553 
L 353.467068 188.379553 
L 354.125009 201.520321 
L 354.453979 200.832618 
L 354.78295 191.869426 
L 355.111921 193.116144 
L 355.440891 201.401554 
L 355.769862 205.587191 
L 356.098833 196.667387 
L 356.427803 192.118126 
L 356.756774 182.936242 
L 357.085745 189.799292 
L 357.414715 178.319578 
L 357.743686 175.862425 
L 358.072657 167.625808 
L 358.401627 182.299687 
L 358.730598 167.908805 
L 359.059568 171.516628 
L 359.388539 181.150999 
L 359.71751 177.896077 
L 360.04648 168.89427 
L 360.375451 174.465643 
L 360.704422 172.392288 
L 361.033392 179.173833 
L 361.362363 188.678449 
L 361.691334 191.546771 
L 362.020304 186.284377 
L 362.349275 183.71761 
L 363.007216 186.713488 
L 363.336187 182.33289 
L 363.665157 182.400836 
L 363.994128 175.655788 
L 364.323099 175.939129 
L 364.652069 177.712501 
L 365.638981 206.691775 
L 365.967952 206.387381 
L 366.296923 213.381164 
L 366.625893 207.648274 
L 366.954864 214.231315 
L 367.283834 213.066404 
L 367.612805 217.694729 
L 367.941776 214.327845 
L 368.270746 227.125711 
L 368.599717 219.739395 
L 368.928688 222.839106 
L 369.257658 211.936708 
L 369.586629 206.864298 
L 369.9156 204.74029 
L 370.24457 208.114919 
L 370.573541 205.644028 
L 370.902511 207.353199 
L 371.231482 203.056881 
L 371.560453 202.560616 
L 371.889423 206.906666 
L 372.218394 207.512371 
L 372.876335 197.525131 
L 373.205306 184.195022 
L 373.534277 181.404899 
L 373.863247 180.858684 
L 374.192218 171.159214 
L 374.850159 190.477459 
L 375.17913 191.145395 
L 375.5081 193.195045 
L 375.837071 193.658171 
L 376.166042 189.825881 
L 376.495012 194.277555 
L 376.823983 196.112999 
L 377.152954 194.461783 
L 377.481924 198.045024 
L 377.810895 204.042739 
L 378.139866 202.089833 
L 378.797807 196.621894 
L 379.126778 191.719962 
L 379.455748 193.198472 
L 379.784719 188.991867 
L 380.113689 189.691386 
L 380.44266 191.384273 
L 380.771631 186.546252 
L 381.100601 188.265872 
L 381.429572 184.364022 
L 381.758543 183.249139 
L 382.087513 186.034681 
L 382.416484 192.636061 
L 382.745455 195.883084 
L 383.074425 195.216947 
L 383.403396 196.09761 
L 383.732366 206.804871 
L 384.061337 205.084137 
L 384.390308 206.103696 
L 384.719278 209.493358 
L 385.048249 201.879118 
L 385.37722 200.672753 
L 385.70619 197.774001 
L 386.035161 195.97708 
L 386.364132 199.370951 
L 387.022073 209.500753 
L 387.351044 211.580539 
L 387.680014 215.586222 
L 388.008985 210.491441 
L 388.337955 216.127001 
L 388.666926 218.648132 
L 388.995897 219.600606 
L 389.324867 223.255814 
L 389.653838 228.653669 
L 389.982809 223.943123 
L 390.311779 232.122069 
L 390.64075 221.400943 
L 390.969721 217.481859 
L 391.298691 220.668705 
L 391.627662 225.141775 
L 391.956632 227.367613 
L 392.285603 228.755755 
L 392.614574 232.053149 
L 392.943544 238.261856 
L 393.272515 240.008128 
L 393.601486 240.692226 
L 393.930456 243.891939 
L 394.588398 233.747076 
L 394.917368 232.908875 
L 395.246339 231.286417 
L 395.57531 230.750055 
L 395.90428 225.310629 
L 396.233251 224.09975 
L 396.562221 225.515982 
L 396.891192 227.736733 
L 397.220163 231.538468 
L 397.549133 237.452922 
L 398.536045 228.468801 
L 398.865016 229.526705 
L 399.193987 225.797797 
L 399.851928 233.242775 
L 400.180898 234.113578 
L 400.509869 231.265726 
L 400.83884 236.867692 
L 401.16781 233.911244 
L 401.825752 238.844439 
L 402.154722 238.469413 
L 403.141634 245.357603 
L 403.470605 244.99886 
L 403.799576 242.337531 
L 404.128546 246.073714 
L 404.457517 247.715693 
L 404.786487 250.891317 
L 405.115458 245.303807 
L 405.444429 245.662684 
L 405.773399 252.177912 
L 406.10237 248.145952 
L 406.760311 245.033373 
L 407.089282 249.419918 
L 407.418253 246.003771 
L 408.076194 253.475115 
L 408.405164 252.865907 
L 408.734135 256.469605 
L 409.392076 245.253658 
L 409.721047 245.038257 
L 410.050018 239.501331 
L 410.378988 236.738297 
L 410.707959 238.63975 
L 411.03693 233.45734 
L 411.3659 235.555202 
L 411.694871 227.353689 
L 412.023842 226.465434 
L 412.352812 234.016526 
L 412.681783 230.997186 
L 413.339724 236.628943 
L 413.668695 233.356093 
L 413.997665 239.187284 
L 414.655607 240.97794 
L 414.984577 238.242224 
L 415.313548 242.835899 
L 415.642519 240.57261 
L 416.30046 234.884702 
L 416.958401 233.341193 
L 417.287372 239.328456 
L 417.616342 242.543266 
L 418.274284 254.15449 
L 418.932225 248.850508 
L 419.261196 252.140602 
L 420.248108 247.369938 
L 420.577078 246.733258 
L 420.906049 247.372803 
L 421.235019 245.4628 
L 421.56399 242.810054 
L 421.892961 236.603164 
L 422.221931 239.572065 
L 422.550902 241.438096 
L 422.879873 240.627306 
L 423.208843 236.995739 
L 423.537814 239.34955 
L 423.866785 243.610442 
L 424.195755 242.811599 
L 424.524726 245.805479 
L 424.853696 243.731268 
L 425.182667 239.740379 
L 425.511638 238.025566 
L 425.840608 237.196007 
L 426.169579 239.698372 
L 426.49855 247.379913 
L 426.82752 245.752956 
L 427.156491 246.683116 
L 427.485462 251.872372 
L 427.814432 252.077845 
L 428.143403 248.453263 
L 428.472374 249.927476 
L 428.801344 249.163378 
L 429.130315 244.064651 
L 429.459285 244.426626 
L 429.788256 248.542821 
L 430.117227 248.472665 
L 430.446197 252.052402 
L 430.775168 249.384761 
L 431.104139 250.291314 
L 431.433109 248.836401 
L 431.76208 244.42583 
L 432.091051 246.520046 
L 432.420021 251.145916 
L 433.077963 253.067123 
L 434.064874 250.677137 
L 434.393845 251.022581 
L 434.722816 248.059194 
L 435.051786 250.523112 
L 435.380757 248.79397 
L 435.709728 246.34291 
L 436.038698 246.699189 
L 436.367669 245.633024 
L 437.02561 236.763282 
L 437.354581 235.92678 
L 437.683551 233.5564 
L 438.012522 232.546962 
L 438.341493 234.657114 
L 438.670463 227.024343 
L 438.999434 226.457937 
L 439.328405 226.701532 
L 440.315317 223.025822 
L 440.973258 228.453685 
L 441.302229 220.193042 
L 441.631199 220.783358 
L 441.96017 217.50597 
L 442.28914 216.734902 
L 442.947082 185.475036 
L 443.276052 186.177102 
L 443.605023 176.134841 
L 443.933994 172.827476 
L 444.262964 167.740471 
L 444.591935 164.744818 
L 444.920906 158.122825 
L 445.249876 159.611506 
L 445.907817 178.003027 
L 446.236788 169.031718 
L 446.894729 161.920167 
L 447.2237 166.323601 
L 447.552671 157.067205 
L 447.881641 140.008586 
L 448.210612 134.385664 
L 449.197524 93.783544 
L 449.526495 86.821049 
L 449.855465 83.922736 
L 450.184436 98.377722 
L 450.513406 90.057305 
L 450.842377 63.869522 
L 451.171348 68.859992 
L 451.500318 36.014474 
L 451.829289 24.496364 
L 452.15826 74.178784 
L 452.48723 95.688758 
L 452.816201 133.30427 
L 453.145172 110.894558 
L 453.803113 95.002881 
L 454.132083 125.947809 
L 454.461054 119.19321 
L 454.790025 102.826926 
L 455.118995 138.096416 
L 455.447966 160.228326 
L 455.776937 165.774797 
L 456.105907 163.155841 
L 456.434878 172.468168 
L 456.763849 172.740815 
L 457.092819 175.390369 
L 457.42179 164.772663 
L 457.750761 148.472949 
L 458.079731 145.410488 
L 458.408702 147.40965 
L 458.737672 132.24981 
L 459.066643 132.047605 
L 459.395614 126.96591 
L 459.724584 141.425304 
L 460.053555 133.807453 
L 460.382526 140.492747 
L 460.711496 128.872396 
L 461.040467 124.767799 
L 461.369438 131.161866 
L 462.027379 180.6979 
L 462.356349 179.284933 
L 462.68532 192.951385 
L 463.014291 190.642078 
L 463.343261 182.55739 
L 463.672232 190.440415 
L 464.001203 183.141158 
L 464.330173 187.916176 
L 464.659144 176.304351 
L 465.317085 171.693632 
L 465.646056 173.042636 
L 465.975027 166.182408 
L 466.303997 175.35917 
L 466.632968 176.471908 
L 466.961938 178.215994 
L 467.290909 184.790444 
L 467.94885 184.468712 
L 468.277821 175.314681 
L 468.606792 175.787031 
L 468.935762 178.175943 
L 469.264733 179.695357 
L 469.922674 168.772016 
L 470.251645 163.316611 
L 470.909586 169.237081 
L 471.238557 169.28364 
L 471.896498 158.489611 
L 472.225469 161.533192 
L 472.554439 161.808705 
L 472.88341 160.267518 
L 473.212381 166.259241 
L 473.541351 163.190097 
L 473.870322 164.817589 
L 474.199293 160.384346 
L 474.528263 158.60502 
L 474.857234 158.193334 
L 475.186204 157.088929 
L 475.515175 152.03922 
L 475.844146 151.85261 
L 476.173116 146.688812 
L 476.502087 148.193145 
L 476.831058 148.725488 
L 477.160028 157.421041 
L 477.488999 158.627272 
L 477.81797 158.67608 
L 478.14694 154.811845 
L 478.475911 158.138059 
L 478.804881 157.956254 
L 479.133852 154.772629 
L 479.462823 156.226746 
L 479.791793 151.856135 
L 480.120764 151.669381 
L 480.449735 147.687517 
L 480.778705 150.391481 
L 481.107676 150.918961 
L 481.436647 149.54179 
L 481.765617 147.43871 
L 482.094588 150.145464 
L 482.423559 145.18318 
L 482.752529 148.402566 
L 483.0815 153.743485 
L 483.41047 155.439105 
L 483.739441 159.690067 
L 484.068412 161.342801 
L 484.397382 160.025963 
L 484.726353 158.015018 
L 485.055324 158.525635 
L 485.384294 153.2769 
L 485.713265 154.975886 
L 486.371206 148.00778 
L 486.700177 146.132065 
L 487.029148 143.513576 
L 487.687089 139.924516 
L 488.016059 139.479429 
L 488.34503 144.021048 
L 489.002971 133.985973 
L 489.331942 131.746188 
L 489.660913 131.02937 
L 489.989883 131.599679 
L 490.318854 131.139707 
L 490.647825 131.194343 
L 490.976795 127.126404 
L 491.305766 127.967075 
L 491.634736 124.891734 
L 491.963707 128.643173 
L 492.292678 123.754322 
L 492.621648 126.991726 
L 492.950619 128.094692 
L 493.27959 131.80061 
L 493.937531 134.473414 
L 494.266502 131.220389 
L 494.595472 130.244471 
L 494.924443 123.575435 
L 495.253414 120.183046 
L 495.911355 109.171451 
L 496.240325 117.621236 
L 496.569296 145.073299 
L 497.227237 131.336916 
L 497.556208 134.224204 
L 497.885179 129.69484 
L 498.214149 132.859697 
L 498.54312 142.641771 
L 498.872091 140.970479 
L 499.201061 144.493407 
L 499.530032 142.590323 
L 499.859002 149.784193 
L 500.187973 149.356735 
L 500.516944 148.449517 
L 500.845914 142.249953 
L 501.174885 140.576001 
L 501.832826 150.997256 
L 502.161797 151.047682 
L 502.490768 153.713972 
L 502.819738 164.110006 
L 503.148709 168.203053 
L 503.47768 176.413935 
L 503.80665 167.961349 
L 504.135621 167.566392 
L 504.464591 163.851407 
L 504.793562 175.149263 
L 505.122533 170.493053 
L 505.451503 180.583973 
L 505.780474 175.629634 
L 506.109445 175.674837 
L 506.767386 180.00744 
L 507.096357 170.235903 
L 507.425327 168.75192 
L 507.754298 185.966584 
L 508.083268 190.067355 
L 508.412239 186.133755 
L 508.74121 180.29783 
L 509.07018 186.390188 
L 509.399151 179.954251 
L 509.728122 187.518948 
L 510.057092 186.756289 
L 510.386063 185.586544 
L 510.715034 187.052513 
L 511.044004 193.754761 
L 511.372975 195.55202 
L 511.701946 193.853277 
L 512.359887 187.052682 
L 512.688857 186.288257 
L 513.017828 184.710671 
L 513.346799 179.44621 
L 513.675769 169.439006 
L 514.00474 155.442929 
L 514.333711 158.05994 
L 514.991652 146.478335 
L 515.320623 147.256847 
L 515.649593 134.503389 
L 515.978564 138.881281 
L 516.307534 131.685051 
L 516.636505 146.91257 
L 516.965476 147.205803 
L 517.294446 158.131225 
L 517.623417 162.563881 
L 517.952388 165.327342 
L 518.281358 162.021822 
L 518.610329 167.287062 
L 518.9393 162.237983 
L 519.26827 152.541515 
L 519.597241 153.536866 
L 519.926212 149.586353 
L 520.255182 154.900977 
L 520.584153 154.950575 
L 520.913123 153.128931 
L 521.571065 166.70193 
L 521.900035 162.75028 
L 522.229006 156.919504 
L 522.557977 158.128349 
L 522.886947 149.178943 
L 523.215918 146.832998 
L 523.544889 148.820479 
L 523.873859 155.112251 
L 524.20283 157.265485 
L 524.5318 151.756445 
L 524.860771 154.414789 
L 525.189742 152.354532 
L 525.847683 151.03397 
L 526.176654 157.267722 
L 526.505624 157.779992 
L 526.834595 158.522204 
L 527.821507 147.677495 
L 528.150478 147.487448 
L 528.479448 140.538973 
L 528.808419 139.598354 
L 529.137389 140.897477 
L 529.795331 156.854547 
L 530.124301 152.727732 
L 530.453272 142.152086 
L 530.782243 154.292805 
L 531.111213 141.6762 
L 531.769155 166.345172 
L 532.098125 164.612269 
L 532.427096 165.556778 
L 533.085037 159.583045 
L 533.414008 161.924365 
L 534.071949 154.703162 
L 534.40092 156.626013 
L 534.72989 161.319815 
L 535.058861 158.182567 
L 535.387832 151.080639 
L 535.716802 151.368821 
L 536.045773 146.669454 
L 536.374744 145.509872 
L 536.703714 130.474093 
L 537.032685 110.116816 
L 537.361655 122.16163 
L 537.690626 123.818326 
L 538.019597 113.803138 
L 538.348567 110.285781 
L 538.677538 110.066269 
L 539.006509 108.731431 
L 539.335479 106.26971 
L 539.66445 110.56839 
L 539.993421 118.97597 
L 540.322391 112.556099 
L 540.651362 122.561417 
L 540.980333 122.884165 
L 541.638274 111.983276 
L 542.296215 120.070631 
L 542.625186 111.526529 
L 542.954156 112.139979 
L 543.283127 106.387637 
L 543.612098 104.470252 
L 543.941068 101.402315 
L 544.270039 111.236629 
L 544.59901 107.686452 
L 544.92798 107.746059 
L 545.256951 101.34016 
L 545.585921 92.488168 
L 545.914892 94.032829 
L 546.243863 90.852293 
L 546.572833 101.345547 
L 546.901804 100.256463 
L 547.230775 87.042136 
L 547.559745 83.182559 
L 547.888716 98.836631 
L 548.217687 98.608097 
L 548.875628 108.228883 
L 549.204599 107.446499 
L 549.533569 101.877997 
L 549.86254 105.095578 
L 550.19151 106.858288 
L 550.520481 102.406132 
L 551.178422 107.091729 
L 551.507393 101.516207 
L 551.836364 101.289785 
L 551.836364 101.289785 
" style="fill:none;stroke:#1f77b4;stroke-linecap:square;stroke-width:1.5;"/>
   </g>
   <g id="patch_3">
    <path d="M 19.2 387.72 
L 19.2 7.2 
" style="fill:none;stroke:#000000;stroke-linecap:square;stroke-linejoin:miter;stroke-width:0.8;"/>
   </g>
   <g id="patch_4">
    <path d="M 577.2 387.72 
L 577.2 7.2 
" style="fill:none;stroke:#000000;stroke-linecap:square;stroke-linejoin:miter;stroke-width:0.8;"/>
   </g>
   <g id="patch_5">
    <path d="M 19.2 387.72 
L 577.2 387.72 
" style="fill:none;stroke:#000000;stroke-linecap:square;stroke-linejoin:miter;stroke-width:0.8;"/>
   </g>
   <g id="patch_6">
    <path d="M 19.2 7.2 
L 577.2 7.2 
" style="fill:none;stroke:#000000;stroke-linecap:square;stroke-linejoin:miter;stroke-width:0.8;"/>
   </g>
  </g>
 </g>
 <defs>
  <clipPath id="p82d91f6c16">
   <rect height="380.52" width="558" x="19.2" y="7.2"/>
  </clipPath>
 </defs>
</svg>
